<?xml version="1.0" encoding="UTF-8"?>
<!DOCTYPE svg PUBLIC "-//W3C//DTD SVG 1.1//EN" "http://www.w3.org/Graphics/SVG/1.1/DTD/svg11.dtd">
<svg xmlns="http://www.w3.org/2000/svg" version="1.1" width="882px" height="630px" style="shape-rendering:geometricPrecision; text-rendering:geometricPrecision; image-rendering:optimizeQuality; fill-rule:evenodd; clip-rule:evenodd" xmlns:xlink="http://www.w3.org/1999/xlink">
<g><path style="opacity:1" fill="#000000" d="M -0.5,-0.5 C 293.5,-0.5 587.5,-0.5 881.5,-0.5C 881.5,209.5 881.5,419.5 881.5,629.5C 831.5,629.5 781.5,629.5 731.5,629.5C 731.719,628.325 731.386,627.325 730.5,626.5C 726.992,624.872 723.325,623.706 719.5,623C 716.833,621.667 716.833,620.333 719.5,619C 717.095,616.968 717.595,615.468 721,614.5C 721.732,609.391 720.898,604.557 718.5,600C 719.628,598.532 720.294,596.865 720.5,595C 719.164,593.166 718.164,591.166 717.5,589C 717.495,586.837 718.495,585.337 720.5,584.5C 717.126,582.762 713.793,581.096 710.5,579.5C 710.351,578.448 710.517,577.448 711,576.5C 712.987,575.782 714.821,574.782 716.5,573.5C 717.169,569.567 717.502,565.733 717.5,562C 717.167,561.167 716.833,560.333 716.5,559.5C 712.866,564.733 711.032,564.066 711,557.5C 714.897,554.697 715.397,551.364 712.5,547.5C 710.833,546.333 709.167,545.167 707.5,544C 709.691,540.77 710.024,537.27 708.5,533.5C 706.246,532.876 704.579,531.543 703.5,529.5C 707.284,525.748 707.284,521.914 703.5,518C 706.468,515.822 706.135,514.656 702.5,514.5C 702.5,512.833 702.5,511.167 702.5,509.5C 703.5,509.5 704.5,509.5 705.5,509.5C 705.826,505.116 705.492,500.783 704.5,496.5C 701.866,493.748 701.866,490.915 704.5,488C 703.953,484.34 702.286,481.34 699.5,479C 706.144,474.78 707.144,469.447 702.5,463C 703.01,461.174 703.844,461.007 705,462.5C 705.667,458.833 705.667,455.167 705,451.5C 704.333,452.833 703.667,452.833 703,451.5C 702.829,446.136 702.329,440.802 701.5,435.5C 699.082,434.271 698.082,432.271 698.5,429.5C 698.221,426.994 699.054,424.994 701,423.5C 701.689,424.357 702.522,425.023 703.5,425.5C 704.244,424.009 704.91,422.509 705.5,421C 701.68,417.725 701.513,414.225 705,410.5C 706.483,412.119 707.65,412.286 708.5,411C 707.873,408.865 707.373,406.698 707,404.5C 705.043,402.411 702.876,401.577 700.5,402C 697.833,400.333 697.833,398.667 700.5,397C 697.751,394.81 698.085,393.143 701.5,392C 700.09,391.632 699.09,390.799 698.5,389.5C 700.202,386.31 699.536,385.143 696.5,386C 694.527,382.242 695.527,380.075 699.5,379.5C 698.756,376.05 700.09,374.384 703.5,374.5C 702.935,369.851 702.435,365.184 702,360.5C 698.378,355.85 698.878,351.683 703.5,348C 704.448,347.517 705.448,347.351 706.5,347.5C 707.178,339.517 707.178,331.683 706.5,324C 707.469,322.242 708.636,321.742 710,322.5C 711.325,320.007 713.491,318.84 716.5,319C 713.632,314.764 713.132,310.264 715,305.5C 716.692,305.324 718.192,304.824 719.5,304C 717.35,299.99 715.517,296.156 714,292.5C 713.502,289.518 713.335,286.518 713.5,283.5C 712.5,283.5 711.5,283.5 710.5,283.5C 711.127,280.266 711.127,277.099 710.5,274C 707.55,268.766 703.884,264.099 699.5,260C 699.988,258.416 700.988,257.249 702.5,256.5C 701.413,255.895 700.246,256.228 699,257.5C 697.312,256.675 697.145,255.675 698.5,254.5C 696.378,250.96 694.044,247.46 691.5,244C 691.833,243.667 692.167,243.333 692.5,243C 688.326,241.492 687.659,239.159 690.5,236C 686.251,233.583 683.251,230.083 681.5,225.5C 683.49,222.111 683.99,218.444 683,214.5C 682,215.833 681,215.833 680,214.5C 679.667,212.833 679.333,211.167 679,209.5C 678,210.833 677,210.833 676,209.5C 674.13,204.921 671.63,200.754 668.5,197C 667.976,193.738 669.143,190.905 672,188.5C 674.574,183.283 673.907,178.616 670,174.5C 668.953,169.245 669.453,164.245 671.5,159.5C 671.415,155.61 671.248,151.61 671,147.5C 668.714,144.896 666.881,142.063 665.5,139C 666.241,136.194 667.241,133.527 668.5,131C 666.545,126.056 666.045,120.889 667,115.5C 667.853,113.875 668.853,113.542 670,114.5C 670.172,118.871 670.672,123.204 671.5,127.5C 672.662,122.533 672.829,117.533 672,112.5C 670.719,112.619 669.552,112.119 668.5,111C 669.253,109.513 670.086,109.346 671,110.5C 672.365,109.407 672.699,108.074 672,106.5C 671,107.833 670,107.833 669,106.5C 668.685,103.628 668.185,100.795 667.5,98C 667.735,97.1268 668.069,96.2935 668.5,95.5C 665.614,88.1463 664.948,80.6463 666.5,73C 663.887,71.8935 662.22,70.0601 661.5,67.5C 660.636,64.0954 659.469,60.7621 658,57.5C 652.632,48.7551 647.632,39.7551 643,30.5C 641.296,28.6266 639.463,26.9599 637.5,25.5C 633.645,22.6404 629.812,19.6404 626,16.5C 623.959,17.4231 621.792,17.7564 619.5,17.5C 615.734,18.7687 612.067,20.2687 608.5,22C 609.694,24.6578 608.694,25.8244 605.5,25.5C 605.657,26.8734 605.49,28.2068 605,29.5C 603.307,31.959 601.474,34.2923 599.5,36.5C 599.308,40.0496 597.642,42.5496 594.5,44C 594.957,44.414 595.291,44.914 595.5,45.5C 592.516,51.1435 589.683,56.8101 587,62.5C 586,63.5 585,64.5 584,65.5C 581.925,69.2708 580.258,73.2708 579,77.5C 574.409,82.9495 570.742,88.9495 568,95.5C 565.572,97.4767 563.572,99.8101 562,102.5C 560.615,101.449 559.615,100.116 559,98.5C 558.587,101.232 557.92,103.899 557,106.5C 554.638,107.352 552.805,108.852 551.5,111C 546.632,110.25 542.299,111.584 538.5,115C 536.623,115.576 534.789,115.409 533,114.5C 531.715,114.95 530.548,115.617 529.5,116.5C 526.921,115.112 526.921,113.612 529.5,112C 527.093,110.092 527.093,108.092 529.5,106C 528.66,104.233 527.327,102.899 525.5,102C 519.385,100.093 513.385,100.26 507.5,102.5C 500.738,99.7418 493.738,98.5752 486.5,99C 484.285,97.9562 481.952,97.2895 479.5,97C 475.641,93.5809 471.641,90.4142 467.5,87.5C 466.833,87.6667 466.167,87.8333 465.5,88C 466.944,89.126 467.61,90.626 467.5,92.5C 466.832,97.1695 466.832,101.67 467.5,106C 463.442,108.015 459.609,107.515 456,104.5C 450.902,104.987 446.068,106.32 441.5,108.5C 439.745,107.928 438.078,107.094 436.5,106C 427.659,98.0428 419.493,89.5428 412,80.5C 402.917,65.3321 393.584,50.3321 384,35.5C 380.629,30.2515 376.462,25.7515 371.5,22C 369.167,21.3333 366.833,21.3333 364.5,22C 362.413,25.9232 359.746,29.4232 356.5,32.5C 352.407,36.7912 349.24,41.7912 347,47.5C 345.921,53.8186 343.921,59.8186 341,65.5C 340.17,73.5013 339.67,81.5013 339.5,89.5C 339.902,95.2173 339.235,100.717 337.5,106C 337.258,108.348 338.092,110.182 340,111.5C 340.077,114.758 340.244,117.924 340.5,121C 340.18,122.653 339.18,123.653 337.5,124C 340.817,125.085 341.151,126.585 338.5,128.5C 337.832,135.2 336.999,141.867 336,148.5C 334.575,149.212 333.075,149.379 331.5,149C 332.191,150.067 332.691,151.234 333,152.5C 335.658,151.306 336.824,152.306 336.5,155.5C 335.5,155.5 334.5,155.5 333.5,155.5C 332.935,161.655 332.935,167.488 333.5,173C 332.773,174.399 332.273,175.899 332,177.5C 331.333,178.833 330.667,178.833 330,177.5C 329.226,173.853 328.559,170.186 328,166.5C 326.155,167.05 324.655,168.05 323.5,169.5C 324.122,172.37 324.789,175.204 325.5,178C 322.314,179.092 319.647,180.925 317.5,183.5C 318.313,184.814 319.313,185.981 320.5,187C 317.804,189.172 314.804,190.672 311.5,191.5C 314.187,197.282 312.52,201.115 306.5,203C 305.833,204.333 305.167,205.667 304.5,207C 303.216,207.684 302.049,207.517 301,206.5C 300.914,211.252 298.581,214.252 294,215.5C 294.048,217.926 293.881,220.259 293.5,222.5C 296.044,224.392 296.044,226.225 293.5,228C 296.028,229.316 296.028,230.483 293.5,231.5C 290.078,228.71 289.411,228.877 291.5,232C 289.584,235.161 287.75,234.994 286,231.5C 284.806,233.623 284.14,235.957 284,238.5C 282.989,239.337 281.822,239.67 280.5,239.5C 280.67,240.822 280.337,241.989 279.5,243C 275.325,244.616 271.325,246.616 267.5,249C 266.773,250.399 266.273,251.899 266,253.5C 262.236,255.632 258.736,258.132 255.5,261C 259.32,262.753 261.32,265.42 261.5,269C 258.639,270.246 255.639,271.246 252.5,272C 249.486,274.019 246.82,276.352 244.5,279C 244.944,280.533 245.277,282.033 245.5,283.5C 244.564,284.974 243.23,285.974 241.5,286.5C 240.548,288.045 240.215,289.712 240.5,291.5C 246.375,291.636 247.875,294.303 245,299.5C 243.649,301.019 242.149,302.352 240.5,303.5C 242.508,307.229 243.008,311.229 242,315.5C 241,316.833 240,316.833 239,315.5C 237.114,318.242 234.614,319.909 231.5,320.5C 231.579,321.93 231.246,323.264 230.5,324.5C 232.287,325.316 233.954,326.316 235.5,327.5C 235.296,326.471 235.796,325.471 237,324.5C 237.5,325 238,325.5 238.5,326C 237.57,327.395 237.57,328.895 238.5,330.5C 238.444,331.737 237.944,332.737 237,333.5C 236,332.167 235,330.833 234,329.5C 232.691,331.976 230.858,333.976 228.5,335.5C 229.747,337.042 229.747,338.542 228.5,340C 230.047,340.333 231.38,339.833 232.5,338.5C 233.5,338.833 234.167,339.5 234.5,340.5C 232.593,343.709 230.093,346.375 227,348.5C 228.343,351.799 227.176,353.466 223.5,353.5C 223.185,355.226 223.019,356.893 223,358.5C 225.682,361.35 228.516,364.016 231.5,366.5C 229.677,368.158 228.01,369.991 226.5,372C 227.517,373.049 227.684,374.216 227,375.5C 225.018,376.094 223.184,377.26 221.5,379C 225.435,381.462 225.102,383.462 220.5,385C 222.615,385.424 223.448,386.591 223,388.5C 219.589,391.415 215.756,393.581 211.5,395C 212.833,396 212.833,397 211.5,398C 213.081,398.707 214.581,399.54 216,400.5C 218.333,399.167 220.667,399.167 223,400.5C 223.667,401.5 223.667,402.5 223,403.5C 221.167,404.667 219.667,406.167 218.5,408C 217.451,408.492 216.451,408.326 215.5,407.5C 214.152,409.611 214.485,411.445 216.5,413C 215.249,415.925 214.249,418.925 213.5,422C 216.646,424.906 220.313,426.74 224.5,427.5C 224.5,427.833 224.5,428.167 224.5,428.5C 224.771,433.913 224.271,439.246 223,444.5C 221.989,445.337 220.822,445.67 219.5,445.5C 218.612,448.522 218.279,451.522 218.5,454.5C 219.167,455.5 219.833,456.5 220.5,457.5C 219.553,459.059 218.887,460.726 218.5,462.5C 219.874,464.577 221.54,466.411 223.5,468C 222.924,469.714 221.757,470.881 220,471.5C 219.578,473.355 219.078,475.189 218.5,477C 221.344,479.181 224.178,481.347 227,483.5C 227.667,485.5 227.667,487.5 227,489.5C 225.391,490.147 223.891,490.98 222.5,492C 226.266,490.745 228.099,492.245 228,496.5C 229.147,495.542 230.147,495.875 231,497.5C 233.701,505.353 231.867,511.853 225.5,517C 223.404,518.766 221.071,520.099 218.5,521C 219.999,524.43 222.666,526.43 226.5,527C 227.833,529 227.833,531 226.5,533C 224.925,532.621 223.425,532.788 222,533.5C 221.722,537.194 221.722,540.861 222,544.5C 220.104,545.68 218.604,547.18 217.5,549C 217.645,549.772 217.978,550.439 218.5,551C 221.171,552.544 224.004,553.71 227,554.5C 227.667,558.167 227.667,561.833 227,565.5C 225.833,566.667 224.667,567.833 223.5,569C 224.743,570.154 225.743,571.488 226.5,573C 230.841,573.471 233.007,575.971 233,580.5C 234.17,577.33 236.003,576.83 238.5,579C 237.13,580.441 236.13,582.108 235.5,584C 234.551,584.617 233.718,584.451 233,583.5C 232.161,586.14 232.661,588.473 234.5,590.5C 226.953,597.57 228.287,600.736 238.5,600C 240.819,604.523 239.652,608.356 235,611.5C 234.333,610.833 233.667,610.167 233,609.5C 232.289,611.367 232.789,612.867 234.5,614C 232.312,616.602 230.479,619.435 229,622.5C 228.666,624.847 228.833,627.181 229.5,629.5C 152.833,629.5 76.1667,629.5 -0.5,629.5C -0.5,419.5 -0.5,209.5 -0.5,-0.5 Z"/></g>
<g><path style="opacity:1" fill="#554d46" d="M 637.5,25.5 C 640.59,31.7795 642.09,38.4461 642,45.5C 634.312,34.9558 625.645,33.9558 616,42.5C 610.834,49.4948 606.167,56.8282 602,64.5C 596.345,78.9698 590.845,93.4698 585.5,108C 585.458,112.299 585.625,116.799 586,121.5C 588.503,125.17 590.337,129.17 591.5,133.5C 592.438,134.553 593.605,135.22 595,135.5C 597.521,134.327 600.021,134.327 602.5,135.5C 603.853,136.524 604.52,137.857 604.5,139.5C 605.5,139.5 606.5,139.5 607.5,139.5C 607.97,134.982 609.137,130.649 611,126.5C 612.197,120.871 612.53,115.204 612,109.5C 609.718,106.432 606.884,103.932 603.5,102C 606.316,95.8614 610.482,91.0281 616,87.5C 616.772,83.1656 619.272,80.1656 623.5,78.5C 624.478,78.9767 625.311,79.6433 626,80.5C 628.158,79.1741 629.992,77.5075 631.5,75.5C 629.5,74.8333 627.5,74.1667 625.5,73.5C 626.919,71.6641 628.086,69.6641 629,67.5C 637.578,62.949 642.745,65.449 644.5,75C 643.264,83.6423 642.264,92.3089 641.5,101C 642.317,102.49 643.15,103.99 644,105.5C 645.741,117.424 644.908,129.424 641.5,141.5C 642.098,142.795 642.598,144.128 643,145.5C 645.444,147.754 647.611,150.087 649.5,152.5C 648.272,155.238 646.438,157.571 644,159.5C 644.354,169.72 648.854,177.72 657.5,183.5C 659.038,185.243 660.038,187.243 660.5,189.5C 659.425,195.386 657.758,201.053 655.5,206.5C 656.433,210.297 657.766,213.964 659.5,217.5C 656.208,226.741 656.875,235.574 661.5,244C 661.031,246.196 660.031,248.029 658.5,249.5C 656.571,249.769 654.905,249.269 653.5,248C 654.527,244.736 653.694,241.903 651,239.5C 646.798,241.651 646.464,244.317 650,247.5C 652.002,253.495 650.169,256.495 644.5,256.5C 643.811,258.444 643.311,260.444 643,262.5C 641.274,263.576 639.441,263.743 637.5,263C 634.155,259.132 630.488,255.966 626.5,253.5C 626.671,251.007 625.671,249.174 623.5,248C 620.007,246.996 616.841,247.496 614,249.5C 612.915,248.707 611.748,248.04 610.5,247.5C 606.825,247.997 603.325,248.997 600,250.5C 592.785,244.851 585.118,244.184 577,248.5C 573.279,247.057 569.779,245.223 566.5,243C 564.5,242.333 562.5,242.333 560.5,243C 559.017,246.923 557.684,250.923 556.5,255C 554.612,256.394 553.279,258.227 552.5,260.5C 541.826,265.334 530.826,269.334 519.5,272.5C 517.971,272.471 516.804,271.804 516,270.5C 514.798,262.686 514.798,255.02 516,247.5C 516.487,244.202 517.653,241.202 519.5,238.5C 523.274,236.229 526.607,233.396 529.5,230C 526.978,229.043 524.811,227.543 523,225.5C 520.682,222.214 518.349,218.88 516,215.5C 515.439,216.022 514.772,216.355 514,216.5C 510.766,213.469 508.266,213.969 506.5,218C 502.964,219.023 499.464,220.857 496,223.5C 495.439,222.978 494.772,222.645 494,222.5C 490.778,224.705 487.278,225.539 483.5,225C 479.59,218.548 473.923,216.215 466.5,218C 458.41,224.815 449.243,226.981 439,224.5C 431.709,225.129 427.209,228.962 425.5,236C 428.269,239.372 430.102,243.205 431,247.5C 438.364,246.779 444.031,249.779 448,256.5C 448.999,263.833 449.832,271.166 450.5,278.5C 450.167,279.167 449.833,279.833 449.5,280.5C 450.908,281.243 452.241,282.077 453.5,283C 453.167,283.333 452.833,283.667 452.5,284C 453.692,285.912 454.692,287.912 455.5,290C 457.807,290.309 459.974,291.142 462,292.5C 464.804,296.443 466.804,300.777 468,305.5C 469.513,308.524 471.513,311.191 474,313.5C 482.283,313.124 490.117,310.624 497.5,306C 500.212,302.722 501.879,298.889 502.5,294.5C 508.136,291.612 511.636,286.945 513,280.5C 514.441,279.74 515.941,279.074 517.5,278.5C 523.607,282.702 527.773,288.369 530,295.5C 532.615,299.783 535.615,303.783 539,307.5C 539.559,313.738 541.059,319.738 543.5,325.5C 541.489,334.306 544.823,340.139 553.5,343C 554.252,343.671 554.586,344.504 554.5,345.5C 550.818,345.335 547.152,345.501 543.5,346C 542.869,348.312 542.869,350.812 543.5,353.5C 543.144,356.115 541.811,357.948 539.5,359C 540.5,359.833 541.5,360.667 542.5,361.5C 539.713,368.56 537.38,375.727 535.5,383C 536.116,386.863 536.95,390.696 538,394.5C 541.14,398.061 544.473,401.395 548,404.5C 548.837,407.85 549.337,411.016 549.5,414C 547.888,415.482 546.888,417.315 546.5,419.5C 542.768,418.59 539.101,418.423 535.5,419C 534.313,417.981 533.313,416.814 532.5,415.5C 532.417,413.264 532.75,410.93 533.5,408.5C 525.783,406.358 520.45,409.025 517.5,416.5C 517.167,416.5 516.833,416.5 516.5,416.5C 508.866,412.171 505.033,405.505 505,396.5C 502.546,391.674 498.712,388.34 493.5,386.5C 489.833,388.667 486.167,390.833 482.5,393C 476.945,392.987 471.612,393.987 466.5,396C 462.054,400.446 457.554,404.946 453,409.5C 451.906,411.078 451.072,412.745 450.5,414.5C 448.5,415.5 446.5,416.5 444.5,417.5C 443.71,416.206 442.71,415.039 441.5,414C 439,413.625 436.667,412.792 434.5,411.5C 433.026,412.436 432.026,413.77 431.5,415.5C 430.311,416.429 428.978,416.762 427.5,416.5C 427.623,411.67 429.123,407.337 432,403.5C 434.208,394.753 436.041,385.92 437.5,377C 436.397,368.628 435.397,360.294 434.5,352C 434.957,351.586 435.291,351.086 435.5,350.5C 434.846,348.885 434.346,347.218 434,345.5C 433.107,344.919 432.107,344.585 431,344.5C 426.44,345.946 422.106,347.946 418,350.5C 416.541,350.192 415.374,349.525 414.5,348.5C 414.5,348.167 414.5,347.833 414.5,347.5C 421.43,344.39 428.264,341.057 435,337.5C 435.862,335.913 436.529,334.246 437,332.5C 437.812,325.253 437.646,318.086 436.5,311C 439.527,303.781 443.694,297.281 449,291.5C 450.128,289.655 450.628,287.655 450.5,285.5C 440.086,281.693 433.586,274.359 431,263.5C 428.713,260.688 425.879,258.688 422.5,257.5C 421.258,255.267 419.924,253.101 418.5,251C 409.124,250.816 399.791,250.15 390.5,249C 383.041,243.005 376.374,244.005 370.5,252C 367.036,253.242 363.536,254.409 360,255.5C 358.739,255.241 357.739,254.574 357,253.5C 356.103,249.438 354.103,246.105 351,243.5C 346.436,243.397 343.602,245.564 342.5,250C 345.235,253.139 346.901,256.806 347.5,261C 343.542,265.08 342.042,269.913 343,275.5C 346.707,281.454 351.207,286.62 356.5,291C 359.207,291.395 361.873,291.895 364.5,292.5C 365.791,292.263 366.791,292.596 367.5,293.5C 365.347,295.07 363.181,296.737 361,298.5C 360.833,299.333 360.667,300.167 360.5,301C 361.188,305.817 362.188,310.484 363.5,315C 363.658,319.599 362.325,323.599 359.5,327C 359.959,330.342 360.292,333.675 360.5,337C 358.984,338.897 358.317,341.064 358.5,343.5C 356.08,343.292 353.747,343.626 351.5,344.5C 349.15,343.139 346.816,341.806 344.5,340.5C 341.033,337.077 338.7,332.91 337.5,328C 338.395,323.458 338.395,318.792 337.5,314C 338.641,311.551 339.641,309.051 340.5,306.5C 338.013,302.848 335.346,299.348 332.5,296C 334.442,292.915 336.108,289.748 337.5,286.5C 337.305,283.11 335.805,280.443 333,278.5C 332.421,276.351 331.921,274.185 331.5,272C 333.039,264.871 334.539,257.704 336,250.5C 336.609,246.476 336.442,242.476 335.5,238.5C 334.856,232.436 337.356,228.436 343,226.5C 346.011,222.858 346.844,218.858 345.5,214.5C 347.948,211.674 349.615,208.34 350.5,204.5C 349.532,200.587 348.199,196.92 346.5,193.5C 346.5,191.833 346.5,190.167 346.5,188.5C 347.496,188.586 348.329,188.252 349,187.5C 352.184,182.47 355.851,177.804 360,173.5C 363.531,168.455 364.364,162.955 362.5,157C 362.796,153.613 363.796,150.446 365.5,147.5C 362.294,135.026 360.294,122.359 359.5,109.5C 362.31,102.723 362.476,96.0565 360,89.5C 356.754,79.432 359.921,76.2654 369.5,80C 373.167,84.3333 376.833,88.6667 380.5,93C 381.872,93.4017 383.205,93.9017 384.5,94.5C 385.274,98.714 387.107,102.381 390,105.5C 390.667,107.5 390.667,109.5 390,111.5C 386.147,112.958 382.147,113.958 378,114.5C 376.699,115.098 375.865,116.098 375.5,117.5C 379.711,128.926 384.211,140.259 389,151.5C 390.617,152.851 391.784,154.518 392.5,156.5C 397.226,159.634 399.56,158.301 399.5,152.5C 403.879,151.183 404.545,148.683 401.5,145C 403.338,137.742 408.005,133.742 415.5,133C 420.141,127.731 419.308,123.564 413,120.5C 407.464,108.087 402.464,95.4208 398,82.5C 391.083,67.1602 381.583,53.6602 369.5,42C 364.906,40.3728 360.239,40.2061 355.5,41.5C 355.508,38.4552 355.841,35.4552 356.5,32.5C 359.746,29.4232 362.413,25.9232 364.5,22C 366.833,21.3333 369.167,21.3333 371.5,22C 376.462,25.7515 380.629,30.2515 384,35.5C 393.584,50.3321 402.917,65.3321 412,80.5C 419.493,89.5428 427.659,98.0428 436.5,106C 438.078,107.094 439.745,107.928 441.5,108.5C 447.401,113.768 454.401,115.935 462.5,115C 471.108,118.296 479.942,120.796 489,122.5C 494.027,121.868 498.86,120.535 503.5,118.5C 532.299,127.624 556.132,120.291 575,96.5C 580.341,84.4656 585.675,72.4656 591,60.5C 598.132,49.0506 604.798,37.384 611,25.5C 613.729,22.6007 616.562,19.934 619.5,17.5C 621.792,17.7564 623.959,17.4231 626,16.5C 629.812,19.6404 633.645,22.6404 637.5,25.5 Z"/></g>
<g><path style="opacity:1" fill="#868d9a" d="M 619.5,17.5 C 616.562,19.934 613.729,22.6007 611,25.5C 604.798,37.384 598.132,49.0506 591,60.5C 585.675,72.4656 580.341,84.4656 575,96.5C 556.132,120.291 532.299,127.624 503.5,118.5C 498.86,120.535 494.027,121.868 489,122.5C 479.942,120.796 471.108,118.296 462.5,115C 454.401,115.935 447.401,113.768 441.5,108.5C 446.068,106.32 450.902,104.987 456,104.5C 459.609,107.515 463.442,108.015 467.5,106C 466.832,101.67 466.832,97.1695 467.5,92.5C 467.61,90.626 466.944,89.126 465.5,88C 466.167,87.8333 466.833,87.6667 467.5,87.5C 471.641,90.4142 475.641,93.5809 479.5,97C 481.952,97.2895 484.285,97.9562 486.5,99C 493.738,98.5752 500.738,99.7418 507.5,102.5C 513.385,100.26 519.385,100.093 525.5,102C 527.327,102.899 528.66,104.233 529.5,106C 527.093,108.092 527.093,110.092 529.5,112C 526.921,113.612 526.921,115.112 529.5,116.5C 530.548,115.617 531.715,114.95 533,114.5C 534.789,115.409 536.623,115.576 538.5,115C 542.299,111.584 546.632,110.25 551.5,111C 552.805,108.852 554.638,107.352 557,106.5C 557.92,103.899 558.587,101.232 559,98.5C 559.615,100.116 560.615,101.449 562,102.5C 563.572,99.8101 565.572,97.4767 568,95.5C 570.742,88.9495 574.409,82.9495 579,77.5C 580.258,73.2708 581.925,69.2708 584,65.5C 585,64.5 586,63.5 587,62.5C 589.683,56.8101 592.516,51.1435 595.5,45.5C 595.291,44.914 594.957,44.414 594.5,44C 597.642,42.5496 599.308,40.0496 599.5,36.5C 601.474,34.2923 603.307,31.959 605,29.5C 605.49,28.2068 605.657,26.8734 605.5,25.5C 608.694,25.8244 609.694,24.6578 608.5,22C 612.067,20.2687 615.734,18.7687 619.5,17.5 Z"/></g>
<g><path style="opacity:1" fill="#a8a197" d="M 637.5,25.5 C 639.463,26.9599 641.296,28.6266 643,30.5C 647.632,39.7551 652.632,48.7551 658,57.5C 659.469,60.7621 660.636,64.0954 661.5,67.5C 661.062,67.4346 660.728,67.6012 660.5,68C 662.136,73.1804 663.136,78.5137 663.5,84C 662.803,94.8225 662.303,105.656 662,116.5C 659.884,121.631 658.717,126.965 658.5,132.5C 659.918,146.088 661.918,159.588 664.5,173C 664.102,178.849 662.768,184.349 660.5,189.5C 660.038,187.243 659.038,185.243 657.5,183.5C 648.854,177.72 644.354,169.72 644,159.5C 646.438,157.571 648.272,155.238 649.5,152.5C 647.611,150.087 645.444,147.754 643,145.5C 642.598,144.128 642.098,142.795 641.5,141.5C 644.908,129.424 645.741,117.424 644,105.5C 643.15,103.99 642.317,102.49 641.5,101C 642.264,92.3089 643.264,83.6423 644.5,75C 642.745,65.449 637.578,62.949 629,67.5C 628.086,69.6641 626.919,71.6641 625.5,73.5C 627.5,74.1667 629.5,74.8333 631.5,75.5C 629.992,77.5075 628.158,79.1741 626,80.5C 625.311,79.6433 624.478,78.9767 623.5,78.5C 619.272,80.1656 616.772,83.1656 616,87.5C 610.482,91.0281 606.316,95.8614 603.5,102C 606.884,103.932 609.718,106.432 612,109.5C 612.53,115.204 612.197,120.871 611,126.5C 609.137,130.649 607.97,134.982 607.5,139.5C 606.5,139.5 605.5,139.5 604.5,139.5C 604.52,137.857 603.853,136.524 602.5,135.5C 600.021,134.327 597.521,134.327 595,135.5C 593.605,135.22 592.438,134.553 591.5,133.5C 590.337,129.17 588.503,125.17 586,121.5C 585.625,116.799 585.458,112.299 585.5,108C 590.845,93.4698 596.345,78.9698 602,64.5C 606.167,56.8282 610.834,49.4948 616,42.5C 625.645,33.9558 634.312,34.9558 642,45.5C 642.09,38.4461 640.59,31.7795 637.5,25.5 Z"/></g>
<g><path style="opacity:1" fill="#a8a197" d="M 356.5,32.5 C 355.841,35.4552 355.508,38.4552 355.5,41.5C 360.239,40.2061 364.906,40.3728 369.5,42C 381.583,53.6602 391.083,67.1602 398,82.5C 402.464,95.4208 407.464,108.087 413,120.5C 419.308,123.564 420.141,127.731 415.5,133C 408.005,133.742 403.338,137.742 401.5,145C 404.545,148.683 403.879,151.183 399.5,152.5C 399.56,158.301 397.226,159.634 392.5,156.5C 391.784,154.518 390.617,152.851 389,151.5C 384.211,140.259 379.711,128.926 375.5,117.5C 375.865,116.098 376.699,115.098 378,114.5C 382.147,113.958 386.147,112.958 390,111.5C 390.667,109.5 390.667,107.5 390,105.5C 387.107,102.381 385.274,98.714 384.5,94.5C 383.205,93.9017 381.872,93.4017 380.5,93C 376.833,88.6667 373.167,84.3333 369.5,80C 359.921,76.2654 356.754,79.432 360,89.5C 362.476,96.0565 362.31,102.723 359.5,109.5C 360.294,122.359 362.294,135.026 365.5,147.5C 363.796,150.446 362.796,153.613 362.5,157C 364.364,162.955 363.531,168.455 360,173.5C 355.851,177.804 352.184,182.47 349,187.5C 348.329,188.252 347.496,188.586 346.5,188.5C 344.618,183.495 342.951,178.328 341.5,173C 344.72,166.009 347.554,158.842 350,151.5C 350.667,145.833 350.667,140.167 350,134.5C 347.749,123.242 345.749,111.909 344,100.5C 342.572,96.693 341.072,93.0264 339.5,89.5C 339.67,81.5013 340.17,73.5013 341,65.5C 343.921,59.8186 345.921,53.8186 347,47.5C 349.24,41.7912 352.407,36.7912 356.5,32.5 Z"/></g>
<g><path style="opacity:1" fill="#868d9a" d="M 661.5,67.5 C 662.22,70.0601 663.887,71.8935 666.5,73C 664.948,80.6463 665.614,88.1463 668.5,95.5C 668.069,96.2935 667.735,97.1268 667.5,98C 668.185,100.795 668.685,103.628 669,106.5C 670,107.833 671,107.833 672,106.5C 672.699,108.074 672.365,109.407 671,110.5C 670.086,109.346 669.253,109.513 668.5,111C 669.552,112.119 670.719,112.619 672,112.5C 672.829,117.533 672.662,122.533 671.5,127.5C 670.672,123.204 670.172,118.871 670,114.5C 668.853,113.542 667.853,113.875 667,115.5C 666.045,120.889 666.545,126.056 668.5,131C 667.241,133.527 666.241,136.194 665.5,139C 666.881,142.063 668.714,144.896 671,147.5C 671.248,151.61 671.415,155.61 671.5,159.5C 669.453,164.245 668.953,169.245 670,174.5C 673.907,178.616 674.574,183.283 672,188.5C 669.143,190.905 667.976,193.738 668.5,197C 671.63,200.754 674.13,204.921 676,209.5C 677,210.833 678,210.833 679,209.5C 679.333,211.167 679.667,212.833 680,214.5C 681,215.833 682,215.833 683,214.5C 683.99,218.444 683.49,222.111 681.5,225.5C 683.251,230.083 686.251,233.583 690.5,236C 687.659,239.159 688.326,241.492 692.5,243C 692.167,243.333 691.833,243.667 691.5,244C 694.044,247.46 696.378,250.96 698.5,254.5C 697.145,255.675 697.312,256.675 699,257.5C 700.246,256.228 701.413,255.895 702.5,256.5C 700.988,257.249 699.988,258.416 699.5,260C 703.884,264.099 707.55,268.766 710.5,274C 711.127,277.099 711.127,280.266 710.5,283.5C 711.5,283.5 712.5,283.5 713.5,283.5C 713.335,286.518 713.502,289.518 714,292.5C 715.517,296.156 717.35,299.99 719.5,304C 718.192,304.824 716.692,305.324 715,305.5C 713.132,310.264 713.632,314.764 716.5,319C 713.491,318.84 711.325,320.007 710,322.5C 708.636,321.742 707.469,322.242 706.5,324C 707.178,331.683 707.178,339.517 706.5,347.5C 705.448,347.351 704.448,347.517 703.5,348C 698.878,351.683 698.378,355.85 702,360.5C 702.435,365.184 702.935,369.851 703.5,374.5C 700.09,374.384 698.756,376.05 699.5,379.5C 695.527,380.075 694.527,382.242 696.5,386C 699.536,385.143 700.202,386.31 698.5,389.5C 699.09,390.799 700.09,391.632 701.5,392C 698.085,393.143 697.751,394.81 700.5,397C 697.833,398.667 697.833,400.333 700.5,402C 702.876,401.577 705.043,402.411 707,404.5C 707.373,406.698 707.873,408.865 708.5,411C 707.65,412.286 706.483,412.119 705,410.5C 701.513,414.225 701.68,417.725 705.5,421C 704.91,422.509 704.244,424.009 703.5,425.5C 702.522,425.023 701.689,424.357 701,423.5C 699.054,424.994 698.221,426.994 698.5,429.5C 698.082,432.271 699.082,434.271 701.5,435.5C 702.329,440.802 702.829,446.136 703,451.5C 703.667,452.833 704.333,452.833 705,451.5C 705.667,455.167 705.667,458.833 705,462.5C 703.844,461.007 703.01,461.174 702.5,463C 707.144,469.447 706.144,474.78 699.5,479C 702.286,481.34 703.953,484.34 704.5,488C 701.866,490.915 701.866,493.748 704.5,496.5C 705.492,500.783 705.826,505.116 705.5,509.5C 704.5,509.5 703.5,509.5 702.5,509.5C 702.5,511.167 702.5,512.833 702.5,514.5C 706.135,514.656 706.468,515.822 703.5,518C 707.284,521.914 707.284,525.748 703.5,529.5C 704.579,531.543 706.246,532.876 708.5,533.5C 710.024,537.27 709.691,540.77 707.5,544C 709.167,545.167 710.833,546.333 712.5,547.5C 715.397,551.364 714.897,554.697 711,557.5C 711.032,564.066 712.866,564.733 716.5,559.5C 716.833,560.333 717.167,561.167 717.5,562C 717.502,565.733 717.169,569.567 716.5,573.5C 714.821,574.782 712.987,575.782 711,576.5C 710.517,577.448 710.351,578.448 710.5,579.5C 713.793,581.096 717.126,582.762 720.5,584.5C 718.495,585.337 717.495,586.837 717.5,589C 718.164,591.166 719.164,593.166 720.5,595C 720.294,596.865 719.628,598.532 718.5,600C 720.898,604.557 721.732,609.391 721,614.5C 717.595,615.468 717.095,616.968 719.5,619C 716.833,620.333 716.833,621.667 719.5,623C 723.325,623.706 726.992,624.872 730.5,626.5C 731.386,627.325 731.719,628.325 731.5,629.5C 703.5,629.5 675.5,629.5 647.5,629.5C 647.259,625.197 646.092,621.197 644,617.5C 642.509,615.996 640.676,615.163 638.5,615C 634.94,610.964 634.607,606.631 637.5,602C 636.699,597.477 636.365,592.811 636.5,588C 637.539,579.521 638.372,571.021 639,562.5C 641.715,558.404 643.881,554.071 645.5,549.5C 644.067,545.442 642.734,541.276 641.5,537C 642.348,534.23 642.681,531.397 642.5,528.5C 643.222,528.918 643.722,529.584 644,530.5C 644.333,533.833 644.667,537.167 645,540.5C 645.869,543.394 647.702,544.561 650.5,544C 650.167,543.667 649.833,543.333 649.5,543C 651.5,542.333 652.833,541 653.5,539C 654.793,538.51 656.127,538.343 657.5,538.5C 657.579,537.07 657.246,535.736 656.5,534.5C 658.5,533.833 660.5,533.167 662.5,532.5C 659.972,531.483 659.972,530.316 662.5,529C 660.445,528.313 658.779,527.146 657.5,525.5C 657.977,524.522 658.643,523.689 659.5,523C 656.833,522 656.833,521 659.5,520C 656.937,519.237 656.937,518.737 659.5,518.5C 661.583,519.959 663.75,521.292 666,522.5C 667.398,521.949 668.732,521.616 670,521.5C 671.951,523.137 671.784,524.637 669.5,526C 674.452,528.63 678.785,531.963 682.5,536C 681.359,536.741 681.359,537.575 682.5,538.5C 680.257,539.474 677.924,539.808 675.5,539.5C 675.946,546.266 679.613,550.266 686.5,551.5C 686.977,552.478 687.643,553.311 688.5,554C 687.167,555 687.167,556 688.5,557C 695.946,561.775 699.113,559.942 698,551.5C 696.649,549.981 695.149,548.648 693.5,547.5C 695.439,545.878 695.772,544.044 694.5,542C 695.13,540.108 696.13,538.441 697.5,537C 697.043,536.586 696.709,536.086 696.5,535.5C 698.633,532.852 699.966,530.185 700.5,527.5C 699.088,526.194 697.421,525.36 695.5,525C 691.313,524.929 687.313,524.262 683.5,523C 688.548,522.522 692.881,520.522 696.5,517C 695.303,512.78 693.636,508.446 691.5,504C 693.324,501.133 695.49,498.633 698,496.5C 699.411,494.35 700.245,492.016 700.5,489.5C 698.833,489.5 697.167,489.5 695.5,489.5C 695.318,487.325 694.651,485.325 693.5,483.5C 693.795,480.568 695.295,478.568 698,477.5C 698.167,476.5 698.333,475.5 698.5,474.5C 697.221,471.53 695.888,468.53 694.5,465.5C 695.689,462.957 697.022,460.457 698.5,458C 697.671,456.184 696.837,454.351 696,452.5C 695.977,446.818 695.144,441.318 693.5,436C 694.687,434.981 695.687,433.814 696.5,432.5C 695.167,430.833 695.167,429.167 696.5,427.5C 695.833,426.167 695.167,424.833 694.5,423.5C 697.08,421.287 697.08,419.12 694.5,417C 694.833,416.667 695.167,416.333 695.5,416C 692.129,415.826 691.129,414.326 692.5,411.5C 690.169,408.058 688.836,404.224 688.5,400C 688.95,398.715 689.617,397.548 690.5,396.5C 688.35,394.078 688.017,391.411 689.5,388.5C 688.855,387.354 688.022,386.354 687,385.5C 686.398,381.117 685.565,376.784 684.5,372.5C 680.648,366.396 674.981,363.063 667.5,362.5C 665.432,362.967 663.432,363.634 661.5,364.5C 660.717,367.548 660.717,370.381 661.5,373C 659.875,373.853 659.542,374.853 660.5,376C 657.888,376.639 655.554,377.806 653.5,379.5C 654.313,380.814 655.313,381.981 656.5,383C 654.78,386.086 655.447,388.419 658.5,390C 655.067,392.113 651.401,393.78 647.5,395C 646.107,396.171 645.273,397.671 645,399.5C 643.229,400.304 641.729,401.471 640.5,403C 644.643,411.59 641.976,415.923 632.5,416C 623.666,420.876 623.166,426.71 631,433.5C 631.483,434.448 631.649,435.448 631.5,436.5C 629.396,436.201 627.396,436.534 625.5,437.5C 623.103,439.53 620.437,441.197 617.5,442.5C 614.783,446.1 612.45,449.933 610.5,454C 610.903,456.641 611.903,458.974 613.5,461C 609.78,462.227 606.78,464.393 604.5,467.5C 602.337,468.281 602.004,467.447 603.5,465C 601.913,464.138 600.246,463.471 598.5,463C 603.633,462.956 605.299,460.622 603.5,456C 604.667,454.833 605.833,453.667 607,452.5C 608.962,445.98 610.296,439.313 611,432.5C 611.707,430.919 612.54,429.419 613.5,428C 616.249,426.877 618.749,425.377 621,423.5C 622.931,416.57 627.265,411.903 634,409.5C 635.105,405.877 636.105,402.21 637,398.5C 640.247,394.341 643.247,390.008 646,385.5C 648.213,373.193 652.213,361.526 658,350.5C 656.043,341.399 655.043,332.065 655,322.5C 652.358,317.303 653.025,312.303 657,307.5C 657.494,305.866 657.66,304.199 657.5,302.5C 658.058,300.407 659.391,298.907 661.5,298C 661.06,295.838 660.727,293.671 660.5,291.5C 664.526,289.316 664.193,287.816 659.5,287C 660.766,286.691 661.933,286.191 663,285.5C 665.762,282.285 667.595,278.951 668.5,275.5C 666.768,273.201 665.434,270.701 664.5,268C 665.91,267.632 666.91,266.799 667.5,265.5C 666.147,264.476 665.48,263.143 665.5,261.5C 667.564,261.313 669.564,260.813 671.5,260C 672.517,258.951 672.684,257.784 672,256.5C 670.341,255.183 669.174,253.517 668.5,251.5C 665.023,250.833 661.689,250.166 658.5,249.5C 660.031,248.029 661.031,246.196 661.5,244C 656.875,235.574 656.208,226.741 659.5,217.5C 657.766,213.964 656.433,210.297 655.5,206.5C 657.758,201.053 659.425,195.386 660.5,189.5C 662.768,184.349 664.102,178.849 664.5,173C 661.918,159.588 659.918,146.088 658.5,132.5C 658.717,126.965 659.884,121.631 662,116.5C 662.303,105.656 662.803,94.8225 663.5,84C 663.136,78.5137 662.136,73.1804 660.5,68C 660.728,67.6012 661.062,67.4346 661.5,67.5 Z"/></g>
<g><path style="opacity:1" fill="#868d9a" d="M 339.5,89.5 C 341.072,93.0264 342.572,96.693 344,100.5C 345.749,111.909 347.749,123.242 350,134.5C 350.667,140.167 350.667,145.833 350,151.5C 347.554,158.842 344.72,166.009 341.5,173C 342.951,178.328 344.618,183.495 346.5,188.5C 346.5,190.167 346.5,191.833 346.5,193.5C 335.461,201.451 324.628,209.784 314,218.5C 314.227,220.688 313.894,223.021 313,225.5C 303.65,232.518 295.317,240.518 288,249.5C 285.58,256.016 281.913,261.683 277,266.5C 277.148,267.825 276.982,268.992 276.5,270C 278.521,272.974 278.521,276.14 276.5,279.5C 276.709,280.086 277.043,280.586 277.5,281C 270.141,284.028 266.308,289.528 266,297.5C 264.59,298.787 263.09,299.954 261.5,301C 261.833,301.333 262.167,301.667 262.5,302C 261.266,304.924 259.599,307.591 257.5,310C 258.576,311.726 258.743,313.559 258,315.5C 253.112,320.28 250.112,325.946 249,332.5C 247.926,333.618 246.76,334.618 245.5,335.5C 245.833,336.167 246.167,336.833 246.5,337.5C 242.577,343.445 239.244,349.278 236.5,355C 236.988,356.584 237.988,357.751 239.5,358.5C 238.674,359.451 238.508,360.451 239,361.5C 240.419,362.46 241.919,363.293 243.5,364C 242.191,365.751 242.525,367.251 244.5,368.5C 242.548,370.741 240.382,372.741 238,374.5C 238.063,378.442 236.397,381.442 233,383.5C 232.152,386.698 230.652,389.531 228.5,392C 229.833,393 231.167,394 232.5,395C 230.755,398.566 229.589,402.399 229,406.5C 225.189,412.29 222.355,418.456 220.5,425C 221.833,425.333 223.167,425.667 224.5,426C 225.738,426.69 225.738,427.19 224.5,427.5C 220.313,426.74 216.646,424.906 213.5,422C 214.249,418.925 215.249,415.925 216.5,413C 214.485,411.445 214.152,409.611 215.5,407.5C 216.451,408.326 217.451,408.492 218.5,408C 219.667,406.167 221.167,404.667 223,403.5C 223.667,402.5 223.667,401.5 223,400.5C 220.667,399.167 218.333,399.167 216,400.5C 214.581,399.54 213.081,398.707 211.5,398C 212.833,397 212.833,396 211.5,395C 215.756,393.581 219.589,391.415 223,388.5C 223.448,386.591 222.615,385.424 220.5,385C 225.102,383.462 225.435,381.462 221.5,379C 223.184,377.26 225.018,376.094 227,375.5C 227.684,374.216 227.517,373.049 226.5,372C 228.01,369.991 229.677,368.158 231.5,366.5C 228.516,364.016 225.682,361.35 223,358.5C 223.019,356.893 223.185,355.226 223.5,353.5C 227.176,353.466 228.343,351.799 227,348.5C 230.093,346.375 232.593,343.709 234.5,340.5C 234.167,339.5 233.5,338.833 232.5,338.5C 231.38,339.833 230.047,340.333 228.5,340C 229.747,338.542 229.747,337.042 228.5,335.5C 230.858,333.976 232.691,331.976 234,329.5C 235,330.833 236,332.167 237,333.5C 237.944,332.737 238.444,331.737 238.5,330.5C 237.57,328.895 237.57,327.395 238.5,326C 238,325.5 237.5,325 237,324.5C 235.796,325.471 235.296,326.471 235.5,327.5C 233.954,326.316 232.287,325.316 230.5,324.5C 231.246,323.264 231.579,321.93 231.5,320.5C 234.614,319.909 237.114,318.242 239,315.5C 240,316.833 241,316.833 242,315.5C 243.008,311.229 242.508,307.229 240.5,303.5C 242.149,302.352 243.649,301.019 245,299.5C 247.875,294.303 246.375,291.636 240.5,291.5C 240.215,289.712 240.548,288.045 241.5,286.5C 243.23,285.974 244.564,284.974 245.5,283.5C 245.277,282.033 244.944,280.533 244.5,279C 246.82,276.352 249.486,274.019 252.5,272C 255.639,271.246 258.639,270.246 261.5,269C 261.32,265.42 259.32,262.753 255.5,261C 258.736,258.132 262.236,255.632 266,253.5C 266.273,251.899 266.773,250.399 267.5,249C 271.325,246.616 275.325,244.616 279.5,243C 280.337,241.989 280.67,240.822 280.5,239.5C 281.822,239.67 282.989,239.337 284,238.5C 284.14,235.957 284.806,233.623 286,231.5C 287.75,234.994 289.584,235.161 291.5,232C 289.411,228.877 290.078,228.71 293.5,231.5C 296.028,230.483 296.028,229.316 293.5,228C 296.044,226.225 296.044,224.392 293.5,222.5C 293.881,220.259 294.048,217.926 294,215.5C 298.581,214.252 300.914,211.252 301,206.5C 302.049,207.517 303.216,207.684 304.5,207C 305.167,205.667 305.833,204.333 306.5,203C 312.52,201.115 314.187,197.282 311.5,191.5C 314.804,190.672 317.804,189.172 320.5,187C 319.313,185.981 318.313,184.814 317.5,183.5C 319.647,180.925 322.314,179.092 325.5,178C 324.789,175.204 324.122,172.37 323.5,169.5C 324.655,168.05 326.155,167.05 328,166.5C 328.559,170.186 329.226,173.853 330,177.5C 330.667,178.833 331.333,178.833 332,177.5C 332.273,175.899 332.773,174.399 333.5,173C 332.935,167.488 332.935,161.655 333.5,155.5C 334.5,155.5 335.5,155.5 336.5,155.5C 336.824,152.306 335.658,151.306 333,152.5C 332.691,151.234 332.191,150.067 331.5,149C 333.075,149.379 334.575,149.212 336,148.5C 336.999,141.867 337.832,135.2 338.5,128.5C 341.151,126.585 340.817,125.085 337.5,124C 339.18,123.653 340.18,122.653 340.5,121C 340.244,117.924 340.077,114.758 340,111.5C 338.092,110.182 337.258,108.348 337.5,106C 339.235,100.717 339.902,95.2173 339.5,89.5 Z"/></g>
<g><path style="opacity:1" fill="#3b3e49" d="M 346.5,193.5 C 348.199,196.92 349.532,200.587 350.5,204.5C 349.615,208.34 347.948,211.674 345.5,214.5C 344.372,219.173 341.705,223.006 337.5,226C 337.833,226.333 338.167,226.667 338.5,227C 333.021,229.099 330.021,232.766 329.5,238C 327.56,241.412 326.227,245.079 325.5,249C 326.022,249.561 326.355,250.228 326.5,251C 325.022,254.439 323.355,257.772 321.5,261C 322.227,263.124 322.894,265.291 323.5,267.5C 323.393,270.06 323.393,272.56 323.5,275C 321.729,278.647 320.562,282.48 320,286.5C 315.597,289.734 312.097,293.734 309.5,298.5C 304.664,299.284 300.33,301.117 296.5,304C 296.833,304.333 297.167,304.667 297.5,305C 295.106,306.952 293.606,309.452 293,312.5C 290.184,316.717 286.184,318.717 281,318.5C 276.93,318.529 272.764,318.362 268.5,318C 268.167,318.333 267.833,318.667 267.5,319C 268.5,319.333 269.5,319.667 270.5,320C 269.549,320.718 269.383,321.551 270,322.5C 271.816,323.329 273.649,324.163 275.5,325C 274.443,327.339 273.11,329.505 271.5,331.5C 271.833,332.167 272.167,332.833 272.5,333.5C 269.553,334.321 266.553,334.821 263.5,335C 260.632,336.935 259.799,339.435 261,342.5C 259.167,343.667 257.333,344.833 255.5,346C 256.711,347.113 256.711,348.28 255.5,349.5C 253.33,351.086 250.996,352.42 248.5,353.5C 247.796,356.704 247.13,359.871 246.5,363C 248.09,364.046 249.59,365.213 251,366.5C 251.617,367.449 251.451,368.282 250.5,369C 253,369.5 255.5,370 258,370.5C 260.658,368.365 264.324,367.032 269,366.5C 271.099,367.287 273.266,367.62 275.5,367.5C 275.705,371.231 274.371,374.231 271.5,376.5C 271.709,377.086 272.043,377.586 272.5,378C 270.51,379.751 268.177,380.751 265.5,381C 265.833,381.333 266.167,381.667 266.5,382C 264.741,382.798 263.074,382.631 261.5,381.5C 265.361,380.402 265.361,379.569 261.5,379C 260.222,374.098 257.888,373.432 254.5,377C 253.207,377.49 251.873,377.657 250.5,377.5C 250.191,380.346 248.525,381.846 245.5,382C 242.281,386.589 243.115,390.089 248,392.5C 254.66,391.377 261.16,389.71 267.5,387.5C 268.5,387.833 269.5,388.167 270.5,388.5C 270.291,389.086 269.957,389.586 269.5,390C 271,391.115 272.667,391.948 274.5,392.5C 275.245,394.747 276.578,396.58 278.5,398C 277.359,398.741 277.359,399.575 278.5,400.5C 276.954,401.684 275.287,402.684 273.5,403.5C 276.961,405.744 280.628,407.577 284.5,409C 280.542,407.633 277.209,408.633 274.5,412C 275.399,413.236 276.566,414.07 278,414.5C 279.667,413.5 281.333,412.5 283,411.5C 285.434,412.322 287.934,412.656 290.5,412.5C 290.822,414.722 290.155,416.556 288.5,418C 291.818,418.879 295.152,419.713 298.5,420.5C 298.709,421.086 299.043,421.586 299.5,422C 291.701,429.586 293.368,433.919 304.5,435C 303.289,436.113 303.289,437.28 304.5,438.5C 303.289,439.874 302.289,441.374 301.5,443C 301.645,443.772 301.978,444.439 302.5,445C 297.63,447.007 298.296,448.007 304.5,448C 306.657,449.912 308.991,451.579 311.5,453C 308.904,454.797 309.237,456.131 312.5,457C 311.446,458.388 311.28,459.888 312,461.5C 314.781,462.947 317.281,464.78 319.5,467C 318.359,467.741 318.359,468.575 319.5,469.5C 318.09,471.934 316.59,474.268 315,476.5C 314.316,478.479 314.816,480.146 316.5,481.5C 316.291,482.086 315.957,482.586 315.5,483C 319.868,486.034 323.534,489.701 326.5,494C 328.066,494.3 329.399,493.8 330.5,492.5C 331.091,493.151 331.757,493.818 332.5,494.5C 330.276,500.128 332.276,502.961 338.5,503C 340.16,504.488 341.16,506.321 341.5,508.5C 343.895,516.617 346.729,524.617 350,532.5C 358.113,535.862 358.446,539.529 351,543.5C 350.667,543.167 350.333,542.833 350,542.5C 347.876,543.227 345.709,543.894 343.5,544.5C 342.201,543.91 341.368,542.91 341,541.5C 336.959,545.792 337.126,550.125 341.5,554.5C 342.706,555.88 342.373,557.047 340.5,558C 333.727,560.054 328.727,558.054 325.5,552C 322.438,551.259 319.438,551.425 316.5,552.5C 312.905,551.016 309.238,550.183 305.5,550C 300.855,554.031 298.688,559.197 299,565.5C 298.759,570.705 298.259,575.872 297.5,581C 297.946,582.726 298.779,584.226 300,585.5C 300.667,587.167 300.667,588.833 300,590.5C 297.634,593.363 294.8,595.696 291.5,597.5C 290.448,597.649 289.448,597.483 288.5,597C 286.346,594.335 284.346,591.501 282.5,588.5C 284.291,583.8 283.291,579.467 279.5,575.5C 280.011,572.157 279.511,568.824 278,565.5C 276.846,564.257 275.512,563.257 274,562.5C 273.08,558.737 271.58,555.237 269.5,552C 272.411,544.954 270.411,540.121 263.5,537.5C 262.191,531.278 262.191,525.111 263.5,519C 259.268,510.161 252.601,506.661 243.5,508.5C 239.601,507.181 238.601,504.681 240.5,501C 238.854,499.445 238.521,497.779 239.5,496C 234.372,492.908 231.372,488.408 230.5,482.5C 230.709,481.914 231.043,481.414 231.5,481C 230.152,478.99 228.818,476.99 227.5,475C 228.642,471.24 229.975,467.573 231.5,464C 226.148,456.516 225.815,448.849 230.5,441C 229.184,438.343 227.851,435.677 226.5,433C 227.992,430.636 227.326,429.136 224.5,428.5C 224.5,428.167 224.5,427.833 224.5,427.5C 225.738,427.19 225.738,426.69 224.5,426C 223.167,425.667 221.833,425.333 220.5,425C 222.355,418.456 225.189,412.29 229,406.5C 229.589,402.399 230.755,398.566 232.5,395C 231.167,394 229.833,393 228.5,392C 230.652,389.531 232.152,386.698 233,383.5C 236.397,381.442 238.063,378.442 238,374.5C 240.382,372.741 242.548,370.741 244.5,368.5C 242.525,367.251 242.191,365.751 243.5,364C 241.919,363.293 240.419,362.46 239,361.5C 238.508,360.451 238.674,359.451 239.5,358.5C 237.988,357.751 236.988,356.584 236.5,355C 239.244,349.278 242.577,343.445 246.5,337.5C 246.167,336.833 245.833,336.167 245.5,335.5C 246.76,334.618 247.926,333.618 249,332.5C 250.112,325.946 253.112,320.28 258,315.5C 258.743,313.559 258.576,311.726 257.5,310C 259.599,307.591 261.266,304.924 262.5,302C 262.167,301.667 261.833,301.333 261.5,301C 263.09,299.954 264.59,298.787 266,297.5C 266.308,289.528 270.141,284.028 277.5,281C 277.043,280.586 276.709,280.086 276.5,279.5C 278.521,276.14 278.521,272.974 276.5,270C 276.982,268.992 277.148,267.825 277,266.5C 281.913,261.683 285.58,256.016 288,249.5C 295.317,240.518 303.65,232.518 313,225.5C 313.894,223.021 314.227,220.688 314,218.5C 324.628,209.784 335.461,201.451 346.5,193.5 Z"/></g>
<g><path style="opacity:1" fill="#868d9a" d="M 345.5,214.5 C 346.844,218.858 346.011,222.858 343,226.5C 337.356,228.436 334.856,232.436 335.5,238.5C 336.442,242.476 336.609,246.476 336,250.5C 334.539,257.704 333.039,264.871 331.5,272C 331.921,274.185 332.421,276.351 333,278.5C 335.805,280.443 337.305,283.11 337.5,286.5C 336.108,289.748 334.442,292.915 332.5,296C 335.346,299.348 338.013,302.848 340.5,306.5C 339.641,309.051 338.641,311.551 337.5,314C 338.395,318.792 338.395,323.458 337.5,328C 338.7,332.91 341.033,337.077 344.5,340.5C 344.792,347.096 341.792,351.263 335.5,353C 332.034,356.575 330.7,360.908 331.5,366C 331.667,368.833 331.833,371.667 332,374.5C 335.159,381.488 338.826,388.154 343,394.5C 343.01,398.794 342.51,402.794 341.5,406.5C 340.5,407.167 339.5,407.833 338.5,408.5C 336.527,409.487 334.527,410.487 332.5,411.5C 328.331,409.512 325.831,410.846 325,415.5C 324.333,419.5 324.333,423.5 325,427.5C 326.961,430.463 329.294,433.129 332,435.5C 332,438.833 332,442.167 332,445.5C 333.667,447.833 335.333,450.167 337,452.5C 336.68,456.933 337.68,461.266 340,465.5C 340.944,471.503 341.777,477.503 342.5,483.5C 340.101,485.81 338.767,488.31 338.5,491C 336.519,492.631 334.519,492.465 332.5,490.5C 331.818,491.243 331.151,491.909 330.5,492.5C 329.399,493.8 328.066,494.3 326.5,494C 323.534,489.701 319.868,486.034 315.5,483C 315.957,482.586 316.291,482.086 316.5,481.5C 314.816,480.146 314.316,478.479 315,476.5C 316.59,474.268 318.09,471.934 319.5,469.5C 318.359,468.575 318.359,467.741 319.5,467C 317.281,464.78 314.781,462.947 312,461.5C 311.28,459.888 311.446,458.388 312.5,457C 309.237,456.131 308.904,454.797 311.5,453C 308.991,451.579 306.657,449.912 304.5,448C 298.296,448.007 297.63,447.007 302.5,445C 301.978,444.439 301.645,443.772 301.5,443C 302.289,441.374 303.289,439.874 304.5,438.5C 303.289,437.28 303.289,436.113 304.5,435C 293.368,433.919 291.701,429.586 299.5,422C 299.043,421.586 298.709,421.086 298.5,420.5C 295.152,419.713 291.818,418.879 288.5,418C 290.155,416.556 290.822,414.722 290.5,412.5C 287.934,412.656 285.434,412.322 283,411.5C 281.333,412.5 279.667,413.5 278,414.5C 276.566,414.07 275.399,413.236 274.5,412C 277.209,408.633 280.542,407.633 284.5,409C 280.628,407.577 276.961,405.744 273.5,403.5C 275.287,402.684 276.954,401.684 278.5,400.5C 277.359,399.575 277.359,398.741 278.5,398C 276.578,396.58 275.245,394.747 274.5,392.5C 272.667,391.948 271,391.115 269.5,390C 269.957,389.586 270.291,389.086 270.5,388.5C 269.5,388.167 268.5,387.833 267.5,387.5C 261.16,389.71 254.66,391.377 248,392.5C 243.115,390.089 242.281,386.589 245.5,382C 248.525,381.846 250.191,380.346 250.5,377.5C 251.873,377.657 253.207,377.49 254.5,377C 257.888,373.432 260.222,374.098 261.5,379C 265.361,379.569 265.361,380.402 261.5,381.5C 263.074,382.631 264.741,382.798 266.5,382C 266.167,381.667 265.833,381.333 265.5,381C 268.177,380.751 270.51,379.751 272.5,378C 272.043,377.586 271.709,377.086 271.5,376.5C 274.371,374.231 275.705,371.231 275.5,367.5C 273.266,367.62 271.099,367.287 269,366.5C 264.324,367.032 260.658,368.365 258,370.5C 255.5,370 253,369.5 250.5,369C 251.451,368.282 251.617,367.449 251,366.5C 249.59,365.213 248.09,364.046 246.5,363C 247.13,359.871 247.796,356.704 248.5,353.5C 250.996,352.42 253.33,351.086 255.5,349.5C 256.711,348.28 256.711,347.113 255.5,346C 257.333,344.833 259.167,343.667 261,342.5C 259.799,339.435 260.632,336.935 263.5,335C 266.553,334.821 269.553,334.321 272.5,333.5C 272.167,332.833 271.833,332.167 271.5,331.5C 273.11,329.505 274.443,327.339 275.5,325C 273.649,324.163 271.816,323.329 270,322.5C 269.383,321.551 269.549,320.718 270.5,320C 269.5,319.667 268.5,319.333 267.5,319C 267.833,318.667 268.167,318.333 268.5,318C 272.764,318.362 276.93,318.529 281,318.5C 286.184,318.717 290.184,316.717 293,312.5C 293.606,309.452 295.106,306.952 297.5,305C 297.167,304.667 296.833,304.333 296.5,304C 300.33,301.117 304.664,299.284 309.5,298.5C 312.097,293.734 315.597,289.734 320,286.5C 320.562,282.48 321.729,278.647 323.5,275C 323.393,272.56 323.393,270.06 323.5,267.5C 322.894,265.291 322.227,263.124 321.5,261C 323.355,257.772 325.022,254.439 326.5,251C 326.355,250.228 326.022,249.561 325.5,249C 326.227,245.079 327.56,241.412 329.5,238C 330.021,232.766 333.021,229.099 338.5,227C 338.167,226.667 337.833,226.333 337.5,226C 341.705,223.006 344.372,219.173 345.5,214.5 Z"/></g>
<g><path style="opacity:1" fill="#3b3e49" d="M 658.5,249.5 C 661.689,250.166 665.023,250.833 668.5,251.5C 669.174,253.517 670.341,255.183 672,256.5C 672.684,257.784 672.517,258.951 671.5,260C 669.564,260.813 667.564,261.313 665.5,261.5C 665.48,263.143 666.147,264.476 667.5,265.5C 666.91,266.799 665.91,267.632 664.5,268C 665.434,270.701 666.768,273.201 668.5,275.5C 667.595,278.951 665.762,282.285 663,285.5C 661.933,286.191 660.766,286.691 659.5,287C 664.193,287.816 664.526,289.316 660.5,291.5C 660.727,293.671 661.06,295.838 661.5,298C 659.391,298.907 658.058,300.407 657.5,302.5C 657.005,300.518 656.505,298.518 656,296.5C 654.075,295.12 652.241,293.62 650.5,292C 646.587,294.016 642.254,295.182 637.5,295.5C 634.06,289.909 629.393,288.576 623.5,291.5C 618.863,290.78 614.197,290.28 609.5,290C 606.419,288.688 604.752,286.355 604.5,283C 599.239,280.455 594.406,277.288 590,273.5C 586.804,274.512 583.637,275.678 580.5,277C 575.039,284.766 577.039,287.932 586.5,286.5C 586.063,289.807 586.73,292.807 588.5,295.5C 588.167,296.167 587.833,296.833 587.5,297.5C 589.016,299.391 590.35,301.391 591.5,303.5C 590.737,304.719 589.737,305.719 588.5,306.5C 589.5,307.167 590.5,307.833 591.5,308.5C 590.167,309.167 588.833,309.833 587.5,310.5C 588.416,312.784 587.416,313.951 584.5,314C 585.308,314.308 585.975,314.808 586.5,315.5C 585.583,316.971 584.583,318.471 583.5,320C 584.455,321.717 585.455,323.384 586.5,325C 585.707,328.411 585.207,331.911 585,335.5C 580.909,343.208 574.909,348.875 567,352.5C 565.467,352.227 563.967,351.894 562.5,351.5C 560.116,349.115 557.45,347.115 554.5,345.5C 554.586,344.504 554.252,343.671 553.5,343C 544.823,340.139 541.489,334.306 543.5,325.5C 541.059,319.738 539.559,313.738 539,307.5C 535.615,303.783 532.615,299.783 530,295.5C 527.773,288.369 523.607,282.702 517.5,278.5C 515.941,279.074 514.441,279.74 513,280.5C 511.636,286.945 508.136,291.612 502.5,294.5C 501.879,298.889 500.212,302.722 497.5,306C 490.117,310.624 482.283,313.124 474,313.5C 471.513,311.191 469.513,308.524 468,305.5C 466.804,300.777 464.804,296.443 462,292.5C 459.974,291.142 457.807,290.309 455.5,290C 454.692,287.912 453.692,285.912 452.5,284C 452.833,283.667 453.167,283.333 453.5,283C 452.241,282.077 450.908,281.243 449.5,280.5C 449.833,279.833 450.167,279.167 450.5,278.5C 449.832,271.166 448.999,263.833 448,256.5C 444.031,249.779 438.364,246.779 431,247.5C 430.102,243.205 428.269,239.372 425.5,236C 427.209,228.962 431.709,225.129 439,224.5C 449.243,226.981 458.41,224.815 466.5,218C 473.923,216.215 479.59,218.548 483.5,225C 487.278,225.539 490.778,224.705 494,222.5C 494.772,222.645 495.439,222.978 496,223.5C 499.464,220.857 502.964,219.023 506.5,218C 508.266,213.969 510.766,213.469 514,216.5C 514.772,216.355 515.439,216.022 516,215.5C 518.349,218.88 520.682,222.214 523,225.5C 524.811,227.543 526.978,229.043 529.5,230C 526.607,233.396 523.274,236.229 519.5,238.5C 517.653,241.202 516.487,244.202 516,247.5C 514.798,255.02 514.798,262.686 516,270.5C 516.804,271.804 517.971,272.471 519.5,272.5C 530.826,269.334 541.826,265.334 552.5,260.5C 553.279,258.227 554.612,256.394 556.5,255C 557.684,250.923 559.017,246.923 560.5,243C 562.5,242.333 564.5,242.333 566.5,243C 569.779,245.223 573.279,247.057 577,248.5C 585.118,244.184 592.785,244.851 600,250.5C 603.325,248.997 606.825,247.997 610.5,247.5C 611.748,248.04 612.915,248.707 614,249.5C 616.841,247.496 620.007,246.996 623.5,248C 625.671,249.174 626.671,251.007 626.5,253.5C 630.488,255.966 634.155,259.132 637.5,263C 639.441,263.743 641.274,263.576 643,262.5C 643.311,260.444 643.811,258.444 644.5,256.5C 650.169,256.495 652.002,253.495 650,247.5C 646.464,244.317 646.798,241.651 651,239.5C 653.694,241.903 654.527,244.736 653.5,248C 654.905,249.269 656.571,249.769 658.5,249.5 Z"/></g>
<g><path style="opacity:1" fill="#3b3e49" d="M 414.5,347.5 C 409.055,344.614 403.389,341.947 397.5,339.5C 392.804,333.397 393.804,331.397 400.5,333.5C 402.266,333.566 403.266,332.732 403.5,331C 402.23,326.273 400.897,321.273 399.5,316C 401.538,313.711 401.538,311.211 399.5,308.5C 401.162,306.689 401.328,305.022 400,303.5C 399.803,298.914 399.303,294.414 398.5,290C 399.025,289.308 399.692,288.808 400.5,288.5C 402.823,290.065 405.156,291.232 407.5,292C 408.167,291.333 408.833,290.667 409.5,290C 409.273,287.631 409.107,285.131 409,282.5C 406.388,279.424 403.221,278.757 399.5,280.5C 397.694,282.608 395.527,284.274 393,285.5C 392.667,286.833 392.333,288.167 392,289.5C 389.667,291.935 387.333,294.268 385,296.5C 381.092,293.794 376.925,291.46 372.5,289.5C 369.538,290.009 366.871,291.009 364.5,292.5C 361.873,291.895 359.207,291.395 356.5,291C 351.207,286.62 346.707,281.454 343,275.5C 342.042,269.913 343.542,265.08 347.5,261C 346.901,256.806 345.235,253.139 342.5,250C 343.602,245.564 346.436,243.397 351,243.5C 354.103,246.105 356.103,249.438 357,253.5C 357.739,254.574 358.739,255.241 360,255.5C 363.536,254.409 367.036,253.242 370.5,252C 376.374,244.005 383.041,243.005 390.5,249C 399.791,250.15 409.124,250.816 418.5,251C 419.924,253.101 421.258,255.267 422.5,257.5C 425.879,258.688 428.713,260.688 431,263.5C 433.586,274.359 440.086,281.693 450.5,285.5C 450.628,287.655 450.128,289.655 449,291.5C 443.694,297.281 439.527,303.781 436.5,311C 437.646,318.086 437.812,325.253 437,332.5C 436.529,334.246 435.862,335.913 435,337.5C 428.264,341.057 421.43,344.39 414.5,347.5 Z"/></g>
<g><path style="opacity:1" fill="#868d9a" d="M 637.5,295.5 C 630.292,293.591 622.959,293.091 615.5,294C 614,295.5 612.5,297 611,298.5C 610.088,310.531 608.755,322.531 607,334.5C 601.769,347.36 592.602,356.026 579.5,360.5C 575.215,357.911 570.548,356.244 565.5,355.5C 564.476,354.148 563.476,352.815 562.5,351.5C 563.967,351.894 565.467,352.227 567,352.5C 574.909,348.875 580.909,343.208 585,335.5C 585.207,331.911 585.707,328.411 586.5,325C 585.455,323.384 584.455,321.717 583.5,320C 584.583,318.471 585.583,316.971 586.5,315.5C 585.975,314.808 585.308,314.308 584.5,314C 587.416,313.951 588.416,312.784 587.5,310.5C 588.833,309.833 590.167,309.167 591.5,308.5C 590.5,307.833 589.5,307.167 588.5,306.5C 589.737,305.719 590.737,304.719 591.5,303.5C 590.35,301.391 589.016,299.391 587.5,297.5C 587.833,296.833 588.167,296.167 588.5,295.5C 586.73,292.807 586.063,289.807 586.5,286.5C 577.039,287.932 575.039,284.766 580.5,277C 583.637,275.678 586.804,274.512 590,273.5C 594.406,277.288 599.239,280.455 604.5,283C 604.752,286.355 606.419,288.688 609.5,290C 614.197,290.28 618.863,290.78 623.5,291.5C 629.393,288.576 634.06,289.909 637.5,295.5 Z"/></g>
<g><path style="opacity:1" fill="#868d9a" d="M 414.5,347.5 C 414.5,347.833 414.5,348.167 414.5,348.5C 399.925,350.444 391.092,344.11 388,329.5C 386.774,318.154 384.107,307.154 380,296.5C 376.5,292.75 372.334,291.75 367.5,293.5C 366.791,292.596 365.791,292.263 364.5,292.5C 366.871,291.009 369.538,290.009 372.5,289.5C 376.925,291.46 381.092,293.794 385,296.5C 387.333,294.268 389.667,291.935 392,289.5C 392.333,288.167 392.667,286.833 393,285.5C 395.527,284.274 397.694,282.608 399.5,280.5C 403.221,278.757 406.388,279.424 409,282.5C 409.107,285.131 409.273,287.631 409.5,290C 408.833,290.667 408.167,291.333 407.5,292C 405.156,291.232 402.823,290.065 400.5,288.5C 399.692,288.808 399.025,289.308 398.5,290C 399.303,294.414 399.803,298.914 400,303.5C 401.328,305.022 401.162,306.689 399.5,308.5C 401.538,311.211 401.538,313.711 399.5,316C 400.897,321.273 402.23,326.273 403.5,331C 403.266,332.732 402.266,333.566 400.5,333.5C 393.804,331.397 392.804,333.397 397.5,339.5C 403.389,341.947 409.055,344.614 414.5,347.5 Z"/></g>
<g><path style="opacity:1" fill="#a8a197" d="M 657.5,302.5 C 657.66,304.199 657.494,305.866 657,307.5C 653.025,312.303 652.358,317.303 655,322.5C 655.043,332.065 656.043,341.399 658,350.5C 652.213,361.526 648.213,373.193 646,385.5C 643.247,390.008 640.247,394.341 637,398.5C 636.105,402.21 635.105,405.877 634,409.5C 627.265,411.903 622.931,416.57 621,423.5C 618.749,425.377 616.249,426.877 613.5,428C 612.54,429.419 611.707,430.919 611,432.5C 610.296,439.313 608.962,445.98 607,452.5C 605.833,453.667 604.667,454.833 603.5,456C 605.299,460.622 603.633,462.956 598.5,463C 600.246,463.471 601.913,464.138 603.5,465C 602.004,467.447 602.337,468.281 604.5,467.5C 605.457,474.548 608.957,479.215 615,481.5C 615.417,487.008 615.917,492.508 616.5,498C 614.386,503.341 612.886,508.841 612,514.5C 614.213,515.802 616.546,516.802 619,517.5C 625.207,514.771 631.707,513.271 638.5,513C 639,513.5 639.5,514 640,514.5C 640.998,519.156 641.831,523.822 642.5,528.5C 642.681,531.397 642.348,534.23 641.5,537C 642.734,541.276 644.067,545.442 645.5,549.5C 643.881,554.071 641.715,558.404 639,562.5C 638.372,571.021 637.539,579.521 636.5,588C 636.365,592.811 636.699,597.477 637.5,602C 634.607,606.631 634.94,610.964 638.5,615C 640.676,615.163 642.509,615.996 644,617.5C 646.092,621.197 647.259,625.197 647.5,629.5C 526.833,629.5 406.167,629.5 285.5,629.5C 283.644,625.142 280.81,621.475 277,618.5C 275.941,615.382 274.608,612.382 273,609.5C 269.119,607.554 265.786,604.888 263,601.5C 259.833,593.527 261.333,586.694 267.5,581C 271.531,579.712 274.197,581.045 275.5,585C 272.889,589.834 272.889,594.667 275.5,599.5C 276.5,600.167 277.5,600.833 278.5,601.5C 279.457,603.918 280.791,606.084 282.5,608C 284.464,608.624 286.131,608.124 287.5,606.5C 290.328,607.321 290.994,606.321 289.5,603.5C 290.178,601.484 290.844,599.484 291.5,597.5C 294.8,595.696 297.634,593.363 300,590.5C 300.667,588.833 300.667,587.167 300,585.5C 298.779,584.226 297.946,582.726 297.5,581C 298.259,575.872 298.759,570.705 299,565.5C 298.688,559.197 300.855,554.031 305.5,550C 309.238,550.183 312.905,551.016 316.5,552.5C 319.438,551.425 322.438,551.259 325.5,552C 328.727,558.054 333.727,560.054 340.5,558C 342.373,557.047 342.706,555.88 341.5,554.5C 346.377,553.812 350.71,554.979 354.5,558C 356.066,560.93 356.9,564.097 357,567.5C 360.418,571.367 363.751,571.367 367,567.5C 367.457,564.204 368.291,561.037 369.5,558C 368.833,557.333 368.167,556.667 367.5,556C 368.685,554.647 370.019,553.48 371.5,552.5C 368.717,550.605 367.217,547.939 367,544.5C 364.947,543.733 363.447,542.4 362.5,540.5C 363.047,536.936 363.714,533.436 364.5,530C 363.809,528.933 363.309,527.766 363,526.5C 358.574,523.512 353.741,521.345 348.5,520C 347.398,517.137 346.398,514.304 345.5,511.5C 344.412,510.066 343.078,509.066 341.5,508.5C 341.16,506.321 340.16,504.488 338.5,503C 332.276,502.961 330.276,500.128 332.5,494.5C 331.757,493.818 331.091,493.151 330.5,492.5C 331.151,491.909 331.818,491.243 332.5,490.5C 334.519,492.465 336.519,492.631 338.5,491C 338.767,488.31 340.101,485.81 342.5,483.5C 341.777,477.503 340.944,471.503 340,465.5C 337.68,461.266 336.68,456.933 337,452.5C 335.333,450.167 333.667,447.833 332,445.5C 332,442.167 332,438.833 332,435.5C 329.294,433.129 326.961,430.463 325,427.5C 324.333,423.5 324.333,419.5 325,415.5C 325.831,410.846 328.331,409.512 332.5,411.5C 334.527,410.487 336.527,409.487 338.5,408.5C 339.414,411.728 339.747,415.061 339.5,418.5C 341.582,418.472 343.416,419.139 345,420.5C 346.018,419.294 346.518,419.627 346.5,421.5C 346.263,424.063 345.763,424.063 345,421.5C 343.244,422.421 343.077,423.588 344.5,425C 342.805,429.557 340.972,434.057 339,438.5C 338.506,440.134 338.34,441.801 338.5,443.5C 344.5,443.5 350.5,443.5 356.5,443.5C 355.134,446.064 353.467,448.564 351.5,451C 353.62,452.523 353.953,454.356 352.5,456.5C 354.09,458.68 355.424,461.013 356.5,463.5C 359.036,463.844 361.203,464.844 363,466.5C 363.171,471.864 363.671,477.198 364.5,482.5C 366.018,485.146 367.351,487.979 368.5,491C 370.693,492.064 372.693,493.398 374.5,495C 383.737,496.357 392.404,499.191 400.5,503.5C 406.16,510.156 409.66,517.822 411,526.5C 411.779,527.728 412.779,528.728 414,529.5C 418.223,527.973 422.056,525.807 425.5,523C 428.642,523.088 431.142,524.588 433,527.5C 435.009,538.919 441.342,543.919 452,542.5C 453.221,543.272 454.221,544.272 455,545.5C 457.327,542.632 458.827,542.965 459.5,546.5C 462.667,548.167 465.833,549.833 469,551.5C 470.727,548.651 470.894,545.651 469.5,542.5C 468.914,542.709 468.414,543.043 468,543.5C 463.23,540.727 459.897,536.727 458,531.5C 451.674,526.339 448.174,519.839 447.5,512C 444.606,508.774 442.106,505.274 440,501.5C 433.548,500.508 427.381,498.174 421.5,494.5C 420.24,491.945 418.906,489.445 417.5,487C 418.167,486.333 418.833,485.667 419.5,485C 415.768,482.467 411.768,480.467 407.5,479C 407.006,474.912 404.672,472.912 400.5,473C 400.833,472.667 401.167,472.333 401.5,472C 396.277,468.55 391.943,464.217 388.5,459C 388.577,456.003 388.91,453.003 389.5,450C 387.892,447.391 385.559,446.058 382.5,446C 382.833,445.667 383.167,445.333 383.5,445C 381.561,444.092 380.561,442.592 380.5,440.5C 378.516,440.617 376.85,439.95 375.5,438.5C 376.167,436.5 376.833,434.5 377.5,432.5C 376.05,431.15 375.383,429.484 375.5,427.5C 367.409,423.097 359.076,419.931 350.5,418C 349.256,414.545 349.589,411.045 351.5,407.5C 349.921,403.855 347.921,403.689 345.5,407C 343.934,407.765 342.601,407.598 341.5,406.5C 342.51,402.794 343.01,398.794 343,394.5C 338.826,388.154 335.159,381.488 332,374.5C 331.833,371.667 331.667,368.833 331.5,366C 330.7,360.908 332.034,356.575 335.5,353C 341.792,351.263 344.792,347.096 344.5,340.5C 346.816,341.806 349.15,343.139 351.5,344.5C 353.747,343.626 356.08,343.292 358.5,343.5C 358.317,341.064 358.984,338.897 360.5,337C 360.292,333.675 359.959,330.342 359.5,327C 362.325,323.599 363.658,319.599 363.5,315C 362.188,310.484 361.188,305.817 360.5,301C 360.667,300.167 360.833,299.333 361,298.5C 363.181,296.737 365.347,295.07 367.5,293.5C 372.334,291.75 376.5,292.75 380,296.5C 384.107,307.154 386.774,318.154 388,329.5C 391.092,344.11 399.925,350.444 414.5,348.5C 415.374,349.525 416.541,350.192 418,350.5C 422.106,347.946 426.44,345.946 431,344.5C 432.107,344.585 433.107,344.919 434,345.5C 434.346,347.218 434.846,348.885 435.5,350.5C 435.291,351.086 434.957,351.586 434.5,352C 435.397,360.294 436.397,368.628 437.5,377C 436.041,385.92 434.208,394.753 432,403.5C 429.123,407.337 427.623,411.67 427.5,416.5C 428.978,416.762 430.311,416.429 431.5,415.5C 432.026,413.77 433.026,412.436 434.5,411.5C 436.667,412.792 439,413.625 441.5,414C 442.71,415.039 443.71,416.206 444.5,417.5C 443.445,419.957 441.612,421.623 439,422.5C 437.35,430.132 434.35,437.132 430,443.5C 429.727,445.101 429.227,446.601 428.5,448C 429.717,449.648 430.55,451.481 431,453.5C 438.11,461.282 445.277,469.115 452.5,477C 458.016,479.589 463.016,482.922 467.5,487C 469.5,488 471.5,489 473.5,490C 483.5,490.667 493.5,490.667 503.5,490C 509.393,486.591 515.726,484.591 522.5,484C 524.594,481.366 524.927,478.533 523.5,475.5C 526.889,467.887 532.223,462.054 539.5,458C 547.167,449.667 554.833,441.333 562.5,433C 565.784,431.875 569.117,430.875 572.5,430C 574.286,429.215 575.786,428.049 577,426.5C 579.22,421.616 582.22,417.282 586,413.5C 586.266,407.436 589.099,403.27 594.5,401C 598.982,397.034 601.316,392.034 601.5,386C 601.01,383.497 599.677,381.497 597.5,380C 591.568,379.52 586.235,377.52 581.5,374C 577.579,373.041 574.412,374.208 572,377.5C 570.422,380.657 569.422,383.991 569,387.5C 558.742,396.575 552.409,407.908 550,421.5C 546.051,433.567 538.884,436.067 528.5,429C 527.035,425.954 525.201,423.121 523,420.5C 521.568,418.561 519.735,417.228 517.5,416.5C 520.45,409.025 525.783,406.358 533.5,408.5C 532.75,410.93 532.417,413.264 532.5,415.5C 533.313,416.814 534.313,417.981 535.5,419C 539.101,418.423 542.768,418.59 546.5,419.5C 546.888,417.315 547.888,415.482 549.5,414C 549.337,411.016 548.837,407.85 548,404.5C 544.473,401.395 541.14,398.061 538,394.5C 536.95,390.696 536.116,386.863 535.5,383C 537.38,375.727 539.713,368.56 542.5,361.5C 541.5,360.667 540.5,359.833 539.5,359C 541.811,357.948 543.144,356.115 543.5,353.5C 542.869,350.812 542.869,348.312 543.5,346C 547.152,345.501 550.818,345.335 554.5,345.5C 557.45,347.115 560.116,349.115 562.5,351.5C 563.476,352.815 564.476,354.148 565.5,355.5C 570.548,356.244 575.215,357.911 579.5,360.5C 592.602,356.026 601.769,347.36 607,334.5C 608.755,322.531 610.088,310.531 611,298.5C 612.5,297 614,295.5 615.5,294C 622.959,293.091 630.292,293.591 637.5,295.5C 642.254,295.182 646.587,294.016 650.5,292C 652.241,293.62 654.075,295.12 656,296.5C 656.505,298.518 657.005,300.518 657.5,302.5 Z"/></g>
<g><path style="opacity:1" fill="#3b3e49" d="M 642.5,528.5 C 641.831,523.822 640.998,519.156 640,514.5C 639.5,514 639,513.5 638.5,513C 631.707,513.271 625.207,514.771 619,517.5C 616.546,516.802 614.213,515.802 612,514.5C 612.886,508.841 614.386,503.341 616.5,498C 615.917,492.508 615.417,487.008 615,481.5C 608.957,479.215 605.457,474.548 604.5,467.5C 606.78,464.393 609.78,462.227 613.5,461C 611.903,458.974 610.903,456.641 610.5,454C 612.45,449.933 614.783,446.1 617.5,442.5C 620.437,441.197 623.103,439.53 625.5,437.5C 627.396,436.534 629.396,436.201 631.5,436.5C 631.649,435.448 631.483,434.448 631,433.5C 623.166,426.71 623.666,420.876 632.5,416C 641.976,415.923 644.643,411.59 640.5,403C 641.729,401.471 643.229,400.304 645,399.5C 645.273,397.671 646.107,396.171 647.5,395C 651.401,393.78 655.067,392.113 658.5,390C 655.447,388.419 654.78,386.086 656.5,383C 655.313,381.981 654.313,380.814 653.5,379.5C 655.554,377.806 657.888,376.639 660.5,376C 659.542,374.853 659.875,373.853 661.5,373C 660.717,370.381 660.717,367.548 661.5,364.5C 663.432,363.634 665.432,362.967 667.5,362.5C 674.981,363.063 680.648,366.396 684.5,372.5C 685.565,376.784 686.398,381.117 687,385.5C 688.022,386.354 688.855,387.354 689.5,388.5C 688.017,391.411 688.35,394.078 690.5,396.5C 689.617,397.548 688.95,398.715 688.5,400C 688.836,404.224 690.169,408.058 692.5,411.5C 691.129,414.326 692.129,415.826 695.5,416C 695.167,416.333 694.833,416.667 694.5,417C 697.08,419.12 697.08,421.287 694.5,423.5C 695.167,424.833 695.833,426.167 696.5,427.5C 695.167,429.167 695.167,430.833 696.5,432.5C 695.687,433.814 694.687,434.981 693.5,436C 695.144,441.318 695.977,446.818 696,452.5C 696.837,454.351 697.671,456.184 698.5,458C 697.022,460.457 695.689,462.957 694.5,465.5C 695.888,468.53 697.221,471.53 698.5,474.5C 698.333,475.5 698.167,476.5 698,477.5C 695.295,478.568 693.795,480.568 693.5,483.5C 694.651,485.325 695.318,487.325 695.5,489.5C 697.167,489.5 698.833,489.5 700.5,489.5C 700.245,492.016 699.411,494.35 698,496.5C 695.49,498.633 693.324,501.133 691.5,504C 693.636,508.446 695.303,512.78 696.5,517C 692.881,520.522 688.548,522.522 683.5,523C 687.313,524.262 691.313,524.929 695.5,525C 697.421,525.36 699.088,526.194 700.5,527.5C 699.966,530.185 698.633,532.852 696.5,535.5C 696.709,536.086 697.043,536.586 697.5,537C 696.13,538.441 695.13,540.108 694.5,542C 695.772,544.044 695.439,545.878 693.5,547.5C 695.149,548.648 696.649,549.981 698,551.5C 699.113,559.942 695.946,561.775 688.5,557C 687.167,556 687.167,555 688.5,554C 687.643,553.311 686.977,552.478 686.5,551.5C 679.613,550.266 675.946,546.266 675.5,539.5C 677.924,539.808 680.257,539.474 682.5,538.5C 681.359,537.575 681.359,536.741 682.5,536C 678.785,531.963 674.452,528.63 669.5,526C 671.784,524.637 671.951,523.137 670,521.5C 668.732,521.616 667.398,521.949 666,522.5C 663.75,521.292 661.583,519.959 659.5,518.5C 656.937,518.737 656.937,519.237 659.5,520C 656.833,521 656.833,522 659.5,523C 658.643,523.689 657.977,524.522 657.5,525.5C 658.779,527.146 660.445,528.313 662.5,529C 659.972,530.316 659.972,531.483 662.5,532.5C 660.5,533.167 658.5,533.833 656.5,534.5C 657.246,535.736 657.579,537.07 657.5,538.5C 656.127,538.343 654.793,538.51 653.5,539C 652.833,541 651.5,542.333 649.5,543C 649.833,543.333 650.167,543.667 650.5,544C 647.702,544.561 645.869,543.394 645,540.5C 644.667,537.167 644.333,533.833 644,530.5C 643.722,529.584 643.222,528.918 642.5,528.5 Z"/></g>
<g><path style="opacity:1" fill="#868d9a" d="M 444.5,417.5 C 446.5,416.5 448.5,415.5 450.5,414.5C 450.344,417.066 450.678,419.566 451.5,422C 451.138,423.225 450.638,424.391 450,425.5C 448.853,424.542 447.853,424.875 447,426.5C 443.191,442.146 447.691,454.646 460.5,464C 463.869,464.663 467.203,464.496 470.5,463.5C 475.833,464.5 475.833,465.5 470.5,466.5C 468.528,465.557 466.695,465.224 465,465.5C 464.25,466.126 463.416,466.626 462.5,467C 462.833,467.333 463.167,467.667 463.5,468C 461.655,469.128 459.655,469.628 457.5,469.5C 458.219,472.073 459.219,474.573 460.5,477C 481.097,485.399 500.763,483.399 519.5,471C 521.155,469.556 521.822,467.722 521.5,465.5C 514.262,466.307 506.929,465.974 499.5,464.5C 503.823,460.008 507.99,455.341 512,450.5C 513.134,441.359 514.967,432.193 517.5,423C 517.212,420.813 516.878,418.646 516.5,416.5C 516.833,416.5 517.167,416.5 517.5,416.5C 519.735,417.228 521.568,418.561 523,420.5C 525.201,423.121 527.035,425.954 528.5,429C 538.884,436.067 546.051,433.567 550,421.5C 552.409,407.908 558.742,396.575 569,387.5C 569.422,383.991 570.422,380.657 572,377.5C 574.412,374.208 577.579,373.041 581.5,374C 586.235,377.52 591.568,379.52 597.5,380C 599.677,381.497 601.01,383.497 601.5,386C 601.316,392.034 598.982,397.034 594.5,401C 589.099,403.27 586.266,407.436 586,413.5C 582.22,417.282 579.22,421.616 577,426.5C 575.786,428.049 574.286,429.215 572.5,430C 569.117,430.875 565.784,431.875 562.5,433C 554.833,441.333 547.167,449.667 539.5,458C 532.223,462.054 526.889,467.887 523.5,475.5C 524.927,478.533 524.594,481.366 522.5,484C 515.726,484.591 509.393,486.591 503.5,490C 493.5,490.667 483.5,490.667 473.5,490C 471.5,489 469.5,488 467.5,487C 463.016,482.922 458.016,479.589 452.5,477C 445.277,469.115 438.11,461.282 431,453.5C 430.55,451.481 429.717,449.648 428.5,448C 429.227,446.601 429.727,445.101 430,443.5C 434.35,437.132 437.35,430.132 439,422.5C 441.612,421.623 443.445,419.957 444.5,417.5 Z"/></g>
<g><path style="opacity:1" fill="#3b3e49" d="M 516.5,416.5 C 516.878,418.646 517.212,420.813 517.5,423C 514.967,432.193 513.134,441.359 512,450.5C 507.99,455.341 503.823,460.008 499.5,464.5C 506.929,465.974 514.262,466.307 521.5,465.5C 521.822,467.722 521.155,469.556 519.5,471C 500.763,483.399 481.097,485.399 460.5,477C 459.219,474.573 458.219,472.073 457.5,469.5C 459.655,469.628 461.655,469.128 463.5,468C 463.167,467.667 462.833,467.333 462.5,467C 463.416,466.626 464.25,466.126 465,465.5C 466.695,465.224 468.528,465.557 470.5,466.5C 475.833,465.5 475.833,464.5 470.5,463.5C 467.203,464.496 463.869,464.663 460.5,464C 447.691,454.646 443.191,442.146 447,426.5C 447.853,424.875 448.853,424.542 450,425.5C 450.638,424.391 451.138,423.225 451.5,422C 450.678,419.566 450.344,417.066 450.5,414.5C 451.072,412.745 451.906,411.078 453,409.5C 457.554,404.946 462.054,400.446 466.5,396C 471.612,393.987 476.945,392.987 482.5,393C 486.167,390.833 489.833,388.667 493.5,386.5C 498.712,388.34 502.546,391.674 505,396.5C 505.033,405.505 508.866,412.171 516.5,416.5 Z"/></g>
<g><path style="opacity:1" fill="#554d46" d="M 338.5,408.5 C 339.5,407.833 340.5,407.167 341.5,406.5C 342.601,407.598 343.934,407.765 345.5,407C 347.921,403.689 349.921,403.855 351.5,407.5C 349.589,411.045 349.256,414.545 350.5,418C 359.076,419.931 367.409,423.097 375.5,427.5C 375.383,429.484 376.05,431.15 377.5,432.5C 376.833,434.5 376.167,436.5 375.5,438.5C 376.85,439.95 378.516,440.617 380.5,440.5C 380.561,442.592 381.561,444.092 383.5,445C 383.167,445.333 382.833,445.667 382.5,446C 385.559,446.058 387.892,447.391 389.5,450C 388.91,453.003 388.577,456.003 388.5,459C 391.943,464.217 396.277,468.55 401.5,472C 401.167,472.333 400.833,472.667 400.5,473C 404.672,472.912 407.006,474.912 407.5,479C 411.768,480.467 415.768,482.467 419.5,485C 418.833,485.667 418.167,486.333 417.5,487C 418.906,489.445 420.24,491.945 421.5,494.5C 427.381,498.174 433.548,500.508 440,501.5C 442.106,505.274 444.606,508.774 447.5,512C 448.174,519.839 451.674,526.339 458,531.5C 459.897,536.727 463.23,540.727 468,543.5C 468.414,543.043 468.914,542.709 469.5,542.5C 470.894,545.651 470.727,548.651 469,551.5C 465.833,549.833 462.667,548.167 459.5,546.5C 458.827,542.965 457.327,542.632 455,545.5C 454.221,544.272 453.221,543.272 452,542.5C 441.342,543.919 435.009,538.919 433,527.5C 431.142,524.588 428.642,523.088 425.5,523C 422.056,525.807 418.223,527.973 414,529.5C 412.779,528.728 411.779,527.728 411,526.5C 409.66,517.822 406.16,510.156 400.5,503.5C 392.404,499.191 383.737,496.357 374.5,495C 372.693,493.398 370.693,492.064 368.5,491C 367.351,487.979 366.018,485.146 364.5,482.5C 363.671,477.198 363.171,471.864 363,466.5C 361.203,464.844 359.036,463.844 356.5,463.5C 355.424,461.013 354.09,458.68 352.5,456.5C 353.953,454.356 353.62,452.523 351.5,451C 353.467,448.564 355.134,446.064 356.5,443.5C 350.5,443.5 344.5,443.5 338.5,443.5C 338.34,441.801 338.506,440.134 339,438.5C 340.972,434.057 342.805,429.557 344.5,425C 343.077,423.588 343.244,422.421 345,421.5C 345.763,424.063 346.263,424.063 346.5,421.5C 346.518,419.627 346.018,419.294 345,420.5C 343.416,419.139 341.582,418.472 339.5,418.5C 339.747,415.061 339.414,411.728 338.5,408.5 Z"/></g>
<g><path style="opacity:1" fill="#868d9a" d="M 224.5,428.5 C 227.326,429.136 227.992,430.636 226.5,433C 227.851,435.677 229.184,438.343 230.5,441C 225.815,448.849 226.148,456.516 231.5,464C 229.975,467.573 228.642,471.24 227.5,475C 228.818,476.99 230.152,478.99 231.5,481C 231.043,481.414 230.709,481.914 230.5,482.5C 231.372,488.408 234.372,492.908 239.5,496C 238.521,497.779 238.854,499.445 240.5,501C 238.601,504.681 239.601,507.181 243.5,508.5C 252.601,506.661 259.268,510.161 263.5,519C 262.191,525.111 262.191,531.278 263.5,537.5C 270.411,540.121 272.411,544.954 269.5,552C 271.58,555.237 273.08,558.737 274,562.5C 275.512,563.257 276.846,564.257 278,565.5C 279.511,568.824 280.011,572.157 279.5,575.5C 283.291,579.467 284.291,583.8 282.5,588.5C 284.346,591.501 286.346,594.335 288.5,597C 289.448,597.483 290.448,597.649 291.5,597.5C 290.844,599.484 290.178,601.484 289.5,603.5C 290.994,606.321 290.328,607.321 287.5,606.5C 286.131,608.124 284.464,608.624 282.5,608C 280.791,606.084 279.457,603.918 278.5,601.5C 277.5,600.833 276.5,600.167 275.5,599.5C 272.889,594.667 272.889,589.834 275.5,585C 274.197,581.045 271.531,579.712 267.5,581C 261.333,586.694 259.833,593.527 263,601.5C 265.786,604.888 269.119,607.554 273,609.5C 274.608,612.382 275.941,615.382 277,618.5C 280.81,621.475 283.644,625.142 285.5,629.5C 266.833,629.5 248.167,629.5 229.5,629.5C 228.833,627.181 228.666,624.847 229,622.5C 230.479,619.435 232.312,616.602 234.5,614C 232.789,612.867 232.289,611.367 233,609.5C 233.667,610.167 234.333,610.833 235,611.5C 239.652,608.356 240.819,604.523 238.5,600C 228.287,600.736 226.953,597.57 234.5,590.5C 232.661,588.473 232.161,586.14 233,583.5C 233.718,584.451 234.551,584.617 235.5,584C 236.13,582.108 237.13,580.441 238.5,579C 236.003,576.83 234.17,577.33 233,580.5C 233.007,575.971 230.841,573.471 226.5,573C 225.743,571.488 224.743,570.154 223.5,569C 224.667,567.833 225.833,566.667 227,565.5C 227.667,561.833 227.667,558.167 227,554.5C 224.004,553.71 221.171,552.544 218.5,551C 217.978,550.439 217.645,549.772 217.5,549C 218.604,547.18 220.104,545.68 222,544.5C 221.722,540.861 221.722,537.194 222,533.5C 223.425,532.788 224.925,532.621 226.5,533C 227.833,531 227.833,529 226.5,527C 222.666,526.43 219.999,524.43 218.5,521C 221.071,520.099 223.404,518.766 225.5,517C 231.867,511.853 233.701,505.353 231,497.5C 230.147,495.875 229.147,495.542 228,496.5C 228.099,492.245 226.266,490.745 222.5,492C 223.891,490.98 225.391,490.147 227,489.5C 227.667,487.5 227.667,485.5 227,483.5C 224.178,481.347 221.344,479.181 218.5,477C 219.078,475.189 219.578,473.355 220,471.5C 221.757,470.881 222.924,469.714 223.5,468C 221.54,466.411 219.874,464.577 218.5,462.5C 218.887,460.726 219.553,459.059 220.5,457.5C 219.833,456.5 219.167,455.5 218.5,454.5C 218.279,451.522 218.612,448.522 219.5,445.5C 220.822,445.67 221.989,445.337 223,444.5C 224.271,439.246 224.771,433.913 224.5,428.5 Z"/></g>
<g><path style="opacity:1" fill="#554d46" d="M 341.5,508.5 C 343.078,509.066 344.412,510.066 345.5,511.5C 346.398,514.304 347.398,517.137 348.5,520C 353.741,521.345 358.574,523.512 363,526.5C 363.309,527.766 363.809,528.933 364.5,530C 363.714,533.436 363.047,536.936 362.5,540.5C 363.447,542.4 364.947,543.733 367,544.5C 367.217,547.939 368.717,550.605 371.5,552.5C 370.019,553.48 368.685,554.647 367.5,556C 368.167,556.667 368.833,557.333 369.5,558C 368.291,561.037 367.457,564.204 367,567.5C 363.751,571.367 360.418,571.367 357,567.5C 356.9,564.097 356.066,560.93 354.5,558C 350.71,554.979 346.377,553.812 341.5,554.5C 337.126,550.125 336.959,545.792 341,541.5C 341.368,542.91 342.201,543.91 343.5,544.5C 345.709,543.894 347.876,543.227 350,542.5C 350.333,542.833 350.667,543.167 351,543.5C 358.446,539.529 358.113,535.862 350,532.5C 346.729,524.617 343.895,516.617 341.5,508.5 Z"/></g>
<g><path style="opacity:1" fill="#554d46" d="M 555.5,508.5 C 560.032,508.069 564.365,508.569 568.5,510C 568.487,515.193 566.154,519.026 561.5,521.5C 560.618,524.32 559.452,526.986 558,529.5C 557.667,529.167 557.333,528.833 557,528.5C 554.465,530.799 551.798,530.799 549,528.5C 545.251,532.083 541.084,535.083 536.5,537.5C 535.914,537.291 535.414,536.957 535,536.5C 533.997,540.205 531.83,542.871 528.5,544.5C 527.757,545.908 526.923,547.241 526,548.5C 523.93,548.837 521.93,548.171 520,546.5C 518.093,548.103 516.593,547.77 515.5,545.5C 512.907,549.452 510.407,553.452 508,557.5C 501.452,554.938 499.952,550.604 503.5,544.5C 506.615,542.226 509.615,539.726 512.5,537C 519.711,535.892 526.378,533.392 532.5,529.5C 533.086,529.709 533.586,530.043 534,530.5C 536.067,522.94 540.9,519.773 548.5,521C 550.719,516.725 553.052,512.559 555.5,508.5 Z"/></g>
</svg>
