<?xml version="1.0" encoding="utf-8" ?>
<svg baseProfile="tiny" height="100%" version="1.2" width="100%" xmlns="http://www.w3.org/2000/svg" xmlns:ev="http://www.w3.org/2001/xml-events" xmlns:xlink="http://www.w3.org/1999/xlink"><defs /><path d="M 341.5,508.5 C 343.078,509.066 344.412,510.066 345.5,511.5C 346.398,514.304 347.398,517.137 348.5,520C 353.741,521.345 358.574,523.512 363,526.5C 363.309,527.766 363.809,528.933 364.5,530C 363.714,533.436 363.047,536.936 362.5,540.5C 363.447,542.4 364.947,543.733 367,544.5C 367.217,547.939 368.717,550.605 371.5,552.5C 370.019,553.48 368.685,554.647 367.5,556C 368.167,556.667 368.833,557.333 369.5,558C 368.291,561.037 367.457,564.204 367,567.5C 363.751,571.367 360.418,571.367 357,567.5C 356.9,564.097 356.066,560.93 354.5,558C 350.71,554.979 346.377,553.812 341.5,554.5C 337.126,550.125 336.959,545.792 341,541.5C 341.368,542.91 342.201,543.91 343.5,544.5C 345.709,543.894 347.876,543.227 350,542.5C 350.333,542.833 350.667,543.167 351,543.5C 358.446,539.529 358.113,535.862 350,532.5C 346.729,524.617 343.895,516.617 341.5,508.5 Z" fill="white" /></svg>