<?xml version="1.0" encoding="utf-8" ?>
<svg baseProfile="tiny" height="100%" version="1.2" width="100%" xmlns="http://www.w3.org/2000/svg" xmlns:ev="http://www.w3.org/2001/xml-events" xmlns:xlink="http://www.w3.org/1999/xlink"><defs /><path d="M 642.5,528.5 C 641.831,523.822 640.998,519.156 640,514.5C 639.5,514 639,513.5 638.5,513C 631.707,513.271 625.207,514.771 619,517.5C 616.546,516.802 614.213,515.802 612,514.5C 612.886,508.841 614.386,503.341 616.5,498C 615.917,492.508 615.417,487.008 615,481.5C 608.957,479.215 605.457,474.548 604.5,467.5C 606.78,464.393 609.78,462.227 613.5,461C 611.903,458.974 610.903,456.641 610.5,454C 612.45,449.933 614.783,446.1 617.5,442.5C 620.437,441.197 623.103,439.53 625.5,437.5C 627.396,436.534 629.396,436.201 631.5,436.5C 631.649,435.448 631.483,434.448 631,433.5C 623.166,426.71 623.666,420.876 632.5,416C 641.976,415.923 644.643,411.59 640.5,403C 641.729,401.471 643.229,400.304 645,399.5C 645.273,397.671 646.107,396.171 647.5,395C 651.401,393.78 655.067,392.113 658.5,390C 655.447,388.419 654.78,386.086 656.5,383C 655.313,381.981 654.313,380.814 653.5,379.5C 655.554,377.806 657.888,376.639 660.5,376C 659.542,374.853 659.875,373.853 661.5,373C 660.717,370.381 660.717,367.548 661.5,364.5C 663.432,363.634 665.432,362.967 667.5,362.5C 674.981,363.063 680.648,366.396 684.5,372.5C 685.565,376.784 686.398,381.117 687,385.5C 688.022,386.354 688.855,387.354 689.5,388.5C 688.017,391.411 688.35,394.078 690.5,396.5C 689.617,397.548 688.95,398.715 688.5,400C 688.836,404.224 690.169,408.058 692.5,411.5C 691.129,414.326 692.129,415.826 695.5,416C 695.167,416.333 694.833,416.667 694.5,417C 697.08,419.12 697.08,421.287 694.5,423.5C 695.167,424.833 695.833,426.167 696.5,427.5C 695.167,429.167 695.167,430.833 696.5,432.5C 695.687,433.814 694.687,434.981 693.5,436C 695.144,441.318 695.977,446.818 696,452.5C 696.837,454.351 697.671,456.184 698.5,458C 697.022,460.457 695.689,462.957 694.5,465.5C 695.888,468.53 697.221,471.53 698.5,474.5C 698.333,475.5 698.167,476.5 698,477.5C 695.295,478.568 693.795,480.568 693.5,483.5C 694.651,485.325 695.318,487.325 695.5,489.5C 697.167,489.5 698.833,489.5 700.5,489.5C 700.245,492.016 699.411,494.35 698,496.5C 695.49,498.633 693.324,501.133 691.5,504C 693.636,508.446 695.303,512.78 696.5,517C 692.881,520.522 688.548,522.522 683.5,523C 687.313,524.262 691.313,524.929 695.5,525C 697.421,525.36 699.088,526.194 700.5,527.5C 699.966,530.185 698.633,532.852 696.5,535.5C 696.709,536.086 697.043,536.586 697.5,537C 696.13,538.441 695.13,540.108 694.5,542C 695.772,544.044 695.439,545.878 693.5,547.5C 695.149,548.648 696.649,549.981 698,551.5C 699.113,559.942 695.946,561.775 688.5,557C 687.167,556 687.167,555 688.5,554C 687.643,553.311 686.977,552.478 686.5,551.5C 679.613,550.266 675.946,546.266 675.5,539.5C 677.924,539.808 680.257,539.474 682.5,538.5C 681.359,537.575 681.359,536.741 682.5,536C 678.785,531.963 674.452,528.63 669.5,526C 671.784,524.637 671.951,523.137 670,521.5C 668.732,521.616 667.398,521.949 666,522.5C 663.75,521.292 661.583,519.959 659.5,518.5C 656.937,518.737 656.937,519.237 659.5,520C 656.833,521 656.833,522 659.5,523C 658.643,523.689 657.977,524.522 657.5,525.5C 658.779,527.146 660.445,528.313 662.5,529C 659.972,530.316 659.972,531.483 662.5,532.5C 660.5,533.167 658.5,533.833 656.5,534.5C 657.246,535.736 657.579,537.07 657.5,538.5C 656.127,538.343 654.793,538.51 653.5,539C 652.833,541 651.5,542.333 649.5,543C 649.833,543.333 650.167,543.667 650.5,544C 647.702,544.561 645.869,543.394 645,540.5C 644.667,537.167 644.333,533.833 644,530.5C 643.722,529.584 643.222,528.918 642.5,528.5 Z" fill="white" /></svg>