<?xml version="1.0" encoding="utf-8" ?>
<svg baseProfile="tiny" height="100%" version="1.2" width="100%" xmlns="http://www.w3.org/2000/svg" xmlns:ev="http://www.w3.org/2001/xml-events" xmlns:xlink="http://www.w3.org/1999/xlink"><defs /><path d="M 555.5,508.5 C 560.032,508.069 564.365,508.569 568.5,510C 568.487,515.193 566.154,519.026 561.5,521.5C 560.618,524.32 559.452,526.986 558,529.5C 557.667,529.167 557.333,528.833 557,528.5C 554.465,530.799 551.798,530.799 549,528.5C 545.251,532.083 541.084,535.083 536.5,537.5C 535.914,537.291 535.414,536.957 535,536.5C 533.997,540.205 531.83,542.871 528.5,544.5C 527.757,545.908 526.923,547.241 526,548.5C 523.93,548.837 521.93,548.171 520,546.5C 518.093,548.103 516.593,547.77 515.5,545.5C 512.907,549.452 510.407,553.452 508,557.5C 501.452,554.938 499.952,550.604 503.5,544.5C 506.615,542.226 509.615,539.726 512.5,537C 519.711,535.892 526.378,533.392 532.5,529.5C 533.086,529.709 533.586,530.043 534,530.5C 536.067,522.94 540.9,519.773 548.5,521C 550.719,516.725 553.052,512.559 555.5,508.5 Z" fill="white" /></svg>