<?xml version="1.0" encoding="utf-8" ?>
<svg baseProfile="tiny" height="100%" version="1.2" width="100%" xmlns="http://www.w3.org/2000/svg" xmlns:ev="http://www.w3.org/2001/xml-events" xmlns:xlink="http://www.w3.org/1999/xlink"><defs /><path d="M 414.5,347.5 C 409.055,344.614 403.389,341.947 397.5,339.5C 392.804,333.397 393.804,331.397 400.5,333.5C 402.266,333.566 403.266,332.732 403.5,331C 402.23,326.273 400.897,321.273 399.5,316C 401.538,313.711 401.538,311.211 399.5,308.5C 401.162,306.689 401.328,305.022 400,303.5C 399.803,298.914 399.303,294.414 398.5,290C 399.025,289.308 399.692,288.808 400.5,288.5C 402.823,290.065 405.156,291.232 407.5,292C 408.167,291.333 408.833,290.667 409.5,290C 409.273,287.631 409.107,285.131 409,282.5C 406.388,279.424 403.221,278.757 399.5,280.5C 397.694,282.608 395.527,284.274 393,285.5C 392.667,286.833 392.333,288.167 392,289.5C 389.667,291.935 387.333,294.268 385,296.5C 381.092,293.794 376.925,291.46 372.5,289.5C 369.538,290.009 366.871,291.009 364.5,292.5C 361.873,291.895 359.207,291.395 356.5,291C 351.207,286.62 346.707,281.454 343,275.5C 342.042,269.913 343.542,265.08 347.5,261C 346.901,256.806 345.235,253.139 342.5,250C 343.602,245.564 346.436,243.397 351,243.5C 354.103,246.105 356.103,249.438 357,253.5C 357.739,254.574 358.739,255.241 360,255.5C 363.536,254.409 367.036,253.242 370.5,252C 376.374,244.005 383.041,243.005 390.5,249C 399.791,250.15 409.124,250.816 418.5,251C 419.924,253.101 421.258,255.267 422.5,257.5C 425.879,258.688 428.713,260.688 431,263.5C 433.586,274.359 440.086,281.693 450.5,285.5C 450.628,287.655 450.128,289.655 449,291.5C 443.694,297.281 439.527,303.781 436.5,311C 437.646,318.086 437.812,325.253 437,332.5C 436.529,334.246 435.862,335.913 435,337.5C 428.264,341.057 421.43,344.39 414.5,347.5 Z" fill="white" /></svg>