<?xml version="1.0" encoding="utf-8" ?>
<svg baseProfile="tiny" height="100%" version="1.2" width="100%" xmlns="http://www.w3.org/2000/svg" xmlns:ev="http://www.w3.org/2001/xml-events" xmlns:xlink="http://www.w3.org/1999/xlink"><defs /><path d="M 356.5,32.5 C 355.841,35.4552 355.508,38.4552 355.5,41.5C 360.239,40.2061 364.906,40.3728 369.5,42C 381.583,53.6602 391.083,67.1602 398,82.5C 402.464,95.4208 407.464,108.087 413,120.5C 419.308,123.564 420.141,127.731 415.5,133C 408.005,133.742 403.338,137.742 401.5,145C 404.545,148.683 403.879,151.183 399.5,152.5C 399.56,158.301 397.226,159.634 392.5,156.5C 391.784,154.518 390.617,152.851 389,151.5C 384.211,140.259 379.711,128.926 375.5,117.5C 375.865,116.098 376.699,115.098 378,114.5C 382.147,113.958 386.147,112.958 390,111.5C 390.667,109.5 390.667,107.5 390,105.5C 387.107,102.381 385.274,98.714 384.5,94.5C 383.205,93.9017 381.872,93.4017 380.5,93C 376.833,88.6667 373.167,84.3333 369.5,80C 359.921,76.2654 356.754,79.432 360,89.5C 362.476,96.0565 362.31,102.723 359.5,109.5C 360.294,122.359 362.294,135.026 365.5,147.5C 363.796,150.446 362.796,153.613 362.5,157C 364.364,162.955 363.531,168.455 360,173.5C 355.851,177.804 352.184,182.47 349,187.5C 348.329,188.252 347.496,188.586 346.5,188.5C 344.618,183.495 342.951,178.328 341.5,173C 344.72,166.009 347.554,158.842 350,151.5C 350.667,145.833 350.667,140.167 350,134.5C 347.749,123.242 345.749,111.909 344,100.5C 342.572,96.693 341.072,93.0264 339.5,89.5C 339.67,81.5013 340.17,73.5013 341,65.5C 343.921,59.8186 345.921,53.8186 347,47.5C 349.24,41.7912 352.407,36.7912 356.5,32.5 Z" fill="white" /></svg>