<?xml version="1.0" encoding="utf-8" ?>
<svg baseProfile="tiny" height="100%" version="1.2" width="100%" xmlns="http://www.w3.org/2000/svg" xmlns:ev="http://www.w3.org/2001/xml-events" xmlns:xlink="http://www.w3.org/1999/xlink"><defs /><path d="M 345.5,214.5 C 346.844,218.858 346.011,222.858 343,226.5C 337.356,228.436 334.856,232.436 335.5,238.5C 336.442,242.476 336.609,246.476 336,250.5C 334.539,257.704 333.039,264.871 331.5,272C 331.921,274.185 332.421,276.351 333,278.5C 335.805,280.443 337.305,283.11 337.5,286.5C 336.108,289.748 334.442,292.915 332.5,296C 335.346,299.348 338.013,302.848 340.5,306.5C 339.641,309.051 338.641,311.551 337.5,314C 338.395,318.792 338.395,323.458 337.5,328C 338.7,332.91 341.033,337.077 344.5,340.5C 344.792,347.096 341.792,351.263 335.5,353C 332.034,356.575 330.7,360.908 331.5,366C 331.667,368.833 331.833,371.667 332,374.5C 335.159,381.488 338.826,388.154 343,394.5C 343.01,398.794 342.51,402.794 341.5,406.5C 340.5,407.167 339.5,407.833 338.5,408.5C 336.527,409.487 334.527,410.487 332.5,411.5C 328.331,409.512 325.831,410.846 325,415.5C 324.333,419.5 324.333,423.5 325,427.5C 326.961,430.463 329.294,433.129 332,435.5C 332,438.833 332,442.167 332,445.5C 333.667,447.833 335.333,450.167 337,452.5C 336.68,456.933 337.68,461.266 340,465.5C 340.944,471.503 341.777,477.503 342.5,483.5C 340.101,485.81 338.767,488.31 338.5,491C 336.519,492.631 334.519,492.465 332.5,490.5C 331.818,491.243 331.151,491.909 330.5,492.5C 329.399,493.8 328.066,494.3 326.5,494C 323.534,489.701 319.868,486.034 315.5,483C 315.957,482.586 316.291,482.086 316.5,481.5C 314.816,480.146 314.316,478.479 315,476.5C 316.59,474.268 318.09,471.934 319.5,469.5C 318.359,468.575 318.359,467.741 319.5,467C 317.281,464.78 314.781,462.947 312,461.5C 311.28,459.888 311.446,458.388 312.5,457C 309.237,456.131 308.904,454.797 311.5,453C 308.991,451.579 306.657,449.912 304.5,448C 298.296,448.007 297.63,447.007 302.5,445C 301.978,444.439 301.645,443.772 301.5,443C 302.289,441.374 303.289,439.874 304.5,438.5C 303.289,437.28 303.289,436.113 304.5,435C 293.368,433.919 291.701,429.586 299.5,422C 299.043,421.586 298.709,421.086 298.5,420.5C 295.152,419.713 291.818,418.879 288.5,418C 290.155,416.556 290.822,414.722 290.5,412.5C 287.934,412.656 285.434,412.322 283,411.5C 281.333,412.5 279.667,413.5 278,414.5C 276.566,414.07 275.399,413.236 274.5,412C 277.209,408.633 280.542,407.633 284.5,409C 280.628,407.577 276.961,405.744 273.5,403.5C 275.287,402.684 276.954,401.684 278.5,400.5C 277.359,399.575 277.359,398.741 278.5,398C 276.578,396.58 275.245,394.747 274.5,392.5C 272.667,391.948 271,391.115 269.5,390C 269.957,389.586 270.291,389.086 270.5,388.5C 269.5,388.167 268.5,387.833 267.5,387.5C 261.16,389.71 254.66,391.377 248,392.5C 243.115,390.089 242.281,386.589 245.5,382C 248.525,381.846 250.191,380.346 250.5,377.5C 251.873,377.657 253.207,377.49 254.5,377C 257.888,373.432 260.222,374.098 261.5,379C 265.361,379.569 265.361,380.402 261.5,381.5C 263.074,382.631 264.741,382.798 266.5,382C 266.167,381.667 265.833,381.333 265.5,381C 268.177,380.751 270.51,379.751 272.5,378C 272.043,377.586 271.709,377.086 271.5,376.5C 274.371,374.231 275.705,371.231 275.5,367.5C 273.266,367.62 271.099,367.287 269,366.5C 264.324,367.032 260.658,368.365 258,370.5C 255.5,370 253,369.5 250.5,369C 251.451,368.282 251.617,367.449 251,366.5C 249.59,365.213 248.09,364.046 246.5,363C 247.13,359.871 247.796,356.704 248.5,353.5C 250.996,352.42 253.33,351.086 255.5,349.5C 256.711,348.28 256.711,347.113 255.5,346C 257.333,344.833 259.167,343.667 261,342.5C 259.799,339.435 260.632,336.935 263.5,335C 266.553,334.821 269.553,334.321 272.5,333.5C 272.167,332.833 271.833,332.167 271.5,331.5C 273.11,329.505 274.443,327.339 275.5,325C 273.649,324.163 271.816,323.329 270,322.5C 269.383,321.551 269.549,320.718 270.5,320C 269.5,319.667 268.5,319.333 267.5,319C 267.833,318.667 268.167,318.333 268.5,318C 272.764,318.362 276.93,318.529 281,318.5C 286.184,318.717 290.184,316.717 293,312.5C 293.606,309.452 295.106,306.952 297.5,305C 297.167,304.667 296.833,304.333 296.5,304C 300.33,301.117 304.664,299.284 309.5,298.5C 312.097,293.734 315.597,289.734 320,286.5C 320.562,282.48 321.729,278.647 323.5,275C 323.393,272.56 323.393,270.06 323.5,267.5C 322.894,265.291 322.227,263.124 321.5,261C 323.355,257.772 325.022,254.439 326.5,251C 326.355,250.228 326.022,249.561 325.5,249C 326.227,245.079 327.56,241.412 329.5,238C 330.021,232.766 333.021,229.099 338.5,227C 338.167,226.667 337.833,226.333 337.5,226C 341.705,223.006 344.372,219.173 345.5,214.5 Z" fill="white" /></svg>