<?xml version="1.0" encoding="utf-8" ?>
<svg baseProfile="tiny" height="100%" version="1.2" width="100%" xmlns="http://www.w3.org/2000/svg" xmlns:ev="http://www.w3.org/2001/xml-events" xmlns:xlink="http://www.w3.org/1999/xlink"><defs /><path d="M 516.5,416.5 C 516.878,418.646 517.212,420.813 517.5,423C 514.967,432.193 513.134,441.359 512,450.5C 507.99,455.341 503.823,460.008 499.5,464.5C 506.929,465.974 514.262,466.307 521.5,465.5C 521.822,467.722 521.155,469.556 519.5,471C 500.763,483.399 481.097,485.399 460.5,477C 459.219,474.573 458.219,472.073 457.5,469.5C 459.655,469.628 461.655,469.128 463.5,468C 463.167,467.667 462.833,467.333 462.5,467C 463.416,466.626 464.25,466.126 465,465.5C 466.695,465.224 468.528,465.557 470.5,466.5C 475.833,465.5 475.833,464.5 470.5,463.5C 467.203,464.496 463.869,464.663 460.5,464C 447.691,454.646 443.191,442.146 447,426.5C 447.853,424.875 448.853,424.542 450,425.5C 450.638,424.391 451.138,423.225 451.5,422C 450.678,419.566 450.344,417.066 450.5,414.5C 451.072,412.745 451.906,411.078 453,409.5C 457.554,404.946 462.054,400.446 466.5,396C 471.612,393.987 476.945,392.987 482.5,393C 486.167,390.833 489.833,388.667 493.5,386.5C 498.712,388.34 502.546,391.674 505,396.5C 505.033,405.505 508.866,412.171 516.5,416.5 Z" fill="white" /></svg>