<?xml version="1.0" encoding="utf-8" ?>
<svg baseProfile="tiny" height="100%" version="1.2" width="100%" xmlns="http://www.w3.org/2000/svg" xmlns:ev="http://www.w3.org/2001/xml-events" xmlns:xlink="http://www.w3.org/1999/xlink"><defs /><path d="M 637.5,25.5 C 639.463,26.9599 641.296,28.6266 643,30.5C 647.632,39.7551 652.632,48.7551 658,57.5C 659.469,60.7621 660.636,64.0954 661.5,67.5C 661.062,67.4346 660.728,67.6012 660.5,68C 662.136,73.1804 663.136,78.5137 663.5,84C 662.803,94.8225 662.303,105.656 662,116.5C 659.884,121.631 658.717,126.965 658.5,132.5C 659.918,146.088 661.918,159.588 664.5,173C 664.102,178.849 662.768,184.349 660.5,189.5C 660.038,187.243 659.038,185.243 657.5,183.5C 648.854,177.72 644.354,169.72 644,159.5C 646.438,157.571 648.272,155.238 649.5,152.5C 647.611,150.087 645.444,147.754 643,145.5C 642.598,144.128 642.098,142.795 641.5,141.5C 644.908,129.424 645.741,117.424 644,105.5C 643.15,103.99 642.317,102.49 641.5,101C 642.264,92.3089 643.264,83.6423 644.5,75C 642.745,65.449 637.578,62.949 629,67.5C 628.086,69.6641 626.919,71.6641 625.5,73.5C 627.5,74.1667 629.5,74.8333 631.5,75.5C 629.992,77.5075 628.158,79.1741 626,80.5C 625.311,79.6433 624.478,78.9767 623.5,78.5C 619.272,80.1656 616.772,83.1656 616,87.5C 610.482,91.0281 606.316,95.8614 603.5,102C 606.884,103.932 609.718,106.432 612,109.5C 612.53,115.204 612.197,120.871 611,126.5C 609.137,130.649 607.97,134.982 607.5,139.5C 606.5,139.5 605.5,139.5 604.5,139.5C 604.52,137.857 603.853,136.524 602.5,135.5C 600.021,134.327 597.521,134.327 595,135.5C 593.605,135.22 592.438,134.553 591.5,133.5C 590.337,129.17 588.503,125.17 586,121.5C 585.625,116.799 585.458,112.299 585.5,108C 590.845,93.4698 596.345,78.9698 602,64.5C 606.167,56.8282 610.834,49.4948 616,42.5C 625.645,33.9558 634.312,34.9558 642,45.5C 642.09,38.4461 640.59,31.7795 637.5,25.5 Z" fill="white" /></svg>