<?xml version="1.0" encoding="utf-8" ?>
<svg baseProfile="tiny" height="100%" version="1.2" width="100%" xmlns="http://www.w3.org/2000/svg" xmlns:ev="http://www.w3.org/2001/xml-events" xmlns:xlink="http://www.w3.org/1999/xlink"><defs /><path d="M -0.5,-0.5 C 293.5,-0.5 587.5,-0.5 881.5,-0.5C 881.5,209.5 881.5,419.5 881.5,629.5C 831.5,629.5 781.5,629.5 731.5,629.5C 731.719,628.325 731.386,627.325 730.5,626.5C 726.992,624.872 723.325,623.706 719.5,623C 716.833,621.667 716.833,620.333 719.5,619C 717.095,616.968 717.595,615.468 721,614.5C 721.732,609.391 720.898,604.557 718.5,600C 719.628,598.532 720.294,596.865 720.5,595C 719.164,593.166 718.164,591.166 717.5,589C 717.495,586.837 718.495,585.337 720.5,584.5C 717.126,582.762 713.793,581.096 710.5,579.5C 710.351,578.448 710.517,577.448 711,576.5C 712.987,575.782 714.821,574.782 716.5,573.5C 717.169,569.567 717.502,565.733 717.5,562C 717.167,561.167 716.833,560.333 716.5,559.5C 712.866,564.733 711.032,564.066 711,557.5C 714.897,554.697 715.397,551.364 712.5,547.5C 710.833,546.333 709.167,545.167 707.5,544C 709.691,540.77 710.024,537.27 708.5,533.5C 706.246,532.876 704.579,531.543 703.5,529.5C 707.284,525.748 707.284,521.914 703.5,518C 706.468,515.822 706.135,514.656 702.5,514.5C 702.5,512.833 702.5,511.167 702.5,509.5C 703.5,509.5 704.5,509.5 705.5,509.5C 705.826,505.116 705.492,500.783 704.5,496.5C 701.866,493.748 701.866,490.915 704.5,488C 703.953,484.34 702.286,481.34 699.5,479C 706.144,474.78 707.144,469.447 702.5,463C 703.01,461.174 703.844,461.007 705,462.5C 705.667,458.833 705.667,455.167 705,451.5C 704.333,452.833 703.667,452.833 703,451.5C 702.829,446.136 702.329,440.802 701.5,435.5C 699.082,434.271 698.082,432.271 698.5,429.5C 698.221,426.994 699.054,424.994 701,423.5C 701.689,424.357 702.522,425.023 703.5,425.5C 704.244,424.009 704.91,422.509 705.5,421C 701.68,417.725 701.513,414.225 705,410.5C 706.483,412.119 707.65,412.286 708.5,411C 707.873,408.865 707.373,406.698 707,404.5C 705.043,402.411 702.876,401.577 700.5,402C 697.833,400.333 697.833,398.667 700.5,397C 697.751,394.81 698.085,393.143 701.5,392C 700.09,391.632 699.09,390.799 698.5,389.5C 700.202,386.31 699.536,385.143 696.5,386C 694.527,382.242 695.527,380.075 699.5,379.5C 698.756,376.05 700.09,374.384 703.5,374.5C 702.935,369.851 702.435,365.184 702,360.5C 698.378,355.85 698.878,351.683 703.5,348C 704.448,347.517 705.448,347.351 706.5,347.5C 707.178,339.517 707.178,331.683 706.5,324C 707.469,322.242 708.636,321.742 710,322.5C 711.325,320.007 713.491,318.84 716.5,319C 713.632,314.764 713.132,310.264 715,305.5C 716.692,305.324 718.192,304.824 719.5,304C 717.35,299.99 715.517,296.156 714,292.5C 713.502,289.518 713.335,286.518 713.5,283.5C 712.5,283.5 711.5,283.5 710.5,283.5C 711.127,280.266 711.127,277.099 710.5,274C 707.55,268.766 703.884,264.099 699.5,260C 699.988,258.416 700.988,257.249 702.5,256.5C 701.413,255.895 700.246,256.228 699,257.5C 697.312,256.675 697.145,255.675 698.5,254.5C 696.378,250.96 694.044,247.46 691.5,244C 691.833,243.667 692.167,243.333 692.5,243C 688.326,241.492 687.659,239.159 690.5,236C 686.251,233.583 683.251,230.083 681.5,225.5C 683.49,222.111 683.99,218.444 683,214.5C 682,215.833 681,215.833 680,214.5C 679.667,212.833 679.333,211.167 679,209.5C 678,210.833 677,210.833 676,209.5C 674.13,204.921 671.63,200.754 668.5,197C 667.976,193.738 669.143,190.905 672,188.5C 674.574,183.283 673.907,178.616 670,174.5C 668.953,169.245 669.453,164.245 671.5,159.5C 671.415,155.61 671.248,151.61 671,147.5C 668.714,144.896 666.881,142.063 665.5,139C 666.241,136.194 667.241,133.527 668.5,131C 666.545,126.056 666.045,120.889 667,115.5C 667.853,113.875 668.853,113.542 670,114.5C 670.172,118.871 670.672,123.204 671.5,127.5C 672.662,122.533 672.829,117.533 672,112.5C 670.719,112.619 669.552,112.119 668.5,111C 669.253,109.513 670.086,109.346 671,110.5C 672.365,109.407 672.699,108.074 672,106.5C 671,107.833 670,107.833 669,106.5C 668.685,103.628 668.185,100.795 667.5,98C 667.735,97.1268 668.069,96.2935 668.5,95.5C 665.614,88.1463 664.948,80.6463 666.5,73C 663.887,71.8935 662.22,70.0601 661.5,67.5C 660.636,64.0954 659.469,60.7621 658,57.5C 652.632,48.7551 647.632,39.7551 643,30.5C 641.296,28.6266 639.463,26.9599 637.5,25.5C 633.645,22.6404 629.812,19.6404 626,16.5C 623.959,17.4231 621.792,17.7564 619.5,17.5C 615.734,18.7687 612.067,20.2687 608.5,22C 609.694,24.6578 608.694,25.8244 605.5,25.5C 605.657,26.8734 605.49,28.2068 605,29.5C 603.307,31.959 601.474,34.2923 599.5,36.5C 599.308,40.0496 597.642,42.5496 594.5,44C 594.957,44.414 595.291,44.914 595.5,45.5C 592.516,51.1435 589.683,56.8101 587,62.5C 586,63.5 585,64.5 584,65.5C 581.925,69.2708 580.258,73.2708 579,77.5C 574.409,82.9495 570.742,88.9495 568,95.5C 565.572,97.4767 563.572,99.8101 562,102.5C 560.615,101.449 559.615,100.116 559,98.5C 558.587,101.232 557.92,103.899 557,106.5C 554.638,107.352 552.805,108.852 551.5,111C 546.632,110.25 542.299,111.584 538.5,115C 536.623,115.576 534.789,115.409 533,114.5C 531.715,114.95 530.548,115.617 529.5,116.5C 526.921,115.112 526.921,113.612 529.5,112C 527.093,110.092 527.093,108.092 529.5,106C 528.66,104.233 527.327,102.899 525.5,102C 519.385,100.093 513.385,100.26 507.5,102.5C 500.738,99.7418 493.738,98.5752 486.5,99C 484.285,97.9562 481.952,97.2895 479.5,97C 475.641,93.5809 471.641,90.4142 467.5,87.5C 466.833,87.6667 466.167,87.8333 465.5,88C 466.944,89.126 467.61,90.626 467.5,92.5C 466.832,97.1695 466.832,101.67 467.5,106C 463.442,108.015 459.609,107.515 456,104.5C 450.902,104.987 446.068,106.32 441.5,108.5C 439.745,107.928 438.078,107.094 436.5,106C 427.659,98.0428 419.493,89.5428 412,80.5C 402.917,65.3321 393.584,50.3321 384,35.5C 380.629,30.2515 376.462,25.7515 371.5,22C 369.167,21.3333 366.833,21.3333 364.5,22C 362.413,25.9232 359.746,29.4232 356.5,32.5C 352.407,36.7912 349.24,41.7912 347,47.5C 345.921,53.8186 343.921,59.8186 341,65.5C 340.17,73.5013 339.67,81.5013 339.5,89.5C 339.902,95.2173 339.235,100.717 337.5,106C 337.258,108.348 338.092,110.182 340,111.5C 340.077,114.758 340.244,117.924 340.5,121C 340.18,122.653 339.18,123.653 337.5,124C 340.817,125.085 341.151,126.585 338.5,128.5C 337.832,135.2 336.999,141.867 336,148.5C 334.575,149.212 333.075,149.379 331.5,149C 332.191,150.067 332.691,151.234 333,152.5C 335.658,151.306 336.824,152.306 336.5,155.5C 335.5,155.5 334.5,155.5 333.5,155.5C 332.935,161.655 332.935,167.488 333.5,173C 332.773,174.399 332.273,175.899 332,177.5C 331.333,178.833 330.667,178.833 330,177.5C 329.226,173.853 328.559,170.186 328,166.5C 326.155,167.05 324.655,168.05 323.5,169.5C 324.122,172.37 324.789,175.204 325.5,178C 322.314,179.092 319.647,180.925 317.5,183.5C 318.313,184.814 319.313,185.981 320.5,187C 317.804,189.172 314.804,190.672 311.5,191.5C 314.187,197.282 312.52,201.115 306.5,203C 305.833,204.333 305.167,205.667 304.5,207C 303.216,207.684 302.049,207.517 301,206.5C 300.914,211.252 298.581,214.252 294,215.5C 294.048,217.926 293.881,220.259 293.5,222.5C 296.044,224.392 296.044,226.225 293.5,228C 296.028,229.316 296.028,230.483 293.5,231.5C 290.078,228.71 289.411,228.877 291.5,232C 289.584,235.161 287.75,234.994 286,231.5C 284.806,233.623 284.14,235.957 284,238.5C 282.989,239.337 281.822,239.67 280.5,239.5C 280.67,240.822 280.337,241.989 279.5,243C 275.325,244.616 271.325,246.616 267.5,249C 266.773,250.399 266.273,251.899 266,253.5C 262.236,255.632 258.736,258.132 255.5,261C 259.32,262.753 261.32,265.42 261.5,269C 258.639,270.246 255.639,271.246 252.5,272C 249.486,274.019 246.82,276.352 244.5,279C 244.944,280.533 245.277,282.033 245.5,283.5C 244.564,284.974 243.23,285.974 241.5,286.5C 240.548,288.045 240.215,289.712 240.5,291.5C 246.375,291.636 247.875,294.303 245,299.5C 243.649,301.019 242.149,302.352 240.5,303.5C 242.508,307.229 243.008,311.229 242,315.5C 241,316.833 240,316.833 239,315.5C 237.114,318.242 234.614,319.909 231.5,320.5C 231.579,321.93 231.246,323.264 230.5,324.5C 232.287,325.316 233.954,326.316 235.5,327.5C 235.296,326.471 235.796,325.471 237,324.5C 237.5,325 238,325.5 238.5,326C 237.57,327.395 237.57,328.895 238.5,330.5C 238.444,331.737 237.944,332.737 237,333.5C 236,332.167 235,330.833 234,329.5C 232.691,331.976 230.858,333.976 228.5,335.5C 229.747,337.042 229.747,338.542 228.5,340C 230.047,340.333 231.38,339.833 232.5,338.5C 233.5,338.833 234.167,339.5 234.5,340.5C 232.593,343.709 230.093,346.375 227,348.5C 228.343,351.799 227.176,353.466 223.5,353.5C 223.185,355.226 223.019,356.893 223,358.5C 225.682,361.35 228.516,364.016 231.5,366.5C 229.677,368.158 228.01,369.991 226.5,372C 227.517,373.049 227.684,374.216 227,375.5C 225.018,376.094 223.184,377.26 221.5,379C 225.435,381.462 225.102,383.462 220.5,385C 222.615,385.424 223.448,386.591 223,388.5C 219.589,391.415 215.756,393.581 211.5,395C 212.833,396 212.833,397 211.5,398C 213.081,398.707 214.581,399.54 216,400.5C 218.333,399.167 220.667,399.167 223,400.5C 223.667,401.5 223.667,402.5 223,403.5C 221.167,404.667 219.667,406.167 218.5,408C 217.451,408.492 216.451,408.326 215.5,407.5C 214.152,409.611 214.485,411.445 216.5,413C 215.249,415.925 214.249,418.925 213.5,422C 216.646,424.906 220.313,426.74 224.5,427.5C 224.5,427.833 224.5,428.167 224.5,428.5C 224.771,433.913 224.271,439.246 223,444.5C 221.989,445.337 220.822,445.67 219.5,445.5C 218.612,448.522 218.279,451.522 218.5,454.5C 219.167,455.5 219.833,456.5 220.5,457.5C 219.553,459.059 218.887,460.726 218.5,462.5C 219.874,464.577 221.54,466.411 223.5,468C 222.924,469.714 221.757,470.881 220,471.5C 219.578,473.355 219.078,475.189 218.5,477C 221.344,479.181 224.178,481.347 227,483.5C 227.667,485.5 227.667,487.5 227,489.5C 225.391,490.147 223.891,490.98 222.5,492C 226.266,490.745 228.099,492.245 228,496.5C 229.147,495.542 230.147,495.875 231,497.5C 233.701,505.353 231.867,511.853 225.5,517C 223.404,518.766 221.071,520.099 218.5,521C 219.999,524.43 222.666,526.43 226.5,527C 227.833,529 227.833,531 226.5,533C 224.925,532.621 223.425,532.788 222,533.5C 221.722,537.194 221.722,540.861 222,544.5C 220.104,545.68 218.604,547.18 217.5,549C 217.645,549.772 217.978,550.439 218.5,551C 221.171,552.544 224.004,553.71 227,554.5C 227.667,558.167 227.667,561.833 227,565.5C 225.833,566.667 224.667,567.833 223.5,569C 224.743,570.154 225.743,571.488 226.5,573C 230.841,573.471 233.007,575.971 233,580.5C 234.17,577.33 236.003,576.83 238.5,579C 237.13,580.441 236.13,582.108 235.5,584C 234.551,584.617 233.718,584.451 233,583.5C 232.161,586.14 232.661,588.473 234.5,590.5C 226.953,597.57 228.287,600.736 238.5,600C 240.819,604.523 239.652,608.356 235,611.5C 234.333,610.833 233.667,610.167 233,609.5C 232.289,611.367 232.789,612.867 234.5,614C 232.312,616.602 230.479,619.435 229,622.5C 228.666,624.847 228.833,627.181 229.5,629.5C 152.833,629.5 76.1667,629.5 -0.5,629.5C -0.5,419.5 -0.5,209.5 -0.5,-0.5 Z" fill="white" /></svg>