<?xml version="1.0" encoding="utf-8" ?>
<svg baseProfile="tiny" height="100%" version="1.2" width="100%" xmlns="http://www.w3.org/2000/svg" xmlns:ev="http://www.w3.org/2001/xml-events" xmlns:xlink="http://www.w3.org/1999/xlink"><defs /><path d="M 224.5,428.5 C 227.326,429.136 227.992,430.636 226.5,433C 227.851,435.677 229.184,438.343 230.5,441C 225.815,448.849 226.148,456.516 231.5,464C 229.975,467.573 228.642,471.24 227.5,475C 228.818,476.99 230.152,478.99 231.5,481C 231.043,481.414 230.709,481.914 230.5,482.5C 231.372,488.408 234.372,492.908 239.5,496C 238.521,497.779 238.854,499.445 240.5,501C 238.601,504.681 239.601,507.181 243.5,508.5C 252.601,506.661 259.268,510.161 263.5,519C 262.191,525.111 262.191,531.278 263.5,537.5C 270.411,540.121 272.411,544.954 269.5,552C 271.58,555.237 273.08,558.737 274,562.5C 275.512,563.257 276.846,564.257 278,565.5C 279.511,568.824 280.011,572.157 279.5,575.5C 283.291,579.467 284.291,583.8 282.5,588.5C 284.346,591.501 286.346,594.335 288.5,597C 289.448,597.483 290.448,597.649 291.5,597.5C 290.844,599.484 290.178,601.484 289.5,603.5C 290.994,606.321 290.328,607.321 287.5,606.5C 286.131,608.124 284.464,608.624 282.5,608C 280.791,606.084 279.457,603.918 278.5,601.5C 277.5,600.833 276.5,600.167 275.5,599.5C 272.889,594.667 272.889,589.834 275.5,585C 274.197,581.045 271.531,579.712 267.5,581C 261.333,586.694 259.833,593.527 263,601.5C 265.786,604.888 269.119,607.554 273,609.5C 274.608,612.382 275.941,615.382 277,618.5C 280.81,621.475 283.644,625.142 285.5,629.5C 266.833,629.5 248.167,629.5 229.5,629.5C 228.833,627.181 228.666,624.847 229,622.5C 230.479,619.435 232.312,616.602 234.5,614C 232.789,612.867 232.289,611.367 233,609.5C 233.667,610.167 234.333,610.833 235,611.5C 239.652,608.356 240.819,604.523 238.5,600C 228.287,600.736 226.953,597.57 234.5,590.5C 232.661,588.473 232.161,586.14 233,583.5C 233.718,584.451 234.551,584.617 235.5,584C 236.13,582.108 237.13,580.441 238.5,579C 236.003,576.83 234.17,577.33 233,580.5C 233.007,575.971 230.841,573.471 226.5,573C 225.743,571.488 224.743,570.154 223.5,569C 224.667,567.833 225.833,566.667 227,565.5C 227.667,561.833 227.667,558.167 227,554.5C 224.004,553.71 221.171,552.544 218.5,551C 217.978,550.439 217.645,549.772 217.5,549C 218.604,547.18 220.104,545.68 222,544.5C 221.722,540.861 221.722,537.194 222,533.5C 223.425,532.788 224.925,532.621 226.5,533C 227.833,531 227.833,529 226.5,527C 222.666,526.43 219.999,524.43 218.5,521C 221.071,520.099 223.404,518.766 225.5,517C 231.867,511.853 233.701,505.353 231,497.5C 230.147,495.875 229.147,495.542 228,496.5C 228.099,492.245 226.266,490.745 222.5,492C 223.891,490.98 225.391,490.147 227,489.5C 227.667,487.5 227.667,485.5 227,483.5C 224.178,481.347 221.344,479.181 218.5,477C 219.078,475.189 219.578,473.355 220,471.5C 221.757,470.881 222.924,469.714 223.5,468C 221.54,466.411 219.874,464.577 218.5,462.5C 218.887,460.726 219.553,459.059 220.5,457.5C 219.833,456.5 219.167,455.5 218.5,454.5C 218.279,451.522 218.612,448.522 219.5,445.5C 220.822,445.67 221.989,445.337 223,444.5C 224.271,439.246 224.771,433.913 224.5,428.5 Z" fill="white" /></svg>