<?xml version="1.0" encoding="utf-8" ?>
<svg baseProfile="tiny" height="100%" version="1.2" width="100%" xmlns="http://www.w3.org/2000/svg" xmlns:ev="http://www.w3.org/2001/xml-events" xmlns:xlink="http://www.w3.org/1999/xlink"><defs /><path d="M 338.5,408.5 C 339.5,407.833 340.5,407.167 341.5,406.5C 342.601,407.598 343.934,407.765 345.5,407C 347.921,403.689 349.921,403.855 351.5,407.5C 349.589,411.045 349.256,414.545 350.5,418C 359.076,419.931 367.409,423.097 375.5,427.5C 375.383,429.484 376.05,431.15 377.5,432.5C 376.833,434.5 376.167,436.5 375.5,438.5C 376.85,439.95 378.516,440.617 380.5,440.5C 380.561,442.592 381.561,444.092 383.5,445C 383.167,445.333 382.833,445.667 382.5,446C 385.559,446.058 387.892,447.391 389.5,450C 388.91,453.003 388.577,456.003 388.5,459C 391.943,464.217 396.277,468.55 401.5,472C 401.167,472.333 400.833,472.667 400.5,473C 404.672,472.912 407.006,474.912 407.5,479C 411.768,480.467 415.768,482.467 419.5,485C 418.833,485.667 418.167,486.333 417.5,487C 418.906,489.445 420.24,491.945 421.5,494.5C 427.381,498.174 433.548,500.508 440,501.5C 442.106,505.274 444.606,508.774 447.5,512C 448.174,519.839 451.674,526.339 458,531.5C 459.897,536.727 463.23,540.727 468,543.5C 468.414,543.043 468.914,542.709 469.5,542.5C 470.894,545.651 470.727,548.651 469,551.5C 465.833,549.833 462.667,548.167 459.5,546.5C 458.827,542.965 457.327,542.632 455,545.5C 454.221,544.272 453.221,543.272 452,542.5C 441.342,543.919 435.009,538.919 433,527.5C 431.142,524.588 428.642,523.088 425.5,523C 422.056,525.807 418.223,527.973 414,529.5C 412.779,528.728 411.779,527.728 411,526.5C 409.66,517.822 406.16,510.156 400.5,503.5C 392.404,499.191 383.737,496.357 374.5,495C 372.693,493.398 370.693,492.064 368.5,491C 367.351,487.979 366.018,485.146 364.5,482.5C 363.671,477.198 363.171,471.864 363,466.5C 361.203,464.844 359.036,463.844 356.5,463.5C 355.424,461.013 354.09,458.68 352.5,456.5C 353.953,454.356 353.62,452.523 351.5,451C 353.467,448.564 355.134,446.064 356.5,443.5C 350.5,443.5 344.5,443.5 338.5,443.5C 338.34,441.801 338.506,440.134 339,438.5C 340.972,434.057 342.805,429.557 344.5,425C 343.077,423.588 343.244,422.421 345,421.5C 345.763,424.063 346.263,424.063 346.5,421.5C 346.518,419.627 346.018,419.294 345,420.5C 343.416,419.139 341.582,418.472 339.5,418.5C 339.747,415.061 339.414,411.728 338.5,408.5 Z" fill="white" /></svg>