<?xml version="1.0" encoding="utf-8" ?>
<svg baseProfile="tiny" height="100%" version="1.2" width="100%" xmlns="http://www.w3.org/2000/svg" xmlns:ev="http://www.w3.org/2001/xml-events" xmlns:xlink="http://www.w3.org/1999/xlink"><defs /><path d="M 637.5,25.5 C 640.59,31.7795 642.09,38.4461 642,45.5C 634.312,34.9558 625.645,33.9558 616,42.5C 610.834,49.4948 606.167,56.8282 602,64.5C 596.345,78.9698 590.845,93.4698 585.5,108C 585.458,112.299 585.625,116.799 586,121.5C 588.503,125.17 590.337,129.17 591.5,133.5C 592.438,134.553 593.605,135.22 595,135.5C 597.521,134.327 600.021,134.327 602.5,135.5C 603.853,136.524 604.52,137.857 604.5,139.5C 605.5,139.5 606.5,139.5 607.5,139.5C 607.97,134.982 609.137,130.649 611,126.5C 612.197,120.871 612.53,115.204 612,109.5C 609.718,106.432 606.884,103.932 603.5,102C 606.316,95.8614 610.482,91.0281 616,87.5C 616.772,83.1656 619.272,80.1656 623.5,78.5C 624.478,78.9767 625.311,79.6433 626,80.5C 628.158,79.1741 629.992,77.5075 631.5,75.5C 629.5,74.8333 627.5,74.1667 625.5,73.5C 626.919,71.6641 628.086,69.6641 629,67.5C 637.578,62.949 642.745,65.449 644.5,75C 643.264,83.6423 642.264,92.3089 641.5,101C 642.317,102.49 643.15,103.99 644,105.5C 645.741,117.424 644.908,129.424 641.5,141.5C 642.098,142.795 642.598,144.128 643,145.5C 645.444,147.754 647.611,150.087 649.5,152.5C 648.272,155.238 646.438,157.571 644,159.5C 644.354,169.72 648.854,177.72 657.5,183.5C 659.038,185.243 660.038,187.243 660.5,189.5C 659.425,195.386 657.758,201.053 655.5,206.5C 656.433,210.297 657.766,213.964 659.5,217.5C 656.208,226.741 656.875,235.574 661.5,244C 661.031,246.196 660.031,248.029 658.5,249.5C 656.571,249.769 654.905,249.269 653.5,248C 654.527,244.736 653.694,241.903 651,239.5C 646.798,241.651 646.464,244.317 650,247.5C 652.002,253.495 650.169,256.495 644.5,256.5C 643.811,258.444 643.311,260.444 643,262.5C 641.274,263.576 639.441,263.743 637.5,263C 634.155,259.132 630.488,255.966 626.5,253.5C 626.671,251.007 625.671,249.174 623.5,248C 620.007,246.996 616.841,247.496 614,249.5C 612.915,248.707 611.748,248.04 610.5,247.5C 606.825,247.997 603.325,248.997 600,250.5C 592.785,244.851 585.118,244.184 577,248.5C 573.279,247.057 569.779,245.223 566.5,243C 564.5,242.333 562.5,242.333 560.5,243C 559.017,246.923 557.684,250.923 556.5,255C 554.612,256.394 553.279,258.227 552.5,260.5C 541.826,265.334 530.826,269.334 519.5,272.5C 517.971,272.471 516.804,271.804 516,270.5C 514.798,262.686 514.798,255.02 516,247.5C 516.487,244.202 517.653,241.202 519.5,238.5C 523.274,236.229 526.607,233.396 529.5,230C 526.978,229.043 524.811,227.543 523,225.5C 520.682,222.214 518.349,218.88 516,215.5C 515.439,216.022 514.772,216.355 514,216.5C 510.766,213.469 508.266,213.969 506.5,218C 502.964,219.023 499.464,220.857 496,223.5C 495.439,222.978 494.772,222.645 494,222.5C 490.778,224.705 487.278,225.539 483.5,225C 479.59,218.548 473.923,216.215 466.5,218C 458.41,224.815 449.243,226.981 439,224.5C 431.709,225.129 427.209,228.962 425.5,236C 428.269,239.372 430.102,243.205 431,247.5C 438.364,246.779 444.031,249.779 448,256.5C 448.999,263.833 449.832,271.166 450.5,278.5C 450.167,279.167 449.833,279.833 449.5,280.5C 450.908,281.243 452.241,282.077 453.5,283C 453.167,283.333 452.833,283.667 452.5,284C 453.692,285.912 454.692,287.912 455.5,290C 457.807,290.309 459.974,291.142 462,292.5C 464.804,296.443 466.804,300.777 468,305.5C 469.513,308.524 471.513,311.191 474,313.5C 482.283,313.124 490.117,310.624 497.5,306C 500.212,302.722 501.879,298.889 502.5,294.5C 508.136,291.612 511.636,286.945 513,280.5C 514.441,279.74 515.941,279.074 517.5,278.5C 523.607,282.702 527.773,288.369 530,295.5C 532.615,299.783 535.615,303.783 539,307.5C 539.559,313.738 541.059,319.738 543.5,325.5C 541.489,334.306 544.823,340.139 553.5,343C 554.252,343.671 554.586,344.504 554.5,345.5C 550.818,345.335 547.152,345.501 543.5,346C 542.869,348.312 542.869,350.812 543.5,353.5C 543.144,356.115 541.811,357.948 539.5,359C 540.5,359.833 541.5,360.667 542.5,361.5C 539.713,368.56 537.38,375.727 535.5,383C 536.116,386.863 536.95,390.696 538,394.5C 541.14,398.061 544.473,401.395 548,404.5C 548.837,407.85 549.337,411.016 549.5,414C 547.888,415.482 546.888,417.315 546.5,419.5C 542.768,418.59 539.101,418.423 535.5,419C 534.313,417.981 533.313,416.814 532.5,415.5C 532.417,413.264 532.75,410.93 533.5,408.5C 525.783,406.358 520.45,409.025 517.5,416.5C 517.167,416.5 516.833,416.5 516.5,416.5C 508.866,412.171 505.033,405.505 505,396.5C 502.546,391.674 498.712,388.34 493.5,386.5C 489.833,388.667 486.167,390.833 482.5,393C 476.945,392.987 471.612,393.987 466.5,396C 462.054,400.446 457.554,404.946 453,409.5C 451.906,411.078 451.072,412.745 450.5,414.5C 448.5,415.5 446.5,416.5 444.5,417.5C 443.71,416.206 442.71,415.039 441.5,414C 439,413.625 436.667,412.792 434.5,411.5C 433.026,412.436 432.026,413.77 431.5,415.5C 430.311,416.429 428.978,416.762 427.5,416.5C 427.623,411.67 429.123,407.337 432,403.5C 434.208,394.753 436.041,385.92 437.5,377C 436.397,368.628 435.397,360.294 434.5,352C 434.957,351.586 435.291,351.086 435.5,350.5C 434.846,348.885 434.346,347.218 434,345.5C 433.107,344.919 432.107,344.585 431,344.5C 426.44,345.946 422.106,347.946 418,350.5C 416.541,350.192 415.374,349.525 414.5,348.5C 414.5,348.167 414.5,347.833 414.5,347.5C 421.43,344.39 428.264,341.057 435,337.5C 435.862,335.913 436.529,334.246 437,332.5C 437.812,325.253 437.646,318.086 436.5,311C 439.527,303.781 443.694,297.281 449,291.5C 450.128,289.655 450.628,287.655 450.5,285.5C 440.086,281.693 433.586,274.359 431,263.5C 428.713,260.688 425.879,258.688 422.5,257.5C 421.258,255.267 419.924,253.101 418.5,251C 409.124,250.816 399.791,250.15 390.5,249C 383.041,243.005 376.374,244.005 370.5,252C 367.036,253.242 363.536,254.409 360,255.5C 358.739,255.241 357.739,254.574 357,253.5C 356.103,249.438 354.103,246.105 351,243.5C 346.436,243.397 343.602,245.564 342.5,250C 345.235,253.139 346.901,256.806 347.5,261C 343.542,265.08 342.042,269.913 343,275.5C 346.707,281.454 351.207,286.62 356.5,291C 359.207,291.395 361.873,291.895 364.5,292.5C 365.791,292.263 366.791,292.596 367.5,293.5C 365.347,295.07 363.181,296.737 361,298.5C 360.833,299.333 360.667,300.167 360.5,301C 361.188,305.817 362.188,310.484 363.5,315C 363.658,319.599 362.325,323.599 359.5,327C 359.959,330.342 360.292,333.675 360.5,337C 358.984,338.897 358.317,341.064 358.5,343.5C 356.08,343.292 353.747,343.626 351.5,344.5C 349.15,343.139 346.816,341.806 344.5,340.5C 341.033,337.077 338.7,332.91 337.5,328C 338.395,323.458 338.395,318.792 337.5,314C 338.641,311.551 339.641,309.051 340.5,306.5C 338.013,302.848 335.346,299.348 332.5,296C 334.442,292.915 336.108,289.748 337.5,286.5C 337.305,283.11 335.805,280.443 333,278.5C 332.421,276.351 331.921,274.185 331.5,272C 333.039,264.871 334.539,257.704 336,250.5C 336.609,246.476 336.442,242.476 335.5,238.5C 334.856,232.436 337.356,228.436 343,226.5C 346.011,222.858 346.844,218.858 345.5,214.5C 347.948,211.674 349.615,208.34 350.5,204.5C 349.532,200.587 348.199,196.92 346.5,193.5C 346.5,191.833 346.5,190.167 346.5,188.5C 347.496,188.586 348.329,188.252 349,187.5C 352.184,182.47 355.851,177.804 360,173.5C 363.531,168.455 364.364,162.955 362.5,157C 362.796,153.613 363.796,150.446 365.5,147.5C 362.294,135.026 360.294,122.359 359.5,109.5C 362.31,102.723 362.476,96.0565 360,89.5C 356.754,79.432 359.921,76.2654 369.5,80C 373.167,84.3333 376.833,88.6667 380.5,93C 381.872,93.4017 383.205,93.9017 384.5,94.5C 385.274,98.714 387.107,102.381 390,105.5C 390.667,107.5 390.667,109.5 390,111.5C 386.147,112.958 382.147,113.958 378,114.5C 376.699,115.098 375.865,116.098 375.5,117.5C 379.711,128.926 384.211,140.259 389,151.5C 390.617,152.851 391.784,154.518 392.5,156.5C 397.226,159.634 399.56,158.301 399.5,152.5C 403.879,151.183 404.545,148.683 401.5,145C 403.338,137.742 408.005,133.742 415.5,133C 420.141,127.731 419.308,123.564 413,120.5C 407.464,108.087 402.464,95.4208 398,82.5C 391.083,67.1602 381.583,53.6602 369.5,42C 364.906,40.3728 360.239,40.2061 355.5,41.5C 355.508,38.4552 355.841,35.4552 356.5,32.5C 359.746,29.4232 362.413,25.9232 364.5,22C 366.833,21.3333 369.167,21.3333 371.5,22C 376.462,25.7515 380.629,30.2515 384,35.5C 393.584,50.3321 402.917,65.3321 412,80.5C 419.493,89.5428 427.659,98.0428 436.5,106C 438.078,107.094 439.745,107.928 441.5,108.5C 447.401,113.768 454.401,115.935 462.5,115C 471.108,118.296 479.942,120.796 489,122.5C 494.027,121.868 498.86,120.535 503.5,118.5C 532.299,127.624 556.132,120.291 575,96.5C 580.341,84.4656 585.675,72.4656 591,60.5C 598.132,49.0506 604.798,37.384 611,25.5C 613.729,22.6007 616.562,19.934 619.5,17.5C 621.792,17.7564 623.959,17.4231 626,16.5C 629.812,19.6404 633.645,22.6404 637.5,25.5 Z" fill="white" /></svg>