<?xml version="1.0" encoding="utf-8" ?>
<svg baseProfile="tiny" height="100%" version="1.2" width="100%" xmlns="http://www.w3.org/2000/svg" xmlns:ev="http://www.w3.org/2001/xml-events" xmlns:xlink="http://www.w3.org/1999/xlink"><defs /><path d="M 661.5,67.5 C 662.22,70.0601 663.887,71.8935 666.5,73C 664.948,80.6463 665.614,88.1463 668.5,95.5C 668.069,96.2935 667.735,97.1268 667.5,98C 668.185,100.795 668.685,103.628 669,106.5C 670,107.833 671,107.833 672,106.5C 672.699,108.074 672.365,109.407 671,110.5C 670.086,109.346 669.253,109.513 668.5,111C 669.552,112.119 670.719,112.619 672,112.5C 672.829,117.533 672.662,122.533 671.5,127.5C 670.672,123.204 670.172,118.871 670,114.5C 668.853,113.542 667.853,113.875 667,115.5C 666.045,120.889 666.545,126.056 668.5,131C 667.241,133.527 666.241,136.194 665.5,139C 666.881,142.063 668.714,144.896 671,147.5C 671.248,151.61 671.415,155.61 671.5,159.5C 669.453,164.245 668.953,169.245 670,174.5C 673.907,178.616 674.574,183.283 672,188.5C 669.143,190.905 667.976,193.738 668.5,197C 671.63,200.754 674.13,204.921 676,209.5C 677,210.833 678,210.833 679,209.5C 679.333,211.167 679.667,212.833 680,214.5C 681,215.833 682,215.833 683,214.5C 683.99,218.444 683.49,222.111 681.5,225.5C 683.251,230.083 686.251,233.583 690.5,236C 687.659,239.159 688.326,241.492 692.5,243C 692.167,243.333 691.833,243.667 691.5,244C 694.044,247.46 696.378,250.96 698.5,254.5C 697.145,255.675 697.312,256.675 699,257.5C 700.246,256.228 701.413,255.895 702.5,256.5C 700.988,257.249 699.988,258.416 699.5,260C 703.884,264.099 707.55,268.766 710.5,274C 711.127,277.099 711.127,280.266 710.5,283.5C 711.5,283.5 712.5,283.5 713.5,283.5C 713.335,286.518 713.502,289.518 714,292.5C 715.517,296.156 717.35,299.99 719.5,304C 718.192,304.824 716.692,305.324 715,305.5C 713.132,310.264 713.632,314.764 716.5,319C 713.491,318.84 711.325,320.007 710,322.5C 708.636,321.742 707.469,322.242 706.5,324C 707.178,331.683 707.178,339.517 706.5,347.5C 705.448,347.351 704.448,347.517 703.5,348C 698.878,351.683 698.378,355.85 702,360.5C 702.435,365.184 702.935,369.851 703.5,374.5C 700.09,374.384 698.756,376.05 699.5,379.5C 695.527,380.075 694.527,382.242 696.5,386C 699.536,385.143 700.202,386.31 698.5,389.5C 699.09,390.799 700.09,391.632 701.5,392C 698.085,393.143 697.751,394.81 700.5,397C 697.833,398.667 697.833,400.333 700.5,402C 702.876,401.577 705.043,402.411 707,404.5C 707.373,406.698 707.873,408.865 708.5,411C 707.65,412.286 706.483,412.119 705,410.5C 701.513,414.225 701.68,417.725 705.5,421C 704.91,422.509 704.244,424.009 703.5,425.5C 702.522,425.023 701.689,424.357 701,423.5C 699.054,424.994 698.221,426.994 698.5,429.5C 698.082,432.271 699.082,434.271 701.5,435.5C 702.329,440.802 702.829,446.136 703,451.5C 703.667,452.833 704.333,452.833 705,451.5C 705.667,455.167 705.667,458.833 705,462.5C 703.844,461.007 703.01,461.174 702.5,463C 707.144,469.447 706.144,474.78 699.5,479C 702.286,481.34 703.953,484.34 704.5,488C 701.866,490.915 701.866,493.748 704.5,496.5C 705.492,500.783 705.826,505.116 705.5,509.5C 704.5,509.5 703.5,509.5 702.5,509.5C 702.5,511.167 702.5,512.833 702.5,514.5C 706.135,514.656 706.468,515.822 703.5,518C 707.284,521.914 707.284,525.748 703.5,529.5C 704.579,531.543 706.246,532.876 708.5,533.5C 710.024,537.27 709.691,540.77 707.5,544C 709.167,545.167 710.833,546.333 712.5,547.5C 715.397,551.364 714.897,554.697 711,557.5C 711.032,564.066 712.866,564.733 716.5,559.5C 716.833,560.333 717.167,561.167 717.5,562C 717.502,565.733 717.169,569.567 716.5,573.5C 714.821,574.782 712.987,575.782 711,576.5C 710.517,577.448 710.351,578.448 710.5,579.5C 713.793,581.096 717.126,582.762 720.5,584.5C 718.495,585.337 717.495,586.837 717.5,589C 718.164,591.166 719.164,593.166 720.5,595C 720.294,596.865 719.628,598.532 718.5,600C 720.898,604.557 721.732,609.391 721,614.5C 717.595,615.468 717.095,616.968 719.5,619C 716.833,620.333 716.833,621.667 719.5,623C 723.325,623.706 726.992,624.872 730.5,626.5C 731.386,627.325 731.719,628.325 731.5,629.5C 703.5,629.5 675.5,629.5 647.5,629.5C 647.259,625.197 646.092,621.197 644,617.5C 642.509,615.996 640.676,615.163 638.5,615C 634.94,610.964 634.607,606.631 637.5,602C 636.699,597.477 636.365,592.811 636.5,588C 637.539,579.521 638.372,571.021 639,562.5C 641.715,558.404 643.881,554.071 645.5,549.5C 644.067,545.442 642.734,541.276 641.5,537C 642.348,534.23 642.681,531.397 642.5,528.5C 643.222,528.918 643.722,529.584 644,530.5C 644.333,533.833 644.667,537.167 645,540.5C 645.869,543.394 647.702,544.561 650.5,544C 650.167,543.667 649.833,543.333 649.5,543C 651.5,542.333 652.833,541 653.5,539C 654.793,538.51 656.127,538.343 657.5,538.5C 657.579,537.07 657.246,535.736 656.5,534.5C 658.5,533.833 660.5,533.167 662.5,532.5C 659.972,531.483 659.972,530.316 662.5,529C 660.445,528.313 658.779,527.146 657.5,525.5C 657.977,524.522 658.643,523.689 659.5,523C 656.833,522 656.833,521 659.5,520C 656.937,519.237 656.937,518.737 659.5,518.5C 661.583,519.959 663.75,521.292 666,522.5C 667.398,521.949 668.732,521.616 670,521.5C 671.951,523.137 671.784,524.637 669.5,526C 674.452,528.63 678.785,531.963 682.5,536C 681.359,536.741 681.359,537.575 682.5,538.5C 680.257,539.474 677.924,539.808 675.5,539.5C 675.946,546.266 679.613,550.266 686.5,551.5C 686.977,552.478 687.643,553.311 688.5,554C 687.167,555 687.167,556 688.5,557C 695.946,561.775 699.113,559.942 698,551.5C 696.649,549.981 695.149,548.648 693.5,547.5C 695.439,545.878 695.772,544.044 694.5,542C 695.13,540.108 696.13,538.441 697.5,537C 697.043,536.586 696.709,536.086 696.5,535.5C 698.633,532.852 699.966,530.185 700.5,527.5C 699.088,526.194 697.421,525.36 695.5,525C 691.313,524.929 687.313,524.262 683.5,523C 688.548,522.522 692.881,520.522 696.5,517C 695.303,512.78 693.636,508.446 691.5,504C 693.324,501.133 695.49,498.633 698,496.5C 699.411,494.35 700.245,492.016 700.5,489.5C 698.833,489.5 697.167,489.5 695.5,489.5C 695.318,487.325 694.651,485.325 693.5,483.5C 693.795,480.568 695.295,478.568 698,477.5C 698.167,476.5 698.333,475.5 698.5,474.5C 697.221,471.53 695.888,468.53 694.5,465.5C 695.689,462.957 697.022,460.457 698.5,458C 697.671,456.184 696.837,454.351 696,452.5C 695.977,446.818 695.144,441.318 693.5,436C 694.687,434.981 695.687,433.814 696.5,432.5C 695.167,430.833 695.167,429.167 696.5,427.5C 695.833,426.167 695.167,424.833 694.5,423.5C 697.08,421.287 697.08,419.12 694.5,417C 694.833,416.667 695.167,416.333 695.5,416C 692.129,415.826 691.129,414.326 692.5,411.5C 690.169,408.058 688.836,404.224 688.5,400C 688.95,398.715 689.617,397.548 690.5,396.5C 688.35,394.078 688.017,391.411 689.5,388.5C 688.855,387.354 688.022,386.354 687,385.5C 686.398,381.117 685.565,376.784 684.5,372.5C 680.648,366.396 674.981,363.063 667.5,362.5C 665.432,362.967 663.432,363.634 661.5,364.5C 660.717,367.548 660.717,370.381 661.5,373C 659.875,373.853 659.542,374.853 660.5,376C 657.888,376.639 655.554,377.806 653.5,379.5C 654.313,380.814 655.313,381.981 656.5,383C 654.78,386.086 655.447,388.419 658.5,390C 655.067,392.113 651.401,393.78 647.5,395C 646.107,396.171 645.273,397.671 645,399.5C 643.229,400.304 641.729,401.471 640.5,403C 644.643,411.59 641.976,415.923 632.5,416C 623.666,420.876 623.166,426.71 631,433.5C 631.483,434.448 631.649,435.448 631.5,436.5C 629.396,436.201 627.396,436.534 625.5,437.5C 623.103,439.53 620.437,441.197 617.5,442.5C 614.783,446.1 612.45,449.933 610.5,454C 610.903,456.641 611.903,458.974 613.5,461C 609.78,462.227 606.78,464.393 604.5,467.5C 602.337,468.281 602.004,467.447 603.5,465C 601.913,464.138 600.246,463.471 598.5,463C 603.633,462.956 605.299,460.622 603.5,456C 604.667,454.833 605.833,453.667 607,452.5C 608.962,445.98 610.296,439.313 611,432.5C 611.707,430.919 612.54,429.419 613.5,428C 616.249,426.877 618.749,425.377 621,423.5C 622.931,416.57 627.265,411.903 634,409.5C 635.105,405.877 636.105,402.21 637,398.5C 640.247,394.341 643.247,390.008 646,385.5C 648.213,373.193 652.213,361.526 658,350.5C 656.043,341.399 655.043,332.065 655,322.5C 652.358,317.303 653.025,312.303 657,307.5C 657.494,305.866 657.66,304.199 657.5,302.5C 658.058,300.407 659.391,298.907 661.5,298C 661.06,295.838 660.727,293.671 660.5,291.5C 664.526,289.316 664.193,287.816 659.5,287C 660.766,286.691 661.933,286.191 663,285.5C 665.762,282.285 667.595,278.951 668.5,275.5C 666.768,273.201 665.434,270.701 664.5,268C 665.91,267.632 666.91,266.799 667.5,265.5C 666.147,264.476 665.48,263.143 665.5,261.5C 667.564,261.313 669.564,260.813 671.5,260C 672.517,258.951 672.684,257.784 672,256.5C 670.341,255.183 669.174,253.517 668.5,251.5C 665.023,250.833 661.689,250.166 658.5,249.5C 660.031,248.029 661.031,246.196 661.5,244C 656.875,235.574 656.208,226.741 659.5,217.5C 657.766,213.964 656.433,210.297 655.5,206.5C 657.758,201.053 659.425,195.386 660.5,189.5C 662.768,184.349 664.102,178.849 664.5,173C 661.918,159.588 659.918,146.088 658.5,132.5C 658.717,126.965 659.884,121.631 662,116.5C 662.303,105.656 662.803,94.8225 663.5,84C 663.136,78.5137 662.136,73.1804 660.5,68C 660.728,67.6012 661.062,67.4346 661.5,67.5 Z" fill="white" /></svg>