<?xml version="1.0" encoding="utf-8" ?>
<svg baseProfile="tiny" height="100%" version="1.2" width="100%" xmlns="http://www.w3.org/2000/svg" xmlns:ev="http://www.w3.org/2001/xml-events" xmlns:xlink="http://www.w3.org/1999/xlink"><defs /><path d="M 346.5,193.5 C 348.199,196.92 349.532,200.587 350.5,204.5C 349.615,208.34 347.948,211.674 345.5,214.5C 344.372,219.173 341.705,223.006 337.5,226C 337.833,226.333 338.167,226.667 338.5,227C 333.021,229.099 330.021,232.766 329.5,238C 327.56,241.412 326.227,245.079 325.5,249C 326.022,249.561 326.355,250.228 326.5,251C 325.022,254.439 323.355,257.772 321.5,261C 322.227,263.124 322.894,265.291 323.5,267.5C 323.393,270.06 323.393,272.56 323.5,275C 321.729,278.647 320.562,282.48 320,286.5C 315.597,289.734 312.097,293.734 309.5,298.5C 304.664,299.284 300.33,301.117 296.5,304C 296.833,304.333 297.167,304.667 297.5,305C 295.106,306.952 293.606,309.452 293,312.5C 290.184,316.717 286.184,318.717 281,318.5C 276.93,318.529 272.764,318.362 268.5,318C 268.167,318.333 267.833,318.667 267.5,319C 268.5,319.333 269.5,319.667 270.5,320C 269.549,320.718 269.383,321.551 270,322.5C 271.816,323.329 273.649,324.163 275.5,325C 274.443,327.339 273.11,329.505 271.5,331.5C 271.833,332.167 272.167,332.833 272.5,333.5C 269.553,334.321 266.553,334.821 263.5,335C 260.632,336.935 259.799,339.435 261,342.5C 259.167,343.667 257.333,344.833 255.5,346C 256.711,347.113 256.711,348.28 255.5,349.5C 253.33,351.086 250.996,352.42 248.5,353.5C 247.796,356.704 247.13,359.871 246.5,363C 248.09,364.046 249.59,365.213 251,366.5C 251.617,367.449 251.451,368.282 250.5,369C 253,369.5 255.5,370 258,370.5C 260.658,368.365 264.324,367.032 269,366.5C 271.099,367.287 273.266,367.62 275.5,367.5C 275.705,371.231 274.371,374.231 271.5,376.5C 271.709,377.086 272.043,377.586 272.5,378C 270.51,379.751 268.177,380.751 265.5,381C 265.833,381.333 266.167,381.667 266.5,382C 264.741,382.798 263.074,382.631 261.5,381.5C 265.361,380.402 265.361,379.569 261.5,379C 260.222,374.098 257.888,373.432 254.5,377C 253.207,377.49 251.873,377.657 250.5,377.5C 250.191,380.346 248.525,381.846 245.5,382C 242.281,386.589 243.115,390.089 248,392.5C 254.66,391.377 261.16,389.71 267.5,387.5C 268.5,387.833 269.5,388.167 270.5,388.5C 270.291,389.086 269.957,389.586 269.5,390C 271,391.115 272.667,391.948 274.5,392.5C 275.245,394.747 276.578,396.58 278.5,398C 277.359,398.741 277.359,399.575 278.5,400.5C 276.954,401.684 275.287,402.684 273.5,403.5C 276.961,405.744 280.628,407.577 284.5,409C 280.542,407.633 277.209,408.633 274.5,412C 275.399,413.236 276.566,414.07 278,414.5C 279.667,413.5 281.333,412.5 283,411.5C 285.434,412.322 287.934,412.656 290.5,412.5C 290.822,414.722 290.155,416.556 288.5,418C 291.818,418.879 295.152,419.713 298.5,420.5C 298.709,421.086 299.043,421.586 299.5,422C 291.701,429.586 293.368,433.919 304.5,435C 303.289,436.113 303.289,437.28 304.5,438.5C 303.289,439.874 302.289,441.374 301.5,443C 301.645,443.772 301.978,444.439 302.5,445C 297.63,447.007 298.296,448.007 304.5,448C 306.657,449.912 308.991,451.579 311.5,453C 308.904,454.797 309.237,456.131 312.5,457C 311.446,458.388 311.28,459.888 312,461.5C 314.781,462.947 317.281,464.78 319.5,467C 318.359,467.741 318.359,468.575 319.5,469.5C 318.09,471.934 316.59,474.268 315,476.5C 314.316,478.479 314.816,480.146 316.5,481.5C 316.291,482.086 315.957,482.586 315.5,483C 319.868,486.034 323.534,489.701 326.5,494C 328.066,494.3 329.399,493.8 330.5,492.5C 331.091,493.151 331.757,493.818 332.5,494.5C 330.276,500.128 332.276,502.961 338.5,503C 340.16,504.488 341.16,506.321 341.5,508.5C 343.895,516.617 346.729,524.617 350,532.5C 358.113,535.862 358.446,539.529 351,543.5C 350.667,543.167 350.333,542.833 350,542.5C 347.876,543.227 345.709,543.894 343.5,544.5C 342.201,543.91 341.368,542.91 341,541.5C 336.959,545.792 337.126,550.125 341.5,554.5C 342.706,555.88 342.373,557.047 340.5,558C 333.727,560.054 328.727,558.054 325.5,552C 322.438,551.259 319.438,551.425 316.5,552.5C 312.905,551.016 309.238,550.183 305.5,550C 300.855,554.031 298.688,559.197 299,565.5C 298.759,570.705 298.259,575.872 297.5,581C 297.946,582.726 298.779,584.226 300,585.5C 300.667,587.167 300.667,588.833 300,590.5C 297.634,593.363 294.8,595.696 291.5,597.5C 290.448,597.649 289.448,597.483 288.5,597C 286.346,594.335 284.346,591.501 282.5,588.5C 284.291,583.8 283.291,579.467 279.5,575.5C 280.011,572.157 279.511,568.824 278,565.5C 276.846,564.257 275.512,563.257 274,562.5C 273.08,558.737 271.58,555.237 269.5,552C 272.411,544.954 270.411,540.121 263.5,537.5C 262.191,531.278 262.191,525.111 263.5,519C 259.268,510.161 252.601,506.661 243.5,508.5C 239.601,507.181 238.601,504.681 240.5,501C 238.854,499.445 238.521,497.779 239.5,496C 234.372,492.908 231.372,488.408 230.5,482.5C 230.709,481.914 231.043,481.414 231.5,481C 230.152,478.99 228.818,476.99 227.5,475C 228.642,471.24 229.975,467.573 231.5,464C 226.148,456.516 225.815,448.849 230.5,441C 229.184,438.343 227.851,435.677 226.5,433C 227.992,430.636 227.326,429.136 224.5,428.5C 224.5,428.167 224.5,427.833 224.5,427.5C 225.738,427.19 225.738,426.69 224.5,426C 223.167,425.667 221.833,425.333 220.5,425C 222.355,418.456 225.189,412.29 229,406.5C 229.589,402.399 230.755,398.566 232.5,395C 231.167,394 229.833,393 228.5,392C 230.652,389.531 232.152,386.698 233,383.5C 236.397,381.442 238.063,378.442 238,374.5C 240.382,372.741 242.548,370.741 244.5,368.5C 242.525,367.251 242.191,365.751 243.5,364C 241.919,363.293 240.419,362.46 239,361.5C 238.508,360.451 238.674,359.451 239.5,358.5C 237.988,357.751 236.988,356.584 236.5,355C 239.244,349.278 242.577,343.445 246.5,337.5C 246.167,336.833 245.833,336.167 245.5,335.5C 246.76,334.618 247.926,333.618 249,332.5C 250.112,325.946 253.112,320.28 258,315.5C 258.743,313.559 258.576,311.726 257.5,310C 259.599,307.591 261.266,304.924 262.5,302C 262.167,301.667 261.833,301.333 261.5,301C 263.09,299.954 264.59,298.787 266,297.5C 266.308,289.528 270.141,284.028 277.5,281C 277.043,280.586 276.709,280.086 276.5,279.5C 278.521,276.14 278.521,272.974 276.5,270C 276.982,268.992 277.148,267.825 277,266.5C 281.913,261.683 285.58,256.016 288,249.5C 295.317,240.518 303.65,232.518 313,225.5C 313.894,223.021 314.227,220.688 314,218.5C 324.628,209.784 335.461,201.451 346.5,193.5 Z" fill="white" /></svg>