<?xml version="1.0" encoding="utf-8" ?>
<svg baseProfile="tiny" height="100%" version="1.2" width="100%" xmlns="http://www.w3.org/2000/svg" xmlns:ev="http://www.w3.org/2001/xml-events" xmlns:xlink="http://www.w3.org/1999/xlink"><defs /><path d="M 414.5,347.5 C 414.5,347.833 414.5,348.167 414.5,348.5C 399.925,350.444 391.092,344.11 388,329.5C 386.774,318.154 384.107,307.154 380,296.5C 376.5,292.75 372.334,291.75 367.5,293.5C 366.791,292.596 365.791,292.263 364.5,292.5C 366.871,291.009 369.538,290.009 372.5,289.5C 376.925,291.46 381.092,293.794 385,296.5C 387.333,294.268 389.667,291.935 392,289.5C 392.333,288.167 392.667,286.833 393,285.5C 395.527,284.274 397.694,282.608 399.5,280.5C 403.221,278.757 406.388,279.424 409,282.5C 409.107,285.131 409.273,287.631 409.5,290C 408.833,290.667 408.167,291.333 407.5,292C 405.156,291.232 402.823,290.065 400.5,288.5C 399.692,288.808 399.025,289.308 398.5,290C 399.303,294.414 399.803,298.914 400,303.5C 401.328,305.022 401.162,306.689 399.5,308.5C 401.538,311.211 401.538,313.711 399.5,316C 400.897,321.273 402.23,326.273 403.5,331C 403.266,332.732 402.266,333.566 400.5,333.5C 393.804,331.397 392.804,333.397 397.5,339.5C 403.389,341.947 409.055,344.614 414.5,347.5 Z" fill="white" /></svg>