<?xml version="1.0" encoding="utf-8" ?>
<svg baseProfile="tiny" height="100%" version="1.2" width="100%" xmlns="http://www.w3.org/2000/svg" xmlns:ev="http://www.w3.org/2001/xml-events" xmlns:xlink="http://www.w3.org/1999/xlink"><defs /><path d="M 619.5,17.5 C 616.562,19.934 613.729,22.6007 611,25.5C 604.798,37.384 598.132,49.0506 591,60.5C 585.675,72.4656 580.341,84.4656 575,96.5C 556.132,120.291 532.299,127.624 503.5,118.5C 498.86,120.535 494.027,121.868 489,122.5C 479.942,120.796 471.108,118.296 462.5,115C 454.401,115.935 447.401,113.768 441.5,108.5C 446.068,106.32 450.902,104.987 456,104.5C 459.609,107.515 463.442,108.015 467.5,106C 466.832,101.67 466.832,97.1695 467.5,92.5C 467.61,90.626 466.944,89.126 465.5,88C 466.167,87.8333 466.833,87.6667 467.5,87.5C 471.641,90.4142 475.641,93.5809 479.5,97C 481.952,97.2895 484.285,97.9562 486.5,99C 493.738,98.5752 500.738,99.7418 507.5,102.5C 513.385,100.26 519.385,100.093 525.5,102C 527.327,102.899 528.66,104.233 529.5,106C 527.093,108.092 527.093,110.092 529.5,112C 526.921,113.612 526.921,115.112 529.5,116.5C 530.548,115.617 531.715,114.95 533,114.5C 534.789,115.409 536.623,115.576 538.5,115C 542.299,111.584 546.632,110.25 551.5,111C 552.805,108.852 554.638,107.352 557,106.5C 557.92,103.899 558.587,101.232 559,98.5C 559.615,100.116 560.615,101.449 562,102.5C 563.572,99.8101 565.572,97.4767 568,95.5C 570.742,88.9495 574.409,82.9495 579,77.5C 580.258,73.2708 581.925,69.2708 584,65.5C 585,64.5 586,63.5 587,62.5C 589.683,56.8101 592.516,51.1435 595.5,45.5C 595.291,44.914 594.957,44.414 594.5,44C 597.642,42.5496 599.308,40.0496 599.5,36.5C 601.474,34.2923 603.307,31.959 605,29.5C 605.49,28.2068 605.657,26.8734 605.5,25.5C 608.694,25.8244 609.694,24.6578 608.5,22C 612.067,20.2687 615.734,18.7687 619.5,17.5 Z" fill="white" /></svg>