<?xml version="1.0" encoding="utf-8" ?>
<svg baseProfile="tiny" height="100%" version="1.2" width="100%" xmlns="http://www.w3.org/2000/svg" xmlns:ev="http://www.w3.org/2001/xml-events" xmlns:xlink="http://www.w3.org/1999/xlink"><defs /><path d="M 339.5,89.5 C 341.072,93.0264 342.572,96.693 344,100.5C 345.749,111.909 347.749,123.242 350,134.5C 350.667,140.167 350.667,145.833 350,151.5C 347.554,158.842 344.72,166.009 341.5,173C 342.951,178.328 344.618,183.495 346.5,188.5C 346.5,190.167 346.5,191.833 346.5,193.5C 335.461,201.451 324.628,209.784 314,218.5C 314.227,220.688 313.894,223.021 313,225.5C 303.65,232.518 295.317,240.518 288,249.5C 285.58,256.016 281.913,261.683 277,266.5C 277.148,267.825 276.982,268.992 276.5,270C 278.521,272.974 278.521,276.14 276.5,279.5C 276.709,280.086 277.043,280.586 277.5,281C 270.141,284.028 266.308,289.528 266,297.5C 264.59,298.787 263.09,299.954 261.5,301C 261.833,301.333 262.167,301.667 262.5,302C 261.266,304.924 259.599,307.591 257.5,310C 258.576,311.726 258.743,313.559 258,315.5C 253.112,320.28 250.112,325.946 249,332.5C 247.926,333.618 246.76,334.618 245.5,335.5C 245.833,336.167 246.167,336.833 246.5,337.5C 242.577,343.445 239.244,349.278 236.5,355C 236.988,356.584 237.988,357.751 239.5,358.5C 238.674,359.451 238.508,360.451 239,361.5C 240.419,362.46 241.919,363.293 243.5,364C 242.191,365.751 242.525,367.251 244.5,368.5C 242.548,370.741 240.382,372.741 238,374.5C 238.063,378.442 236.397,381.442 233,383.5C 232.152,386.698 230.652,389.531 228.5,392C 229.833,393 231.167,394 232.5,395C 230.755,398.566 229.589,402.399 229,406.5C 225.189,412.29 222.355,418.456 220.5,425C 221.833,425.333 223.167,425.667 224.5,426C 225.738,426.69 225.738,427.19 224.5,427.5C 220.313,426.74 216.646,424.906 213.5,422C 214.249,418.925 215.249,415.925 216.5,413C 214.485,411.445 214.152,409.611 215.5,407.5C 216.451,408.326 217.451,408.492 218.5,408C 219.667,406.167 221.167,404.667 223,403.5C 223.667,402.5 223.667,401.5 223,400.5C 220.667,399.167 218.333,399.167 216,400.5C 214.581,399.54 213.081,398.707 211.5,398C 212.833,397 212.833,396 211.5,395C 215.756,393.581 219.589,391.415 223,388.5C 223.448,386.591 222.615,385.424 220.5,385C 225.102,383.462 225.435,381.462 221.5,379C 223.184,377.26 225.018,376.094 227,375.5C 227.684,374.216 227.517,373.049 226.5,372C 228.01,369.991 229.677,368.158 231.5,366.5C 228.516,364.016 225.682,361.35 223,358.5C 223.019,356.893 223.185,355.226 223.5,353.5C 227.176,353.466 228.343,351.799 227,348.5C 230.093,346.375 232.593,343.709 234.5,340.5C 234.167,339.5 233.5,338.833 232.5,338.5C 231.38,339.833 230.047,340.333 228.5,340C 229.747,338.542 229.747,337.042 228.5,335.5C 230.858,333.976 232.691,331.976 234,329.5C 235,330.833 236,332.167 237,333.5C 237.944,332.737 238.444,331.737 238.5,330.5C 237.57,328.895 237.57,327.395 238.5,326C 238,325.5 237.5,325 237,324.5C 235.796,325.471 235.296,326.471 235.5,327.5C 233.954,326.316 232.287,325.316 230.5,324.5C 231.246,323.264 231.579,321.93 231.5,320.5C 234.614,319.909 237.114,318.242 239,315.5C 240,316.833 241,316.833 242,315.5C 243.008,311.229 242.508,307.229 240.5,303.5C 242.149,302.352 243.649,301.019 245,299.5C 247.875,294.303 246.375,291.636 240.5,291.5C 240.215,289.712 240.548,288.045 241.5,286.5C 243.23,285.974 244.564,284.974 245.5,283.5C 245.277,282.033 244.944,280.533 244.5,279C 246.82,276.352 249.486,274.019 252.5,272C 255.639,271.246 258.639,270.246 261.5,269C 261.32,265.42 259.32,262.753 255.5,261C 258.736,258.132 262.236,255.632 266,253.5C 266.273,251.899 266.773,250.399 267.5,249C 271.325,246.616 275.325,244.616 279.5,243C 280.337,241.989 280.67,240.822 280.5,239.5C 281.822,239.67 282.989,239.337 284,238.5C 284.14,235.957 284.806,233.623 286,231.5C 287.75,234.994 289.584,235.161 291.5,232C 289.411,228.877 290.078,228.71 293.5,231.5C 296.028,230.483 296.028,229.316 293.5,228C 296.044,226.225 296.044,224.392 293.5,222.5C 293.881,220.259 294.048,217.926 294,215.5C 298.581,214.252 300.914,211.252 301,206.5C 302.049,207.517 303.216,207.684 304.5,207C 305.167,205.667 305.833,204.333 306.5,203C 312.52,201.115 314.187,197.282 311.5,191.5C 314.804,190.672 317.804,189.172 320.5,187C 319.313,185.981 318.313,184.814 317.5,183.5C 319.647,180.925 322.314,179.092 325.5,178C 324.789,175.204 324.122,172.37 323.5,169.5C 324.655,168.05 326.155,167.05 328,166.5C 328.559,170.186 329.226,173.853 330,177.5C 330.667,178.833 331.333,178.833 332,177.5C 332.273,175.899 332.773,174.399 333.5,173C 332.935,167.488 332.935,161.655 333.5,155.5C 334.5,155.5 335.5,155.5 336.5,155.5C 336.824,152.306 335.658,151.306 333,152.5C 332.691,151.234 332.191,150.067 331.5,149C 333.075,149.379 334.575,149.212 336,148.5C 336.999,141.867 337.832,135.2 338.5,128.5C 341.151,126.585 340.817,125.085 337.5,124C 339.18,123.653 340.18,122.653 340.5,121C 340.244,117.924 340.077,114.758 340,111.5C 338.092,110.182 337.258,108.348 337.5,106C 339.235,100.717 339.902,95.2173 339.5,89.5 Z" fill="white" /></svg>