<?xml version="1.0" encoding="utf-8" ?>
<svg baseProfile="tiny" height="100%" version="1.2" width="100%" xmlns="http://www.w3.org/2000/svg" xmlns:ev="http://www.w3.org/2001/xml-events" xmlns:xlink="http://www.w3.org/1999/xlink"><defs /><path d="M 658.5,249.5 C 661.689,250.166 665.023,250.833 668.5,251.5C 669.174,253.517 670.341,255.183 672,256.5C 672.684,257.784 672.517,258.951 671.5,260C 669.564,260.813 667.564,261.313 665.5,261.5C 665.48,263.143 666.147,264.476 667.5,265.5C 666.91,266.799 665.91,267.632 664.5,268C 665.434,270.701 666.768,273.201 668.5,275.5C 667.595,278.951 665.762,282.285 663,285.5C 661.933,286.191 660.766,286.691 659.5,287C 664.193,287.816 664.526,289.316 660.5,291.5C 660.727,293.671 661.06,295.838 661.5,298C 659.391,298.907 658.058,300.407 657.5,302.5C 657.005,300.518 656.505,298.518 656,296.5C 654.075,295.12 652.241,293.62 650.5,292C 646.587,294.016 642.254,295.182 637.5,295.5C 634.06,289.909 629.393,288.576 623.5,291.5C 618.863,290.78 614.197,290.28 609.5,290C 606.419,288.688 604.752,286.355 604.5,283C 599.239,280.455 594.406,277.288 590,273.5C 586.804,274.512 583.637,275.678 580.5,277C 575.039,284.766 577.039,287.932 586.5,286.5C 586.063,289.807 586.73,292.807 588.5,295.5C 588.167,296.167 587.833,296.833 587.5,297.5C 589.016,299.391 590.35,301.391 591.5,303.5C 590.737,304.719 589.737,305.719 588.5,306.5C 589.5,307.167 590.5,307.833 591.5,308.5C 590.167,309.167 588.833,309.833 587.5,310.5C 588.416,312.784 587.416,313.951 584.5,314C 585.308,314.308 585.975,314.808 586.5,315.5C 585.583,316.971 584.583,318.471 583.5,320C 584.455,321.717 585.455,323.384 586.5,325C 585.707,328.411 585.207,331.911 585,335.5C 580.909,343.208 574.909,348.875 567,352.5C 565.467,352.227 563.967,351.894 562.5,351.5C 560.116,349.115 557.45,347.115 554.5,345.5C 554.586,344.504 554.252,343.671 553.5,343C 544.823,340.139 541.489,334.306 543.5,325.5C 541.059,319.738 539.559,313.738 539,307.5C 535.615,303.783 532.615,299.783 530,295.5C 527.773,288.369 523.607,282.702 517.5,278.5C 515.941,279.074 514.441,279.74 513,280.5C 511.636,286.945 508.136,291.612 502.5,294.5C 501.879,298.889 500.212,302.722 497.5,306C 490.117,310.624 482.283,313.124 474,313.5C 471.513,311.191 469.513,308.524 468,305.5C 466.804,300.777 464.804,296.443 462,292.5C 459.974,291.142 457.807,290.309 455.5,290C 454.692,287.912 453.692,285.912 452.5,284C 452.833,283.667 453.167,283.333 453.5,283C 452.241,282.077 450.908,281.243 449.5,280.5C 449.833,279.833 450.167,279.167 450.5,278.5C 449.832,271.166 448.999,263.833 448,256.5C 444.031,249.779 438.364,246.779 431,247.5C 430.102,243.205 428.269,239.372 425.5,236C 427.209,228.962 431.709,225.129 439,224.5C 449.243,226.981 458.41,224.815 466.5,218C 473.923,216.215 479.59,218.548 483.5,225C 487.278,225.539 490.778,224.705 494,222.5C 494.772,222.645 495.439,222.978 496,223.5C 499.464,220.857 502.964,219.023 506.5,218C 508.266,213.969 510.766,213.469 514,216.5C 514.772,216.355 515.439,216.022 516,215.5C 518.349,218.88 520.682,222.214 523,225.5C 524.811,227.543 526.978,229.043 529.5,230C 526.607,233.396 523.274,236.229 519.5,238.5C 517.653,241.202 516.487,244.202 516,247.5C 514.798,255.02 514.798,262.686 516,270.5C 516.804,271.804 517.971,272.471 519.5,272.5C 530.826,269.334 541.826,265.334 552.5,260.5C 553.279,258.227 554.612,256.394 556.5,255C 557.684,250.923 559.017,246.923 560.5,243C 562.5,242.333 564.5,242.333 566.5,243C 569.779,245.223 573.279,247.057 577,248.5C 585.118,244.184 592.785,244.851 600,250.5C 603.325,248.997 606.825,247.997 610.5,247.5C 611.748,248.04 612.915,248.707 614,249.5C 616.841,247.496 620.007,246.996 623.5,248C 625.671,249.174 626.671,251.007 626.5,253.5C 630.488,255.966 634.155,259.132 637.5,263C 639.441,263.743 641.274,263.576 643,262.5C 643.311,260.444 643.811,258.444 644.5,256.5C 650.169,256.495 652.002,253.495 650,247.5C 646.464,244.317 646.798,241.651 651,239.5C 653.694,241.903 654.527,244.736 653.5,248C 654.905,249.269 656.571,249.769 658.5,249.5 Z" fill="white" /></svg>