<?xml version="1.0" encoding="utf-8" ?>
<svg baseProfile="tiny" height="100%" version="1.2" width="100%" xmlns="http://www.w3.org/2000/svg" xmlns:ev="http://www.w3.org/2001/xml-events" xmlns:xlink="http://www.w3.org/1999/xlink"><defs /><path d="M 637.5,295.5 C 630.292,293.591 622.959,293.091 615.5,294C 614,295.5 612.5,297 611,298.5C 610.088,310.531 608.755,322.531 607,334.5C 601.769,347.36 592.602,356.026 579.5,360.5C 575.215,357.911 570.548,356.244 565.5,355.5C 564.476,354.148 563.476,352.815 562.5,351.5C 563.967,351.894 565.467,352.227 567,352.5C 574.909,348.875 580.909,343.208 585,335.5C 585.207,331.911 585.707,328.411 586.5,325C 585.455,323.384 584.455,321.717 583.5,320C 584.583,318.471 585.583,316.971 586.5,315.5C 585.975,314.808 585.308,314.308 584.5,314C 587.416,313.951 588.416,312.784 587.5,310.5C 588.833,309.833 590.167,309.167 591.5,308.5C 590.5,307.833 589.5,307.167 588.5,306.5C 589.737,305.719 590.737,304.719 591.5,303.5C 590.35,301.391 589.016,299.391 587.5,297.5C 587.833,296.833 588.167,296.167 588.5,295.5C 586.73,292.807 586.063,289.807 586.5,286.5C 577.039,287.932 575.039,284.766 580.5,277C 583.637,275.678 586.804,274.512 590,273.5C 594.406,277.288 599.239,280.455 604.5,283C 604.752,286.355 606.419,288.688 609.5,290C 614.197,290.28 618.863,290.78 623.5,291.5C 629.393,288.576 634.06,289.909 637.5,295.5 Z" fill="white" /></svg>