<?xml version="1.0" encoding="utf-8" ?>
<svg baseProfile="tiny" height="100%" version="1.2" width="100%" xmlns="http://www.w3.org/2000/svg" xmlns:ev="http://www.w3.org/2001/xml-events" xmlns:xlink="http://www.w3.org/1999/xlink"><defs /><path d="M 444.5,417.5 C 446.5,416.5 448.5,415.5 450.5,414.5C 450.344,417.066 450.678,419.566 451.5,422C 451.138,423.225 450.638,424.391 450,425.5C 448.853,424.542 447.853,424.875 447,426.5C 443.191,442.146 447.691,454.646 460.5,464C 463.869,464.663 467.203,464.496 470.5,463.5C 475.833,464.5 475.833,465.5 470.5,466.5C 468.528,465.557 466.695,465.224 465,465.5C 464.25,466.126 463.416,466.626 462.5,467C 462.833,467.333 463.167,467.667 463.5,468C 461.655,469.128 459.655,469.628 457.5,469.5C 458.219,472.073 459.219,474.573 460.5,477C 481.097,485.399 500.763,483.399 519.5,471C 521.155,469.556 521.822,467.722 521.5,465.5C 514.262,466.307 506.929,465.974 499.5,464.5C 503.823,460.008 507.99,455.341 512,450.5C 513.134,441.359 514.967,432.193 517.5,423C 517.212,420.813 516.878,418.646 516.5,416.5C 516.833,416.5 517.167,416.5 517.5,416.5C 519.735,417.228 521.568,418.561 523,420.5C 525.201,423.121 527.035,425.954 528.5,429C 538.884,436.067 546.051,433.567 550,421.5C 552.409,407.908 558.742,396.575 569,387.5C 569.422,383.991 570.422,380.657 572,377.5C 574.412,374.208 577.579,373.041 581.5,374C 586.235,377.52 591.568,379.52 597.5,380C 599.677,381.497 601.01,383.497 601.5,386C 601.316,392.034 598.982,397.034 594.5,401C 589.099,403.27 586.266,407.436 586,413.5C 582.22,417.282 579.22,421.616 577,426.5C 575.786,428.049 574.286,429.215 572.5,430C 569.117,430.875 565.784,431.875 562.5,433C 554.833,441.333 547.167,449.667 539.5,458C 532.223,462.054 526.889,467.887 523.5,475.5C 524.927,478.533 524.594,481.366 522.5,484C 515.726,484.591 509.393,486.591 503.5,490C 493.5,490.667 483.5,490.667 473.5,490C 471.5,489 469.5,488 467.5,487C 463.016,482.922 458.016,479.589 452.5,477C 445.277,469.115 438.11,461.282 431,453.5C 430.55,451.481 429.717,449.648 428.5,448C 429.227,446.601 429.727,445.101 430,443.5C 434.35,437.132 437.35,430.132 439,422.5C 441.612,421.623 443.445,419.957 444.5,417.5 Z" fill="white" /></svg>