<?xml version="1.0" encoding="utf-8" ?>
<svg baseProfile="tiny" height="100%" version="1.2" width="100%" xmlns="http://www.w3.org/2000/svg" xmlns:ev="http://www.w3.org/2001/xml-events" xmlns:xlink="http://www.w3.org/1999/xlink"><defs /><path d="M 657.5,302.5 C 657.66,304.199 657.494,305.866 657,307.5C 653.025,312.303 652.358,317.303 655,322.5C 655.043,332.065 656.043,341.399 658,350.5C 652.213,361.526 648.213,373.193 646,385.5C 643.247,390.008 640.247,394.341 637,398.5C 636.105,402.21 635.105,405.877 634,409.5C 627.265,411.903 622.931,416.57 621,423.5C 618.749,425.377 616.249,426.877 613.5,428C 612.54,429.419 611.707,430.919 611,432.5C 610.296,439.313 608.962,445.98 607,452.5C 605.833,453.667 604.667,454.833 603.5,456C 605.299,460.622 603.633,462.956 598.5,463C 600.246,463.471 601.913,464.138 603.5,465C 602.004,467.447 602.337,468.281 604.5,467.5C 605.457,474.548 608.957,479.215 615,481.5C 615.417,487.008 615.917,492.508 616.5,498C 614.386,503.341 612.886,508.841 612,514.5C 614.213,515.802 616.546,516.802 619,517.5C 625.207,514.771 631.707,513.271 638.5,513C 639,513.5 639.5,514 640,514.5C 640.998,519.156 641.831,523.822 642.5,528.5C 642.681,531.397 642.348,534.23 641.5,537C 642.734,541.276 644.067,545.442 645.5,549.5C 643.881,554.071 641.715,558.404 639,562.5C 638.372,571.021 637.539,579.521 636.5,588C 636.365,592.811 636.699,597.477 637.5,602C 634.607,606.631 634.94,610.964 638.5,615C 640.676,615.163 642.509,615.996 644,617.5C 646.092,621.197 647.259,625.197 647.5,629.5C 526.833,629.5 406.167,629.5 285.5,629.5C 283.644,625.142 280.81,621.475 277,618.5C 275.941,615.382 274.608,612.382 273,609.5C 269.119,607.554 265.786,604.888 263,601.5C 259.833,593.527 261.333,586.694 267.5,581C 271.531,579.712 274.197,581.045 275.5,585C 272.889,589.834 272.889,594.667 275.5,599.5C 276.5,600.167 277.5,600.833 278.5,601.5C 279.457,603.918 280.791,606.084 282.5,608C 284.464,608.624 286.131,608.124 287.5,606.5C 290.328,607.321 290.994,606.321 289.5,603.5C 290.178,601.484 290.844,599.484 291.5,597.5C 294.8,595.696 297.634,593.363 300,590.5C 300.667,588.833 300.667,587.167 300,585.5C 298.779,584.226 297.946,582.726 297.5,581C 298.259,575.872 298.759,570.705 299,565.5C 298.688,559.197 300.855,554.031 305.5,550C 309.238,550.183 312.905,551.016 316.5,552.5C 319.438,551.425 322.438,551.259 325.5,552C 328.727,558.054 333.727,560.054 340.5,558C 342.373,557.047 342.706,555.88 341.5,554.5C 346.377,553.812 350.71,554.979 354.5,558C 356.066,560.93 356.9,564.097 357,567.5C 360.418,571.367 363.751,571.367 367,567.5C 367.457,564.204 368.291,561.037 369.5,558C 368.833,557.333 368.167,556.667 367.5,556C 368.685,554.647 370.019,553.48 371.5,552.5C 368.717,550.605 367.217,547.939 367,544.5C 364.947,543.733 363.447,542.4 362.5,540.5C 363.047,536.936 363.714,533.436 364.5,530C 363.809,528.933 363.309,527.766 363,526.5C 358.574,523.512 353.741,521.345 348.5,520C 347.398,517.137 346.398,514.304 345.5,511.5C 344.412,510.066 343.078,509.066 341.5,508.5C 341.16,506.321 340.16,504.488 338.5,503C 332.276,502.961 330.276,500.128 332.5,494.5C 331.757,493.818 331.091,493.151 330.5,492.5C 331.151,491.909 331.818,491.243 332.5,490.5C 334.519,492.465 336.519,492.631 338.5,491C 338.767,488.31 340.101,485.81 342.5,483.5C 341.777,477.503 340.944,471.503 340,465.5C 337.68,461.266 336.68,456.933 337,452.5C 335.333,450.167 333.667,447.833 332,445.5C 332,442.167 332,438.833 332,435.5C 329.294,433.129 326.961,430.463 325,427.5C 324.333,423.5 324.333,419.5 325,415.5C 325.831,410.846 328.331,409.512 332.5,411.5C 334.527,410.487 336.527,409.487 338.5,408.5C 339.414,411.728 339.747,415.061 339.5,418.5C 341.582,418.472 343.416,419.139 345,420.5C 346.018,419.294 346.518,419.627 346.5,421.5C 346.263,424.063 345.763,424.063 345,421.5C 343.244,422.421 343.077,423.588 344.5,425C 342.805,429.557 340.972,434.057 339,438.5C 338.506,440.134 338.34,441.801 338.5,443.5C 344.5,443.5 350.5,443.5 356.5,443.5C 355.134,446.064 353.467,448.564 351.5,451C 353.62,452.523 353.953,454.356 352.5,456.5C 354.09,458.68 355.424,461.013 356.5,463.5C 359.036,463.844 361.203,464.844 363,466.5C 363.171,471.864 363.671,477.198 364.5,482.5C 366.018,485.146 367.351,487.979 368.5,491C 370.693,492.064 372.693,493.398 374.5,495C 383.737,496.357 392.404,499.191 400.5,503.5C 406.16,510.156 409.66,517.822 411,526.5C 411.779,527.728 412.779,528.728 414,529.5C 418.223,527.973 422.056,525.807 425.5,523C 428.642,523.088 431.142,524.588 433,527.5C 435.009,538.919 441.342,543.919 452,542.5C 453.221,543.272 454.221,544.272 455,545.5C 457.327,542.632 458.827,542.965 459.5,546.5C 462.667,548.167 465.833,549.833 469,551.5C 470.727,548.651 470.894,545.651 469.5,542.5C 468.914,542.709 468.414,543.043 468,543.5C 463.23,540.727 459.897,536.727 458,531.5C 451.674,526.339 448.174,519.839 447.5,512C 444.606,508.774 442.106,505.274 440,501.5C 433.548,500.508 427.381,498.174 421.5,494.5C 420.24,491.945 418.906,489.445 417.5,487C 418.167,486.333 418.833,485.667 419.5,485C 415.768,482.467 411.768,480.467 407.5,479C 407.006,474.912 404.672,472.912 400.5,473C 400.833,472.667 401.167,472.333 401.5,472C 396.277,468.55 391.943,464.217 388.5,459C 388.577,456.003 388.91,453.003 389.5,450C 387.892,447.391 385.559,446.058 382.5,446C 382.833,445.667 383.167,445.333 383.5,445C 381.561,444.092 380.561,442.592 380.5,440.5C 378.516,440.617 376.85,439.95 375.5,438.5C 376.167,436.5 376.833,434.5 377.5,432.5C 376.05,431.15 375.383,429.484 375.5,427.5C 367.409,423.097 359.076,419.931 350.5,418C 349.256,414.545 349.589,411.045 351.5,407.5C 349.921,403.855 347.921,403.689 345.5,407C 343.934,407.765 342.601,407.598 341.5,406.5C 342.51,402.794 343.01,398.794 343,394.5C 338.826,388.154 335.159,381.488 332,374.5C 331.833,371.667 331.667,368.833 331.5,366C 330.7,360.908 332.034,356.575 335.5,353C 341.792,351.263 344.792,347.096 344.5,340.5C 346.816,341.806 349.15,343.139 351.5,344.5C 353.747,343.626 356.08,343.292 358.5,343.5C 358.317,341.064 358.984,338.897 360.5,337C 360.292,333.675 359.959,330.342 359.5,327C 362.325,323.599 363.658,319.599 363.5,315C 362.188,310.484 361.188,305.817 360.5,301C 360.667,300.167 360.833,299.333 361,298.5C 363.181,296.737 365.347,295.07 367.5,293.5C 372.334,291.75 376.5,292.75 380,296.5C 384.107,307.154 386.774,318.154 388,329.5C 391.092,344.11 399.925,350.444 414.5,348.5C 415.374,349.525 416.541,350.192 418,350.5C 422.106,347.946 426.44,345.946 431,344.5C 432.107,344.585 433.107,344.919 434,345.5C 434.346,347.218 434.846,348.885 435.5,350.5C 435.291,351.086 434.957,351.586 434.5,352C 435.397,360.294 436.397,368.628 437.5,377C 436.041,385.92 434.208,394.753 432,403.5C 429.123,407.337 427.623,411.67 427.5,416.5C 428.978,416.762 430.311,416.429 431.5,415.5C 432.026,413.77 433.026,412.436 434.5,411.5C 436.667,412.792 439,413.625 441.5,414C 442.71,415.039 443.71,416.206 444.5,417.5C 443.445,419.957 441.612,421.623 439,422.5C 437.35,430.132 434.35,437.132 430,443.5C 429.727,445.101 429.227,446.601 428.5,448C 429.717,449.648 430.55,451.481 431,453.5C 438.11,461.282 445.277,469.115 452.5,477C 458.016,479.589 463.016,482.922 467.5,487C 469.5,488 471.5,489 473.5,490C 483.5,490.667 493.5,490.667 503.5,490C 509.393,486.591 515.726,484.591 522.5,484C 524.594,481.366 524.927,478.533 523.5,475.5C 526.889,467.887 532.223,462.054 539.5,458C 547.167,449.667 554.833,441.333 562.5,433C 565.784,431.875 569.117,430.875 572.5,430C 574.286,429.215 575.786,428.049 577,426.5C 579.22,421.616 582.22,417.282 586,413.5C 586.266,407.436 589.099,403.27 594.5,401C 598.982,397.034 601.316,392.034 601.5,386C 601.01,383.497 599.677,381.497 597.5,380C 591.568,379.52 586.235,377.52 581.5,374C 577.579,373.041 574.412,374.208 572,377.5C 570.422,380.657 569.422,383.991 569,387.5C 558.742,396.575 552.409,407.908 550,421.5C 546.051,433.567 538.884,436.067 528.5,429C 527.035,425.954 525.201,423.121 523,420.5C 521.568,418.561 519.735,417.228 517.5,416.5C 520.45,409.025 525.783,406.358 533.5,408.5C 532.75,410.93 532.417,413.264 532.5,415.5C 533.313,416.814 534.313,417.981 535.5,419C 539.101,418.423 542.768,418.59 546.5,419.5C 546.888,417.315 547.888,415.482 549.5,414C 549.337,411.016 548.837,407.85 548,404.5C 544.473,401.395 541.14,398.061 538,394.5C 536.95,390.696 536.116,386.863 535.5,383C 537.38,375.727 539.713,368.56 542.5,361.5C 541.5,360.667 540.5,359.833 539.5,359C 541.811,357.948 543.144,356.115 543.5,353.5C 542.869,350.812 542.869,348.312 543.5,346C 547.152,345.501 550.818,345.335 554.5,345.5C 557.45,347.115 560.116,349.115 562.5,351.5C 563.476,352.815 564.476,354.148 565.5,355.5C 570.548,356.244 575.215,357.911 579.5,360.5C 592.602,356.026 601.769,347.36 607,334.5C 608.755,322.531 610.088,310.531 611,298.5C 612.5,297 614,295.5 615.5,294C 622.959,293.091 630.292,293.591 637.5,295.5C 642.254,295.182 646.587,294.016 650.5,292C 652.241,293.62 654.075,295.12 656,296.5C 656.505,298.518 657.005,300.518 657.5,302.5 Z" fill="white" /></svg>